G04 #@! TF.GenerationSoftware,KiCad,Pcbnew,5.1.5-52549c5~84~ubuntu19.10.1*
G04 #@! TF.CreationDate,2020-03-27T11:31:54+02:00*
G04 #@! TF.ProjectId,ESP-PROG_Rev.C,4553502d-5052-44f4-975f-5265762e432e,rev?*
G04 #@! TF.SameCoordinates,Original*
G04 #@! TF.FileFunction,Legend,Top*
G04 #@! TF.FilePolarity,Positive*
%FSLAX46Y46*%
G04 Gerber Fmt 4.6, Leading zero omitted, Abs format (unit mm)*
G04 Created by KiCad (PCBNEW 5.1.5-52549c5~84~ubuntu19.10.1) date 2020-03-27 11:31:54*
%MOMM*%
%LPD*%
G04 APERTURE LIST*
%ADD10C,0.150000*%
%ADD11C,0.200000*%
%ADD12C,0.254000*%
%ADD13C,0.127000*%
G04 APERTURE END LIST*
D10*
X128347619Y-94561904D02*
X127966666Y-94561904D01*
X127928571Y-94942857D01*
X127966666Y-94904761D01*
X128042857Y-94866666D01*
X128233333Y-94866666D01*
X128309523Y-94904761D01*
X128347619Y-94942857D01*
X128385714Y-95019047D01*
X128385714Y-95209523D01*
X128347619Y-95285714D01*
X128309523Y-95323809D01*
X128233333Y-95361904D01*
X128042857Y-95361904D01*
X127966666Y-95323809D01*
X127928571Y-95285714D01*
X128614285Y-94561904D02*
X128880952Y-95361904D01*
X129147619Y-94561904D01*
X130409523Y-94942857D02*
X130676190Y-94942857D01*
X130790476Y-95361904D02*
X130409523Y-95361904D01*
X130409523Y-94561904D01*
X130790476Y-94561904D01*
X131133333Y-95361904D02*
X131133333Y-94561904D01*
X131590476Y-95361904D01*
X131590476Y-94561904D01*
D11*
X123419047Y-95202380D02*
X123085714Y-94726190D01*
X122847619Y-95202380D02*
X122847619Y-94202380D01*
X123228571Y-94202380D01*
X123323809Y-94250000D01*
X123371428Y-94297619D01*
X123419047Y-94392857D01*
X123419047Y-94535714D01*
X123371428Y-94630952D01*
X123323809Y-94678571D01*
X123228571Y-94726190D01*
X122847619Y-94726190D01*
X124228571Y-95154761D02*
X124133333Y-95202380D01*
X123942857Y-95202380D01*
X123847619Y-95154761D01*
X123800000Y-95059523D01*
X123800000Y-94678571D01*
X123847619Y-94583333D01*
X123942857Y-94535714D01*
X124133333Y-94535714D01*
X124228571Y-94583333D01*
X124276190Y-94678571D01*
X124276190Y-94773809D01*
X123800000Y-94869047D01*
X124609523Y-94535714D02*
X124847619Y-95202380D01*
X125085714Y-94535714D01*
X126800000Y-95107142D02*
X126752380Y-95154761D01*
X126609523Y-95202380D01*
X126514285Y-95202380D01*
X126371428Y-95154761D01*
X126276190Y-95059523D01*
X126228571Y-94964285D01*
X126180952Y-94773809D01*
X126180952Y-94630952D01*
X126228571Y-94440476D01*
X126276190Y-94345238D01*
X126371428Y-94250000D01*
X126514285Y-94202380D01*
X126609523Y-94202380D01*
X126752380Y-94250000D01*
X126800000Y-94297619D01*
D12*
X115255366Y-92891142D02*
X115754900Y-92891142D01*
X115968985Y-93689428D02*
X115255366Y-93689428D01*
X115255366Y-92165428D01*
X115968985Y-92165428D01*
X116539880Y-93616857D02*
X116753966Y-93689428D01*
X117110776Y-93689428D01*
X117253500Y-93616857D01*
X117324861Y-93544285D01*
X117396223Y-93399142D01*
X117396223Y-93254000D01*
X117324861Y-93108857D01*
X117253500Y-93036285D01*
X117110776Y-92963714D01*
X116825328Y-92891142D01*
X116682604Y-92818571D01*
X116611242Y-92746000D01*
X116539880Y-92600857D01*
X116539880Y-92455714D01*
X116611242Y-92310571D01*
X116682604Y-92238000D01*
X116825328Y-92165428D01*
X117182138Y-92165428D01*
X117396223Y-92238000D01*
X118038480Y-93689428D02*
X118038480Y-92165428D01*
X118609376Y-92165428D01*
X118752100Y-92238000D01*
X118823461Y-92310571D01*
X118894823Y-92455714D01*
X118894823Y-92673428D01*
X118823461Y-92818571D01*
X118752100Y-92891142D01*
X118609376Y-92963714D01*
X118038480Y-92963714D01*
X119537080Y-93108857D02*
X120678871Y-93108857D01*
X121392490Y-93689428D02*
X121392490Y-92165428D01*
X121963385Y-92165428D01*
X122106109Y-92238000D01*
X122177471Y-92310571D01*
X122248833Y-92455714D01*
X122248833Y-92673428D01*
X122177471Y-92818571D01*
X122106109Y-92891142D01*
X121963385Y-92963714D01*
X121392490Y-92963714D01*
X123747433Y-93689428D02*
X123247900Y-92963714D01*
X122891090Y-93689428D02*
X122891090Y-92165428D01*
X123461985Y-92165428D01*
X123604709Y-92238000D01*
X123676071Y-92310571D01*
X123747433Y-92455714D01*
X123747433Y-92673428D01*
X123676071Y-92818571D01*
X123604709Y-92891142D01*
X123461985Y-92963714D01*
X122891090Y-92963714D01*
X124675138Y-92165428D02*
X124960585Y-92165428D01*
X125103309Y-92238000D01*
X125246033Y-92383142D01*
X125317395Y-92673428D01*
X125317395Y-93181428D01*
X125246033Y-93471714D01*
X125103309Y-93616857D01*
X124960585Y-93689428D01*
X124675138Y-93689428D01*
X124532414Y-93616857D01*
X124389690Y-93471714D01*
X124318328Y-93181428D01*
X124318328Y-92673428D01*
X124389690Y-92383142D01*
X124532414Y-92238000D01*
X124675138Y-92165428D01*
X126744633Y-92238000D02*
X126601909Y-92165428D01*
X126387823Y-92165428D01*
X126173738Y-92238000D01*
X126031014Y-92383142D01*
X125959652Y-92528285D01*
X125888290Y-92818571D01*
X125888290Y-93036285D01*
X125959652Y-93326571D01*
X126031014Y-93471714D01*
X126173738Y-93616857D01*
X126387823Y-93689428D01*
X126530547Y-93689428D01*
X126744633Y-93616857D01*
X126815995Y-93544285D01*
X126815995Y-93036285D01*
X126530547Y-93036285D01*
X132710000Y-102746000D02*
X132710000Y-103254000D01*
X135250000Y-102746000D02*
X135250000Y-103254000D01*
D10*
X132040000Y-94190000D02*
G75*
G03X132040000Y-94190000I-200000J0D01*
G01*
X136840000Y-94190000D02*
X136340000Y-94190000D01*
X136840000Y-94690000D02*
X136840000Y-94190000D01*
X132140000Y-94190000D02*
X132340000Y-94190000D01*
X131840000Y-94690000D02*
X131840000Y-94490000D01*
X136840000Y-99190000D02*
X136340000Y-99190000D01*
X136840000Y-98690000D02*
X136840000Y-99190000D01*
X131840000Y-99190000D02*
X132340000Y-99190000D01*
X131840000Y-98690000D02*
X131840000Y-99190000D01*
D12*
X145060000Y-94270000D02*
X145060000Y-91730000D01*
X139980000Y-91984000D02*
X139726000Y-91730000D01*
X140234000Y-91730000D02*
X139980000Y-91984000D01*
X142774000Y-91730000D02*
X144552000Y-91730000D01*
X142520000Y-91984000D02*
X142774000Y-91730000D01*
X142266000Y-91730000D02*
X142520000Y-91984000D01*
X140234000Y-91730000D02*
X142266000Y-91730000D01*
X144552000Y-91730000D02*
X145060000Y-91730000D01*
X144806000Y-91730000D02*
X145060000Y-91984000D01*
X145060000Y-94016000D02*
X144806000Y-94270000D01*
X137694000Y-91730000D02*
X139726000Y-91730000D01*
X137440000Y-91984000D02*
X137694000Y-91730000D01*
X134646000Y-91730000D02*
X134900000Y-91984000D01*
X135154000Y-91730000D02*
X137186000Y-91730000D01*
X134900000Y-91984000D02*
X135154000Y-91730000D01*
X135154000Y-94270000D02*
X134900000Y-94016000D01*
X137186000Y-94270000D02*
X135154000Y-94270000D01*
X137440000Y-94016000D02*
X137186000Y-94270000D01*
X137694000Y-94270000D02*
X137440000Y-94016000D01*
X139726000Y-94270000D02*
X137694000Y-94270000D01*
X139980000Y-94016000D02*
X139726000Y-94270000D01*
X140234000Y-94270000D02*
X139980000Y-94016000D01*
X142266000Y-94270000D02*
X140234000Y-94270000D01*
X142520000Y-94016000D02*
X142266000Y-94270000D01*
X142774000Y-94270000D02*
X142520000Y-94016000D01*
X144806000Y-94270000D02*
X142774000Y-94270000D01*
X145060000Y-94270000D02*
X144806000Y-94270000D01*
X134900000Y-94016000D02*
X134646000Y-94270000D01*
X134646000Y-94270000D02*
X132614000Y-94270000D01*
X130074000Y-94270000D02*
X129820000Y-94016000D01*
X132614000Y-91730000D02*
X134646000Y-91730000D01*
X137186000Y-91730000D02*
X137440000Y-91984000D01*
X129820000Y-91984000D02*
X130074000Y-91730000D01*
X132106000Y-94270000D02*
X130074000Y-94270000D01*
X132360000Y-94016000D02*
X132106000Y-94270000D01*
X130074000Y-91730000D02*
X132106000Y-91730000D01*
X132360000Y-91984000D02*
X132614000Y-91730000D01*
X132106000Y-91730000D02*
X132360000Y-91984000D01*
X132614000Y-94270000D02*
X132360000Y-94016000D01*
X130074000Y-94270000D02*
X129820000Y-94016000D01*
X129820000Y-91984000D02*
X130074000Y-91730000D01*
X130074000Y-91730000D02*
X132106000Y-91730000D01*
X132106000Y-94270000D02*
X130074000Y-94270000D01*
X132360000Y-94016000D02*
X132106000Y-94270000D01*
X132106000Y-91730000D02*
X132360000Y-91984000D01*
X127534000Y-94270000D02*
X127280000Y-94016000D01*
X127280000Y-91984000D02*
X127534000Y-91730000D01*
X127280000Y-94016000D02*
X127280000Y-91984000D01*
X127534000Y-91730000D02*
X129566000Y-91730000D01*
X129566000Y-94270000D02*
X127534000Y-94270000D01*
X129820000Y-94016000D02*
X129566000Y-94270000D01*
X129566000Y-91730000D02*
X129820000Y-91984000D01*
X114071000Y-95936000D02*
X115087000Y-96317000D01*
X114071000Y-104064000D02*
X115087000Y-103683000D01*
X119600000Y-103700000D02*
X118400000Y-103700000D01*
X115100000Y-96300000D02*
X116100000Y-96300000D01*
X114000000Y-104064000D02*
X114000000Y-95936000D01*
X116100000Y-103700000D02*
X115100000Y-103700000D01*
X121100000Y-102800000D02*
X121100000Y-101800000D01*
X121100000Y-98200000D02*
X121100000Y-97200000D01*
X119600000Y-96300000D02*
X118400000Y-96300000D01*
X115100000Y-103700000D02*
X115100000Y-96300000D01*
X123571000Y-97269500D02*
X123571000Y-102730500D01*
X130810000Y-97269500D02*
X123190000Y-97269500D01*
X123190000Y-102730500D02*
X130810000Y-102730500D01*
X130810000Y-97269500D02*
X130810000Y-102730500D01*
X123190000Y-102730500D02*
X123190000Y-97269500D01*
X141000000Y-97655500D02*
X141254000Y-97655500D01*
X141000000Y-97655500D02*
X140746000Y-97655500D01*
X141000000Y-98544500D02*
X140746000Y-98544500D01*
X141000000Y-98544500D02*
X141254000Y-98544500D01*
X141000000Y-101055500D02*
X141254000Y-101055500D01*
X141000000Y-101055500D02*
X140746000Y-101055500D01*
X141000000Y-101944500D02*
X140746000Y-101944500D01*
X141000000Y-101944500D02*
X141254000Y-101944500D01*
X136844500Y-101600000D02*
X136844500Y-101854000D01*
X136844500Y-101600000D02*
X136844500Y-101346000D01*
X135955500Y-101600000D02*
X135955500Y-101346000D01*
X135955500Y-101600000D02*
X135955500Y-101854000D01*
X135955500Y-98800000D02*
X135955500Y-98546000D01*
X135955500Y-98800000D02*
X135955500Y-99054000D01*
X136844500Y-98800000D02*
X136844500Y-99054000D01*
X136844500Y-98800000D02*
X136844500Y-98546000D01*
X139635000Y-104522400D02*
X139635000Y-103811200D01*
X138796800Y-104522400D02*
X139635000Y-104522400D01*
X138796800Y-101677600D02*
X139635000Y-101677600D01*
X139635000Y-102388800D02*
X139635000Y-101677600D01*
X139635000Y-101122400D02*
X139635000Y-100411200D01*
X138796800Y-101122400D02*
X139635000Y-101122400D01*
X138796800Y-98277600D02*
X139635000Y-98277600D01*
X139635000Y-98988800D02*
X139635000Y-98277600D01*
X136844500Y-103800000D02*
X136844500Y-104054000D01*
X136844500Y-103800000D02*
X136844500Y-103546000D01*
X135955500Y-103800000D02*
X135955500Y-103546000D01*
X135955500Y-103800000D02*
X135955500Y-104054000D01*
X133058000Y-100982000D02*
X132042000Y-100982000D01*
X133058000Y-99458000D02*
X132042000Y-99458000D01*
X131255500Y-103900000D02*
X131255500Y-103646000D01*
X131255500Y-103900000D02*
X131255500Y-104154000D01*
X132144500Y-103900000D02*
X132144500Y-104154000D01*
X132144500Y-103900000D02*
X132144500Y-103646000D01*
X137698000Y-96738000D02*
X137698000Y-95722000D01*
X139222000Y-96738000D02*
X139222000Y-95722000D01*
X145500000Y-95150000D02*
X145500000Y-104850000D01*
X145500000Y-104850000D02*
X142300000Y-104850000D01*
X142300000Y-104850000D02*
X142300000Y-95150000D01*
X142300000Y-95150000D02*
X145500000Y-95150000D01*
D10*
X130496666Y-104803333D02*
X130496666Y-105136666D01*
X130263333Y-104436666D02*
X130496666Y-104803333D01*
X130730000Y-104436666D01*
X131330000Y-105136666D02*
X130930000Y-105136666D01*
X131130000Y-105136666D02*
X131130000Y-104436666D01*
X131063333Y-104536666D01*
X130996666Y-104603333D01*
X130930000Y-104636666D01*
D11*
X136161904Y-105097142D02*
X136123809Y-105173333D01*
X136085714Y-105211428D01*
X136009523Y-105249523D01*
X135780952Y-105249523D01*
X135704761Y-105211428D01*
X135666666Y-105173333D01*
X135628571Y-105097142D01*
X135628571Y-104982857D01*
X135666666Y-104906666D01*
X135704761Y-104868571D01*
X135780952Y-104830476D01*
X136009523Y-104830476D01*
X136085714Y-104868571D01*
X136123809Y-104906666D01*
X136161904Y-104982857D01*
X136161904Y-105097142D01*
D10*
X130496666Y-96036666D02*
X130496666Y-96603333D01*
X130530000Y-96670000D01*
X130563333Y-96703333D01*
X130630000Y-96736666D01*
X130763333Y-96736666D01*
X130830000Y-96703333D01*
X130863333Y-96670000D01*
X130896666Y-96603333D01*
X130896666Y-96036666D01*
X131196666Y-96103333D02*
X131230000Y-96070000D01*
X131296666Y-96036666D01*
X131463333Y-96036666D01*
X131530000Y-96070000D01*
X131563333Y-96103333D01*
X131596666Y-96170000D01*
X131596666Y-96236666D01*
X131563333Y-96336666D01*
X131163333Y-96736666D01*
X131596666Y-96736666D01*
X121916666Y-100316666D02*
X122483333Y-100316666D01*
X122550000Y-100283333D01*
X122583333Y-100250000D01*
X122616666Y-100183333D01*
X122616666Y-100050000D01*
X122583333Y-99983333D01*
X122550000Y-99950000D01*
X122483333Y-99916666D01*
X121916666Y-99916666D01*
X122583333Y-99616666D02*
X122616666Y-99516666D01*
X122616666Y-99350000D01*
X122583333Y-99283333D01*
X122550000Y-99250000D01*
X122483333Y-99216666D01*
X122416666Y-99216666D01*
X122350000Y-99250000D01*
X122316666Y-99283333D01*
X122283333Y-99350000D01*
X122250000Y-99483333D01*
X122216666Y-99550000D01*
X122183333Y-99583333D01*
X122116666Y-99616666D01*
X122050000Y-99616666D01*
X121983333Y-99583333D01*
X121950000Y-99550000D01*
X121916666Y-99483333D01*
X121916666Y-99316666D01*
X121950000Y-99216666D01*
X122250000Y-98683333D02*
X122283333Y-98583333D01*
X122316666Y-98550000D01*
X122383333Y-98516666D01*
X122483333Y-98516666D01*
X122550000Y-98550000D01*
X122583333Y-98583333D01*
X122616666Y-98650000D01*
X122616666Y-98916666D01*
X121916666Y-98916666D01*
X121916666Y-98683333D01*
X121950000Y-98616666D01*
X121983333Y-98583333D01*
X122050000Y-98550000D01*
X122116666Y-98550000D01*
X122183333Y-98583333D01*
X122216666Y-98616666D01*
X122250000Y-98683333D01*
X122250000Y-98916666D01*
X122616666Y-97850000D02*
X122616666Y-98250000D01*
X122616666Y-98050000D02*
X121916666Y-98050000D01*
X122016666Y-98116666D01*
X122083333Y-98183333D01*
X122116666Y-98250000D01*
D13*
X117068666Y-98221809D02*
X117238000Y-98729809D01*
X117407333Y-98221809D01*
X117746000Y-98463714D02*
X117818571Y-98487904D01*
X117842761Y-98512095D01*
X117866952Y-98560476D01*
X117866952Y-98633047D01*
X117842761Y-98681428D01*
X117818571Y-98705619D01*
X117770190Y-98729809D01*
X117576666Y-98729809D01*
X117576666Y-98221809D01*
X117746000Y-98221809D01*
X117794380Y-98246000D01*
X117818571Y-98270190D01*
X117842761Y-98318571D01*
X117842761Y-98366952D01*
X117818571Y-98415333D01*
X117794380Y-98439523D01*
X117746000Y-98463714D01*
X117576666Y-98463714D01*
X118084666Y-98221809D02*
X118084666Y-98633047D01*
X118108857Y-98681428D01*
X118133047Y-98705619D01*
X118181428Y-98729809D01*
X118278190Y-98729809D01*
X118326571Y-98705619D01*
X118350761Y-98681428D01*
X118374952Y-98633047D01*
X118374952Y-98221809D01*
X118592666Y-98705619D02*
X118665238Y-98729809D01*
X118786190Y-98729809D01*
X118834571Y-98705619D01*
X118858761Y-98681428D01*
X118882952Y-98633047D01*
X118882952Y-98584666D01*
X118858761Y-98536285D01*
X118834571Y-98512095D01*
X118786190Y-98487904D01*
X118689428Y-98463714D01*
X118641047Y-98439523D01*
X118616857Y-98415333D01*
X118592666Y-98366952D01*
X118592666Y-98318571D01*
X118616857Y-98270190D01*
X118641047Y-98246000D01*
X118689428Y-98221809D01*
X118810380Y-98221809D01*
X118882952Y-98246000D01*
X118052476Y-99479809D02*
X118052476Y-98971809D01*
X118173428Y-98971809D01*
X118246000Y-98996000D01*
X118294380Y-99044380D01*
X118318571Y-99092761D01*
X118342761Y-99189523D01*
X118342761Y-99262095D01*
X118318571Y-99358857D01*
X118294380Y-99407238D01*
X118246000Y-99455619D01*
X118173428Y-99479809D01*
X118052476Y-99479809D01*
X118560476Y-99286285D02*
X118947523Y-99286285D01*
X118052476Y-100229809D02*
X118052476Y-99721809D01*
X118173428Y-99721809D01*
X118246000Y-99746000D01*
X118294380Y-99794380D01*
X118318571Y-99842761D01*
X118342761Y-99939523D01*
X118342761Y-100012095D01*
X118318571Y-100108857D01*
X118294380Y-100157238D01*
X118246000Y-100205619D01*
X118173428Y-100229809D01*
X118052476Y-100229809D01*
X118560476Y-100036285D02*
X118947523Y-100036285D01*
X118754000Y-100229809D02*
X118754000Y-99842761D01*
X118496000Y-100979809D02*
X118496000Y-100471809D01*
X118737904Y-100979809D02*
X118737904Y-100471809D01*
X118858857Y-100471809D01*
X118931428Y-100496000D01*
X118979809Y-100544380D01*
X119004000Y-100592761D01*
X119028190Y-100689523D01*
X119028190Y-100762095D01*
X119004000Y-100858857D01*
X118979809Y-100907238D01*
X118931428Y-100955619D01*
X118858857Y-100979809D01*
X118737904Y-100979809D01*
X118012952Y-101346000D02*
X117964571Y-101321809D01*
X117892000Y-101321809D01*
X117819428Y-101346000D01*
X117771047Y-101394380D01*
X117746857Y-101442761D01*
X117722666Y-101539523D01*
X117722666Y-101612095D01*
X117746857Y-101708857D01*
X117771047Y-101757238D01*
X117819428Y-101805619D01*
X117892000Y-101829809D01*
X117940380Y-101829809D01*
X118012952Y-101805619D01*
X118037142Y-101781428D01*
X118037142Y-101612095D01*
X117940380Y-101612095D01*
X118254857Y-101829809D02*
X118254857Y-101321809D01*
X118545142Y-101829809D01*
X118545142Y-101321809D01*
X118787047Y-101829809D02*
X118787047Y-101321809D01*
X118908000Y-101321809D01*
X118980571Y-101346000D01*
X119028952Y-101394380D01*
X119053142Y-101442761D01*
X119077333Y-101539523D01*
X119077333Y-101612095D01*
X119053142Y-101708857D01*
X119028952Y-101757238D01*
X118980571Y-101805619D01*
X118908000Y-101829809D01*
X118787047Y-101829809D01*
D10*
X122266666Y-96116666D02*
X122266666Y-96683333D01*
X122300000Y-96750000D01*
X122333333Y-96783333D01*
X122400000Y-96816666D01*
X122533333Y-96816666D01*
X122600000Y-96783333D01*
X122633333Y-96750000D01*
X122666666Y-96683333D01*
X122666666Y-96116666D01*
X123366666Y-96816666D02*
X122966666Y-96816666D01*
X123166666Y-96816666D02*
X123166666Y-96116666D01*
X123100000Y-96216666D01*
X123033333Y-96283333D01*
X122966666Y-96316666D01*
D12*
X123117428Y-104015619D02*
X123020666Y-103967238D01*
X122972285Y-103918857D01*
X122923904Y-103822095D01*
X122923904Y-103531809D01*
X122972285Y-103435047D01*
X123020666Y-103386666D01*
X123117428Y-103338285D01*
X123262571Y-103338285D01*
X123359333Y-103386666D01*
X123407714Y-103435047D01*
X123456095Y-103531809D01*
X123456095Y-103822095D01*
X123407714Y-103918857D01*
X123359333Y-103967238D01*
X123262571Y-104015619D01*
X123117428Y-104015619D01*
D10*
X141283333Y-99516666D02*
X141050000Y-99183333D01*
X140883333Y-99516666D02*
X140883333Y-98816666D01*
X141150000Y-98816666D01*
X141216666Y-98850000D01*
X141250000Y-98883333D01*
X141283333Y-98950000D01*
X141283333Y-99050000D01*
X141250000Y-99116666D01*
X141216666Y-99150000D01*
X141150000Y-99183333D01*
X140883333Y-99183333D01*
X141883333Y-99050000D02*
X141883333Y-99516666D01*
X141716666Y-98783333D02*
X141550000Y-99283333D01*
X141983333Y-99283333D01*
X141383333Y-102916666D02*
X141150000Y-102583333D01*
X140983333Y-102916666D02*
X140983333Y-102216666D01*
X141250000Y-102216666D01*
X141316666Y-102250000D01*
X141350000Y-102283333D01*
X141383333Y-102350000D01*
X141383333Y-102450000D01*
X141350000Y-102516666D01*
X141316666Y-102550000D01*
X141250000Y-102583333D01*
X140983333Y-102583333D01*
X141616666Y-102216666D02*
X142050000Y-102216666D01*
X141816666Y-102483333D01*
X141916666Y-102483333D01*
X141983333Y-102516666D01*
X142016666Y-102550000D01*
X142050000Y-102616666D01*
X142050000Y-102783333D01*
X142016666Y-102850000D01*
X141983333Y-102883333D01*
X141916666Y-102916666D01*
X141716666Y-102916666D01*
X141650000Y-102883333D01*
X141616666Y-102850000D01*
X134703333Y-100846666D02*
X134470000Y-100513333D01*
X134303333Y-100846666D02*
X134303333Y-100146666D01*
X134570000Y-100146666D01*
X134636666Y-100180000D01*
X134670000Y-100213333D01*
X134703333Y-100280000D01*
X134703333Y-100380000D01*
X134670000Y-100446666D01*
X134636666Y-100480000D01*
X134570000Y-100513333D01*
X134303333Y-100513333D01*
X134970000Y-100213333D02*
X135003333Y-100180000D01*
X135070000Y-100146666D01*
X135236666Y-100146666D01*
X135303333Y-100180000D01*
X135336666Y-100213333D01*
X135370000Y-100280000D01*
X135370000Y-100346666D01*
X135336666Y-100446666D01*
X134936666Y-100846666D01*
X135370000Y-100846666D01*
X136313333Y-100586666D02*
X136080000Y-100253333D01*
X135913333Y-100586666D02*
X135913333Y-99886666D01*
X136180000Y-99886666D01*
X136246666Y-99920000D01*
X136280000Y-99953333D01*
X136313333Y-100020000D01*
X136313333Y-100120000D01*
X136280000Y-100186666D01*
X136246666Y-100220000D01*
X136180000Y-100253333D01*
X135913333Y-100253333D01*
X136980000Y-100586666D02*
X136580000Y-100586666D01*
X136780000Y-100586666D02*
X136780000Y-99886666D01*
X136713333Y-99986666D01*
X136646666Y-100053333D01*
X136580000Y-100086666D01*
X140533333Y-104783333D02*
X140466666Y-104750000D01*
X140400000Y-104683333D01*
X140300000Y-104583333D01*
X140233333Y-104550000D01*
X140166666Y-104550000D01*
X140200000Y-104716666D02*
X140133333Y-104683333D01*
X140066666Y-104616666D01*
X140033333Y-104483333D01*
X140033333Y-104250000D01*
X140066666Y-104116666D01*
X140133333Y-104050000D01*
X140200000Y-104016666D01*
X140333333Y-104016666D01*
X140400000Y-104050000D01*
X140466666Y-104116666D01*
X140500000Y-104250000D01*
X140500000Y-104483333D01*
X140466666Y-104616666D01*
X140400000Y-104683333D01*
X140333333Y-104716666D01*
X140200000Y-104716666D01*
X140766666Y-104083333D02*
X140800000Y-104050000D01*
X140866666Y-104016666D01*
X141033333Y-104016666D01*
X141100000Y-104050000D01*
X141133333Y-104083333D01*
X141166666Y-104150000D01*
X141166666Y-104216666D01*
X141133333Y-104316666D01*
X140733333Y-104716666D01*
X141166666Y-104716666D01*
X140533333Y-101083333D02*
X140466666Y-101050000D01*
X140400000Y-100983333D01*
X140300000Y-100883333D01*
X140233333Y-100850000D01*
X140166666Y-100850000D01*
X140200000Y-101016666D02*
X140133333Y-100983333D01*
X140066666Y-100916666D01*
X140033333Y-100783333D01*
X140033333Y-100550000D01*
X140066666Y-100416666D01*
X140133333Y-100350000D01*
X140200000Y-100316666D01*
X140333333Y-100316666D01*
X140400000Y-100350000D01*
X140466666Y-100416666D01*
X140500000Y-100550000D01*
X140500000Y-100783333D01*
X140466666Y-100916666D01*
X140400000Y-100983333D01*
X140333333Y-101016666D01*
X140200000Y-101016666D01*
X141166666Y-101016666D02*
X140766666Y-101016666D01*
X140966666Y-101016666D02*
X140966666Y-100316666D01*
X140900000Y-100416666D01*
X140833333Y-100483333D01*
X140766666Y-100516666D01*
X137297333Y-105152000D02*
X137264000Y-105185333D01*
X137164000Y-105218666D01*
X137097333Y-105218666D01*
X136997333Y-105185333D01*
X136930666Y-105118666D01*
X136897333Y-105052000D01*
X136864000Y-104918666D01*
X136864000Y-104818666D01*
X136897333Y-104685333D01*
X136930666Y-104618666D01*
X136997333Y-104552000D01*
X137097333Y-104518666D01*
X137164000Y-104518666D01*
X137264000Y-104552000D01*
X137297333Y-104585333D01*
X137897333Y-104752000D02*
X137897333Y-105218666D01*
X137730666Y-104485333D02*
X137564000Y-104985333D01*
X137997333Y-104985333D01*
X134703333Y-99880000D02*
X134670000Y-99913333D01*
X134570000Y-99946666D01*
X134503333Y-99946666D01*
X134403333Y-99913333D01*
X134336666Y-99846666D01*
X134303333Y-99780000D01*
X134270000Y-99646666D01*
X134270000Y-99546666D01*
X134303333Y-99413333D01*
X134336666Y-99346666D01*
X134403333Y-99280000D01*
X134503333Y-99246666D01*
X134570000Y-99246666D01*
X134670000Y-99280000D01*
X134703333Y-99313333D01*
X134936666Y-99246666D02*
X135370000Y-99246666D01*
X135136666Y-99513333D01*
X135236666Y-99513333D01*
X135303333Y-99546666D01*
X135336666Y-99580000D01*
X135370000Y-99646666D01*
X135370000Y-99813333D01*
X135336666Y-99880000D01*
X135303333Y-99913333D01*
X135236666Y-99946666D01*
X135036666Y-99946666D01*
X134970000Y-99913333D01*
X134936666Y-99880000D01*
X132050000Y-101916666D02*
X132083333Y-101950000D01*
X132116666Y-102050000D01*
X132116666Y-102116666D01*
X132083333Y-102216666D01*
X132016666Y-102283333D01*
X131950000Y-102316666D01*
X131816666Y-102350000D01*
X131716666Y-102350000D01*
X131583333Y-102316666D01*
X131516666Y-102283333D01*
X131450000Y-102216666D01*
X131416666Y-102116666D01*
X131416666Y-102050000D01*
X131450000Y-101950000D01*
X131483333Y-101916666D01*
X131483333Y-101650000D02*
X131450000Y-101616666D01*
X131416666Y-101550000D01*
X131416666Y-101383333D01*
X131450000Y-101316666D01*
X131483333Y-101283333D01*
X131550000Y-101250000D01*
X131616666Y-101250000D01*
X131716666Y-101283333D01*
X132116666Y-101683333D01*
X132116666Y-101250000D01*
X140130000Y-96326666D02*
X140163333Y-96360000D01*
X140196666Y-96460000D01*
X140196666Y-96526666D01*
X140163333Y-96626666D01*
X140096666Y-96693333D01*
X140030000Y-96726666D01*
X139896666Y-96760000D01*
X139796666Y-96760000D01*
X139663333Y-96726666D01*
X139596666Y-96693333D01*
X139530000Y-96626666D01*
X139496666Y-96526666D01*
X139496666Y-96460000D01*
X139530000Y-96360000D01*
X139563333Y-96326666D01*
X140196666Y-95660000D02*
X140196666Y-96060000D01*
X140196666Y-95860000D02*
X139496666Y-95860000D01*
X139596666Y-95926666D01*
X139663333Y-95993333D01*
X139696666Y-96060000D01*
X145150000Y-100650000D02*
X145183333Y-100683333D01*
X145216666Y-100783333D01*
X145216666Y-100850000D01*
X145183333Y-100950000D01*
X145116666Y-101016666D01*
X145050000Y-101050000D01*
X144916666Y-101083333D01*
X144816666Y-101083333D01*
X144683333Y-101050000D01*
X144616666Y-101016666D01*
X144550000Y-100950000D01*
X144516666Y-100850000D01*
X144516666Y-100783333D01*
X144550000Y-100683333D01*
X144583333Y-100650000D01*
X144516666Y-100216666D02*
X144516666Y-100083333D01*
X144550000Y-100016666D01*
X144616666Y-99950000D01*
X144750000Y-99916666D01*
X144983333Y-99916666D01*
X145116666Y-99950000D01*
X145183333Y-100016666D01*
X145216666Y-100083333D01*
X145216666Y-100216666D01*
X145183333Y-100283333D01*
X145116666Y-100350000D01*
X144983333Y-100383333D01*
X144750000Y-100383333D01*
X144616666Y-100350000D01*
X144550000Y-100283333D01*
X144516666Y-100216666D01*
X145216666Y-99616666D02*
X144516666Y-99616666D01*
X145216666Y-99216666D01*
X144516666Y-99216666D01*
X145216666Y-98516666D02*
X145216666Y-98916666D01*
X145216666Y-98716666D02*
X144516666Y-98716666D01*
X144616666Y-98783333D01*
X144683333Y-98850000D01*
X144716666Y-98916666D01*
M02*
