M48
; DRILL file {KiCad 5.1.5-52549c5~84~ubuntu19.10.1} date 27.03.2020 (пт) 11:31:49 EET
; FORMAT={-:-/ absolute / metric / decimal}
; #@! TF.CreationDate,2020-03-27T11:31:49+02:00
; #@! TF.GenerationSoftware,Kicad,Pcbnew,5.1.5-52549c5~84~ubuntu19.10.1
; #@! TF.FileFunction,Plated,1,2,PTH
FMAT,2
METRIC
T1C0.600
T2C0.610
T3C1.000
%
G90
G05
T1
X143.4Y-96.875
X143.4Y-98.125
X143.4Y-99.375
X143.4Y-100.625
X143.4Y-101.875
X143.4Y-103.125
T2
X123.3Y-98.6
X123.3Y-101.3
X124.7Y-98.0
X125.4Y-102.3
X125.5Y-101.1
X126.5Y-99.2
X126.7Y-104.7
X128.6Y-98.8
X128.9Y-100.8
X130.58Y-100.91
X130.75Y-103.6
X134.6Y-99.045
X134.66Y-100.58
X135.75Y-102.85
X136.45Y-100.05
X139.45Y-104.7
X139.7Y-97.5
X139.755Y-101.5
X142.3Y-104.0
T3
X128.55Y-93.0
X131.09Y-93.0
X133.63Y-93.0
X136.17Y-93.0
X138.71Y-93.0
X141.25Y-93.0
X143.79Y-93.0
T1
G00X117.55Y-96.4
M15
G01X116.95Y-96.4
M16
G05
G00X117.55Y-103.6
M15
G01X116.95Y-103.6
M16
G05
G00X121.02Y-96.4
M15
G01X120.42Y-96.4
M16
G05
G00X121.02Y-103.6
M15
G01X120.42Y-103.6
M16
G05
T0
M30
