G04 #@! TF.GenerationSoftware,KiCad,Pcbnew,5.1.5-52549c5~84~ubuntu19.10.1*
G04 #@! TF.CreationDate,2020-03-27T11:31:54+02:00*
G04 #@! TF.ProjectId,ESP-PROG_Rev.C,4553502d-5052-44f4-975f-5265762e432e,rev?*
G04 #@! TF.SameCoordinates,Original*
G04 #@! TF.FileFunction,Paste,Top*
G04 #@! TF.FilePolarity,Positive*
%FSLAX46Y46*%
G04 Gerber Fmt 4.6, Leading zero omitted, Abs format (unit mm)*
G04 Created by KiCad (PCBNEW 5.1.5-52549c5~84~ubuntu19.10.1) date 2020-03-27 11:31:54*
%MOMM*%
%LPD*%
G04 APERTURE LIST*
%ADD10C,0.100000*%
%ADD11R,1.098400X1.298400*%
%ADD12R,1.198400X0.698400*%
%ADD13R,1.548400X0.398400*%
%ADD14R,1.721120X0.396120*%
%ADD15R,1.254000X1.354000*%
%ADD16R,0.223400X1.168400*%
%ADD17R,0.398400X0.448400*%
%ADD18R,0.448400X0.398400*%
%ADD19R,1.298400X0.898400*%
%ADD20R,0.914400X0.914400*%
G04 APERTURE END LIST*
D10*
G36*
X134440000Y-97490000D02*
G01*
X133440000Y-97090000D01*
X132140000Y-97090000D01*
X132140000Y-96290000D01*
X133440000Y-96290000D01*
X134440000Y-95890000D01*
X136640000Y-95890000D01*
X136640000Y-97490000D01*
X134440000Y-97490000D01*
G37*
X134440000Y-97490000D02*
X133440000Y-97090000D01*
X132140000Y-97090000D01*
X132140000Y-96290000D01*
X133440000Y-96290000D01*
X134440000Y-95890000D01*
X136640000Y-95890000D01*
X136640000Y-97490000D01*
X134440000Y-97490000D01*
D11*
X133180000Y-104100000D03*
X134780000Y-101900000D03*
X133180000Y-101900000D03*
X134780000Y-104100000D03*
D12*
X132690000Y-95190000D03*
X132690000Y-98190000D03*
D13*
X120650000Y-98612500D03*
D14*
X120650000Y-99350000D03*
X120650000Y-100000000D03*
X120650000Y-100650000D03*
D13*
X120650000Y-101387500D03*
D15*
X116100000Y-98500000D03*
X116100000Y-101500000D03*
D16*
X124075000Y-103619500D03*
X124725000Y-103619500D03*
X125375000Y-103619500D03*
X126025000Y-103619500D03*
X126675000Y-103619500D03*
X127325000Y-103619500D03*
X127975000Y-103619500D03*
X128625000Y-103619500D03*
X129275000Y-103619500D03*
X129925000Y-103619500D03*
X129925000Y-96380500D03*
X129275000Y-96380500D03*
X128625000Y-96380500D03*
X127975000Y-96380500D03*
X127325000Y-96380500D03*
X126675000Y-96380500D03*
X126025000Y-96380500D03*
X125375000Y-96380500D03*
X124725000Y-96380500D03*
X124075000Y-96380500D03*
D17*
X140492000Y-98100000D03*
X141508000Y-98100000D03*
X140492000Y-101500000D03*
X141508000Y-101500000D03*
D18*
X136400000Y-101092000D03*
X136400000Y-102108000D03*
X136400000Y-99308000D03*
X136400000Y-98292000D03*
D19*
X137892560Y-102150040D03*
X137892560Y-104052500D03*
X140102360Y-103097460D03*
X137892560Y-98750040D03*
X137892560Y-100652500D03*
X140102360Y-99697460D03*
D18*
X136400000Y-103292000D03*
X136400000Y-104308000D03*
D20*
X131661000Y-100220000D03*
X133439000Y-100220000D03*
D18*
X131700000Y-104408000D03*
X131700000Y-103392000D03*
D20*
X138460000Y-95341000D03*
X138460000Y-97119000D03*
M02*
