G04 #@! TF.GenerationSoftware,KiCad,Pcbnew,5.1.5-52549c5~84~ubuntu19.10.1*
G04 #@! TF.CreationDate,2020-03-27T11:31:54+02:00*
G04 #@! TF.ProjectId,ESP-PROG_Rev.C,4553502d-5052-44f4-975f-5265762e432e,rev?*
G04 #@! TF.SameCoordinates,Original*
G04 #@! TF.FileFunction,Soldermask,Top*
G04 #@! TF.FilePolarity,Negative*
%FSLAX46Y46*%
G04 Gerber Fmt 4.6, Leading zero omitted, Abs format (unit mm)*
G04 Created by KiCad (PCBNEW 5.1.5-52549c5~84~ubuntu19.10.1) date 2020-03-27 11:31:54*
%MOMM*%
%LPD*%
G04 APERTURE LIST*
%ADD10C,0.200000*%
%ADD11C,0.100000*%
G04 APERTURE END LIST*
D10*
G36*
X134440000Y-97590000D02*
G01*
X133440000Y-97190000D01*
X132040000Y-97190000D01*
X132040000Y-96190000D01*
X133440000Y-96190000D01*
X134440000Y-95790000D01*
X136740000Y-95790000D01*
X136740000Y-97590000D01*
X134440000Y-97590000D01*
G37*
X134440000Y-97590000D02*
X133440000Y-97190000D01*
X132040000Y-97190000D01*
X132040000Y-96190000D01*
X133440000Y-96190000D01*
X134440000Y-95790000D01*
X136740000Y-95790000D01*
X136740000Y-97590000D01*
X134440000Y-97590000D01*
D11*
G36*
X135430800Y-104850800D02*
G01*
X134129200Y-104850800D01*
X134129200Y-103349200D01*
X135430800Y-103349200D01*
X135430800Y-104850800D01*
G37*
G36*
X133830800Y-104850800D02*
G01*
X132529200Y-104850800D01*
X132529200Y-103349200D01*
X133830800Y-103349200D01*
X133830800Y-104850800D01*
G37*
G36*
X132025800Y-104708800D02*
G01*
X131374200Y-104708800D01*
X131374200Y-104107200D01*
X132025800Y-104107200D01*
X132025800Y-104708800D01*
G37*
G36*
X136725800Y-104608800D02*
G01*
X136074200Y-104608800D01*
X136074200Y-104007200D01*
X136725800Y-104007200D01*
X136725800Y-104608800D01*
G37*
G36*
X138643360Y-104603300D02*
G01*
X137141760Y-104603300D01*
X137141760Y-103501700D01*
X138643360Y-103501700D01*
X138643360Y-104603300D01*
G37*
G36*
X128838300Y-104305300D02*
G01*
X128411700Y-104305300D01*
X128411700Y-102933700D01*
X128838300Y-102933700D01*
X128838300Y-104305300D01*
G37*
G36*
X129488300Y-104305300D02*
G01*
X129061700Y-104305300D01*
X129061700Y-102933700D01*
X129488300Y-102933700D01*
X129488300Y-104305300D01*
G37*
G36*
X128188300Y-104305300D02*
G01*
X127761700Y-104305300D01*
X127761700Y-102933700D01*
X128188300Y-102933700D01*
X128188300Y-104305300D01*
G37*
G36*
X127538300Y-104305300D02*
G01*
X127111700Y-104305300D01*
X127111700Y-102933700D01*
X127538300Y-102933700D01*
X127538300Y-104305300D01*
G37*
G36*
X126888300Y-104305300D02*
G01*
X126461700Y-104305300D01*
X126461700Y-102933700D01*
X126888300Y-102933700D01*
X126888300Y-104305300D01*
G37*
G36*
X126238300Y-104305300D02*
G01*
X125811700Y-104305300D01*
X125811700Y-102933700D01*
X126238300Y-102933700D01*
X126238300Y-104305300D01*
G37*
G36*
X125588300Y-104305300D02*
G01*
X125161700Y-104305300D01*
X125161700Y-102933700D01*
X125588300Y-102933700D01*
X125588300Y-104305300D01*
G37*
G36*
X124938300Y-104305300D02*
G01*
X124511700Y-104305300D01*
X124511700Y-102933700D01*
X124938300Y-102933700D01*
X124938300Y-104305300D01*
G37*
G36*
X124288300Y-104305300D02*
G01*
X123861700Y-104305300D01*
X123861700Y-102933700D01*
X124288300Y-102933700D01*
X124288300Y-104305300D01*
G37*
G36*
X130138300Y-104305300D02*
G01*
X129711700Y-104305300D01*
X129711700Y-102933700D01*
X130138300Y-102933700D01*
X130138300Y-104305300D01*
G37*
G36*
X121147579Y-102958617D02*
G01*
X121147582Y-102958618D01*
X121270254Y-102995830D01*
X121383313Y-103056261D01*
X121482411Y-103137589D01*
X121563739Y-103236687D01*
X121624170Y-103349746D01*
X121649269Y-103432487D01*
X121661383Y-103472421D01*
X121673948Y-103600000D01*
X121661383Y-103727579D01*
X121661382Y-103727582D01*
X121624170Y-103850254D01*
X121563739Y-103963313D01*
X121482411Y-104062411D01*
X121383313Y-104143739D01*
X121270254Y-104204170D01*
X121161609Y-104237127D01*
X121147579Y-104241383D01*
X121051963Y-104250800D01*
X120388037Y-104250800D01*
X120292421Y-104241383D01*
X120278391Y-104237127D01*
X120169746Y-104204170D01*
X120056687Y-104143739D01*
X119957589Y-104062411D01*
X119876261Y-103963313D01*
X119815830Y-103850254D01*
X119778618Y-103727582D01*
X119778617Y-103727579D01*
X119766052Y-103600000D01*
X119778617Y-103472421D01*
X119790731Y-103432487D01*
X119815830Y-103349746D01*
X119876261Y-103236687D01*
X119957589Y-103137589D01*
X120056687Y-103056261D01*
X120169746Y-102995830D01*
X120292418Y-102958618D01*
X120292421Y-102958617D01*
X120388037Y-102949200D01*
X121051963Y-102949200D01*
X121147579Y-102958617D01*
G37*
G36*
X117677579Y-102958617D02*
G01*
X117677582Y-102958618D01*
X117800254Y-102995830D01*
X117913313Y-103056261D01*
X118012411Y-103137589D01*
X118093739Y-103236687D01*
X118154170Y-103349746D01*
X118179269Y-103432487D01*
X118191383Y-103472421D01*
X118203948Y-103600000D01*
X118191383Y-103727579D01*
X118191382Y-103727582D01*
X118154170Y-103850254D01*
X118093739Y-103963313D01*
X118012411Y-104062411D01*
X117913313Y-104143739D01*
X117800254Y-104204170D01*
X117691609Y-104237127D01*
X117677579Y-104241383D01*
X117581963Y-104250800D01*
X116918037Y-104250800D01*
X116822421Y-104241383D01*
X116808391Y-104237127D01*
X116699746Y-104204170D01*
X116586687Y-104143739D01*
X116487589Y-104062411D01*
X116406261Y-103963313D01*
X116345830Y-103850254D01*
X116308618Y-103727582D01*
X116308617Y-103727579D01*
X116296052Y-103600000D01*
X116308617Y-103472421D01*
X116320731Y-103432487D01*
X116345830Y-103349746D01*
X116406261Y-103236687D01*
X116487589Y-103137589D01*
X116586687Y-103056261D01*
X116699746Y-102995830D01*
X116822418Y-102958618D01*
X116822421Y-102958617D01*
X116918037Y-102949200D01*
X117581963Y-102949200D01*
X117677579Y-102958617D01*
G37*
G36*
X132025800Y-103692800D02*
G01*
X131374200Y-103692800D01*
X131374200Y-103091200D01*
X132025800Y-103091200D01*
X132025800Y-103692800D01*
G37*
G36*
X143757976Y-102582170D02*
G01*
X143861802Y-102613665D01*
X143957489Y-102664811D01*
X144041359Y-102733641D01*
X144110189Y-102817511D01*
X144161335Y-102913198D01*
X144192830Y-103017024D01*
X144203465Y-103125000D01*
X144192830Y-103232976D01*
X144161335Y-103336802D01*
X144110189Y-103432489D01*
X144041359Y-103516359D01*
X143957489Y-103585189D01*
X143861802Y-103636335D01*
X143757976Y-103667830D01*
X143677057Y-103675800D01*
X143122943Y-103675800D01*
X143042024Y-103667830D01*
X142938198Y-103636335D01*
X142842511Y-103585189D01*
X142758641Y-103516359D01*
X142689811Y-103432489D01*
X142638665Y-103336802D01*
X142607170Y-103232976D01*
X142596535Y-103125000D01*
X142607170Y-103017024D01*
X142638665Y-102913198D01*
X142689811Y-102817511D01*
X142758641Y-102733641D01*
X142842511Y-102664811D01*
X142938198Y-102613665D01*
X143042024Y-102582170D01*
X143122943Y-102574200D01*
X143677057Y-102574200D01*
X143757976Y-102582170D01*
G37*
G36*
X140853160Y-103648260D02*
G01*
X139351560Y-103648260D01*
X139351560Y-102546660D01*
X140853160Y-102546660D01*
X140853160Y-103648260D01*
G37*
G36*
X136725800Y-103592800D02*
G01*
X136074200Y-103592800D01*
X136074200Y-102991200D01*
X136725800Y-102991200D01*
X136725800Y-103592800D01*
G37*
G36*
X138643360Y-102700840D02*
G01*
X137141760Y-102700840D01*
X137141760Y-101599240D01*
X138643360Y-101599240D01*
X138643360Y-102700840D01*
G37*
G36*
X133830800Y-102650800D02*
G01*
X132529200Y-102650800D01*
X132529200Y-101149200D01*
X133830800Y-101149200D01*
X133830800Y-102650800D01*
G37*
G36*
X135430800Y-102650800D02*
G01*
X134129200Y-102650800D01*
X134129200Y-101149200D01*
X135430800Y-101149200D01*
X135430800Y-102650800D01*
G37*
G36*
X143757976Y-101332170D02*
G01*
X143861802Y-101363665D01*
X143957489Y-101414811D01*
X144041359Y-101483641D01*
X144110189Y-101567511D01*
X144161335Y-101663198D01*
X144192830Y-101767024D01*
X144203465Y-101875000D01*
X144192830Y-101982976D01*
X144161335Y-102086802D01*
X144110189Y-102182489D01*
X144041359Y-102266359D01*
X143957489Y-102335189D01*
X143861802Y-102386335D01*
X143757976Y-102417830D01*
X143677057Y-102425800D01*
X143122943Y-102425800D01*
X143042024Y-102417830D01*
X142938198Y-102386335D01*
X142842511Y-102335189D01*
X142758641Y-102266359D01*
X142689811Y-102182489D01*
X142638665Y-102086802D01*
X142607170Y-101982976D01*
X142596535Y-101875000D01*
X142607170Y-101767024D01*
X142638665Y-101663198D01*
X142689811Y-101567511D01*
X142758641Y-101483641D01*
X142842511Y-101414811D01*
X142938198Y-101363665D01*
X143042024Y-101332170D01*
X143122943Y-101324200D01*
X143677057Y-101324200D01*
X143757976Y-101332170D01*
G37*
G36*
X136725800Y-102408800D02*
G01*
X136074200Y-102408800D01*
X136074200Y-101807200D01*
X136725800Y-101807200D01*
X136725800Y-102408800D01*
G37*
G36*
X119502324Y-101662681D02*
G01*
X119566166Y-101689125D01*
X119623622Y-101727516D01*
X119672484Y-101776378D01*
X119710875Y-101833834D01*
X119737319Y-101897676D01*
X119750800Y-101965449D01*
X119750800Y-102034551D01*
X119737319Y-102102324D01*
X119710875Y-102166166D01*
X119672484Y-102223622D01*
X119623622Y-102272484D01*
X119566166Y-102310875D01*
X119502324Y-102337319D01*
X119434551Y-102350800D01*
X119365449Y-102350800D01*
X119297676Y-102337319D01*
X119233834Y-102310875D01*
X119176378Y-102272484D01*
X119127516Y-102223622D01*
X119089125Y-102166166D01*
X119062681Y-102102324D01*
X119049200Y-102034551D01*
X119049200Y-101965449D01*
X119062681Y-101897676D01*
X119089125Y-101833834D01*
X119127516Y-101776378D01*
X119176378Y-101727516D01*
X119233834Y-101689125D01*
X119297676Y-101662681D01*
X119365449Y-101649200D01*
X119434551Y-101649200D01*
X119502324Y-101662681D01*
G37*
G36*
X116650800Y-102100800D02*
G01*
X115549200Y-102100800D01*
X115549200Y-100899200D01*
X116650800Y-100899200D01*
X116650800Y-102100800D01*
G37*
G36*
X140792800Y-101825800D02*
G01*
X140191200Y-101825800D01*
X140191200Y-101174200D01*
X140792800Y-101174200D01*
X140792800Y-101825800D01*
G37*
G36*
X141808800Y-101825800D02*
G01*
X141207200Y-101825800D01*
X141207200Y-101174200D01*
X141808800Y-101174200D01*
X141808800Y-101825800D01*
G37*
G36*
X121525800Y-101688300D02*
G01*
X119774200Y-101688300D01*
X119774200Y-101086700D01*
X121525800Y-101086700D01*
X121525800Y-101688300D01*
G37*
G36*
X136725800Y-101392800D02*
G01*
X136074200Y-101392800D01*
X136074200Y-100791200D01*
X136725800Y-100791200D01*
X136725800Y-101392800D01*
G37*
G36*
X138643360Y-101203300D02*
G01*
X137141760Y-101203300D01*
X137141760Y-100101700D01*
X138643360Y-100101700D01*
X138643360Y-101203300D01*
G37*
G36*
X143757976Y-100082170D02*
G01*
X143861802Y-100113665D01*
X143957489Y-100164811D01*
X144041359Y-100233641D01*
X144110189Y-100317511D01*
X144161335Y-100413198D01*
X144192830Y-100517024D01*
X144203465Y-100625000D01*
X144192830Y-100732976D01*
X144161335Y-100836802D01*
X144110189Y-100932489D01*
X144041359Y-101016359D01*
X143957489Y-101085189D01*
X143861802Y-101136335D01*
X143757976Y-101167830D01*
X143677057Y-101175800D01*
X143122943Y-101175800D01*
X143042024Y-101167830D01*
X142938198Y-101136335D01*
X142842511Y-101085189D01*
X142758641Y-101016359D01*
X142689811Y-100932489D01*
X142638665Y-100836802D01*
X142607170Y-100732976D01*
X142596535Y-100625000D01*
X142607170Y-100517024D01*
X142638665Y-100413198D01*
X142689811Y-100317511D01*
X142758641Y-100233641D01*
X142842511Y-100164811D01*
X142938198Y-100113665D01*
X143042024Y-100082170D01*
X143122943Y-100074200D01*
X143677057Y-100074200D01*
X143757976Y-100082170D01*
G37*
G36*
X121525800Y-100863300D02*
G01*
X119774200Y-100863300D01*
X119774200Y-100436700D01*
X121525800Y-100436700D01*
X121525800Y-100863300D01*
G37*
G36*
X132219800Y-100778800D02*
G01*
X131102200Y-100778800D01*
X131102200Y-99661200D01*
X132219800Y-99661200D01*
X132219800Y-100778800D01*
G37*
G36*
X133997800Y-100778800D02*
G01*
X132880200Y-100778800D01*
X132880200Y-99661200D01*
X133997800Y-99661200D01*
X133997800Y-100778800D01*
G37*
G36*
X118282889Y-99297095D02*
G01*
X118346534Y-99323458D01*
X118397000Y-99344361D01*
X118499687Y-99412975D01*
X118587025Y-99500313D01*
X118655639Y-99603000D01*
X118658041Y-99608800D01*
X118702905Y-99717111D01*
X118727000Y-99838246D01*
X118727000Y-99961754D01*
X118702905Y-100082889D01*
X118695113Y-100101700D01*
X118655639Y-100197000D01*
X118587025Y-100299687D01*
X118499687Y-100387025D01*
X118397000Y-100455639D01*
X118346534Y-100476542D01*
X118282889Y-100502905D01*
X118161754Y-100527000D01*
X118038246Y-100527000D01*
X117917111Y-100502905D01*
X117853466Y-100476542D01*
X117803000Y-100455639D01*
X117700313Y-100387025D01*
X117612975Y-100299687D01*
X117544361Y-100197000D01*
X117504887Y-100101700D01*
X117497095Y-100082889D01*
X117473000Y-99961754D01*
X117473000Y-99838246D01*
X117497095Y-99717111D01*
X117541959Y-99608800D01*
X117544361Y-99603000D01*
X117612975Y-99500313D01*
X117700313Y-99412975D01*
X117803000Y-99344361D01*
X117853466Y-99323458D01*
X117917111Y-99297095D01*
X118038246Y-99273000D01*
X118161754Y-99273000D01*
X118282889Y-99297095D01*
G37*
G36*
X140853160Y-100248260D02*
G01*
X139351560Y-100248260D01*
X139351560Y-99146660D01*
X140853160Y-99146660D01*
X140853160Y-100248260D01*
G37*
G36*
X121525800Y-100213300D02*
G01*
X119774200Y-100213300D01*
X119774200Y-99786700D01*
X121525800Y-99786700D01*
X121525800Y-100213300D01*
G37*
G36*
X143757976Y-98832170D02*
G01*
X143861802Y-98863665D01*
X143957489Y-98914811D01*
X144041359Y-98983641D01*
X144110189Y-99067511D01*
X144161335Y-99163198D01*
X144192830Y-99267024D01*
X144203465Y-99375000D01*
X144192830Y-99482976D01*
X144161335Y-99586802D01*
X144110189Y-99682489D01*
X144041359Y-99766359D01*
X143957489Y-99835189D01*
X143861802Y-99886335D01*
X143757976Y-99917830D01*
X143677057Y-99925800D01*
X143122943Y-99925800D01*
X143042024Y-99917830D01*
X142938198Y-99886335D01*
X142842511Y-99835189D01*
X142758641Y-99766359D01*
X142689811Y-99682489D01*
X142638665Y-99586802D01*
X142607170Y-99482976D01*
X142596535Y-99375000D01*
X142607170Y-99267024D01*
X142638665Y-99163198D01*
X142689811Y-99067511D01*
X142758641Y-98983641D01*
X142842511Y-98914811D01*
X142938198Y-98863665D01*
X143042024Y-98832170D01*
X143122943Y-98824200D01*
X143677057Y-98824200D01*
X143757976Y-98832170D01*
G37*
G36*
X136725800Y-99608800D02*
G01*
X136074200Y-99608800D01*
X136074200Y-99007200D01*
X136725800Y-99007200D01*
X136725800Y-99608800D01*
G37*
G36*
X121525800Y-99563300D02*
G01*
X119774200Y-99563300D01*
X119774200Y-99136700D01*
X121525800Y-99136700D01*
X121525800Y-99563300D01*
G37*
G36*
X138643360Y-99300840D02*
G01*
X137141760Y-99300840D01*
X137141760Y-98199240D01*
X138643360Y-98199240D01*
X138643360Y-99300840D01*
G37*
G36*
X116650800Y-99100800D02*
G01*
X115549200Y-99100800D01*
X115549200Y-97899200D01*
X116650800Y-97899200D01*
X116650800Y-99100800D01*
G37*
G36*
X121525800Y-98913300D02*
G01*
X119774200Y-98913300D01*
X119774200Y-98311700D01*
X121525800Y-98311700D01*
X121525800Y-98913300D01*
G37*
G36*
X143757976Y-97582170D02*
G01*
X143861802Y-97613665D01*
X143957489Y-97664811D01*
X144041359Y-97733641D01*
X144110189Y-97817511D01*
X144161335Y-97913198D01*
X144192830Y-98017024D01*
X144203465Y-98125000D01*
X144192830Y-98232976D01*
X144161335Y-98336802D01*
X144110189Y-98432489D01*
X144041359Y-98516359D01*
X143957489Y-98585189D01*
X143861802Y-98636335D01*
X143757976Y-98667830D01*
X143677057Y-98675800D01*
X143122943Y-98675800D01*
X143042024Y-98667830D01*
X142938198Y-98636335D01*
X142842511Y-98585189D01*
X142758641Y-98516359D01*
X142689811Y-98432489D01*
X142638665Y-98336802D01*
X142607170Y-98232976D01*
X142596535Y-98125000D01*
X142607170Y-98017024D01*
X142638665Y-97913198D01*
X142689811Y-97817511D01*
X142758641Y-97733641D01*
X142842511Y-97664811D01*
X142938198Y-97613665D01*
X143042024Y-97582170D01*
X143122943Y-97574200D01*
X143677057Y-97574200D01*
X143757976Y-97582170D01*
G37*
G36*
X133390800Y-98640800D02*
G01*
X131989200Y-98640800D01*
X131989200Y-97739200D01*
X133390800Y-97739200D01*
X133390800Y-98640800D01*
G37*
G36*
X136725800Y-98592800D02*
G01*
X136074200Y-98592800D01*
X136074200Y-97991200D01*
X136725800Y-97991200D01*
X136725800Y-98592800D01*
G37*
G36*
X141808800Y-98425800D02*
G01*
X141207200Y-98425800D01*
X141207200Y-97774200D01*
X141808800Y-97774200D01*
X141808800Y-98425800D01*
G37*
G36*
X140792800Y-98425800D02*
G01*
X140191200Y-98425800D01*
X140191200Y-97774200D01*
X140792800Y-97774200D01*
X140792800Y-98425800D01*
G37*
G36*
X119502324Y-97662681D02*
G01*
X119566166Y-97689125D01*
X119623622Y-97727516D01*
X119672484Y-97776378D01*
X119710875Y-97833834D01*
X119737319Y-97897676D01*
X119750800Y-97965449D01*
X119750800Y-98034551D01*
X119737319Y-98102324D01*
X119710875Y-98166166D01*
X119672484Y-98223622D01*
X119623622Y-98272484D01*
X119566166Y-98310875D01*
X119502324Y-98337319D01*
X119434551Y-98350800D01*
X119365449Y-98350800D01*
X119297676Y-98337319D01*
X119233834Y-98310875D01*
X119176378Y-98272484D01*
X119127516Y-98223622D01*
X119089125Y-98166166D01*
X119062681Y-98102324D01*
X119049200Y-98034551D01*
X119049200Y-97965449D01*
X119062681Y-97897676D01*
X119089125Y-97833834D01*
X119127516Y-97776378D01*
X119176378Y-97727516D01*
X119233834Y-97689125D01*
X119297676Y-97662681D01*
X119365449Y-97649200D01*
X119434551Y-97649200D01*
X119502324Y-97662681D01*
G37*
G36*
X139018800Y-97677800D02*
G01*
X137901200Y-97677800D01*
X137901200Y-96560200D01*
X139018800Y-96560200D01*
X139018800Y-97677800D01*
G37*
G36*
X143757976Y-96332170D02*
G01*
X143861802Y-96363665D01*
X143957489Y-96414811D01*
X144041359Y-96483641D01*
X144110189Y-96567511D01*
X144161335Y-96663198D01*
X144192830Y-96767024D01*
X144203465Y-96875000D01*
X144192830Y-96982976D01*
X144161335Y-97086802D01*
X144110189Y-97182489D01*
X144041359Y-97266359D01*
X143957489Y-97335189D01*
X143861802Y-97386335D01*
X143757976Y-97417830D01*
X143677057Y-97425800D01*
X143122943Y-97425800D01*
X143042024Y-97417830D01*
X142938198Y-97386335D01*
X142842511Y-97335189D01*
X142758641Y-97266359D01*
X142689811Y-97182489D01*
X142638665Y-97086802D01*
X142607170Y-96982976D01*
X142596535Y-96875000D01*
X142607170Y-96767024D01*
X142638665Y-96663198D01*
X142689811Y-96567511D01*
X142758641Y-96483641D01*
X142842511Y-96414811D01*
X142938198Y-96363665D01*
X143042024Y-96332170D01*
X143122943Y-96324200D01*
X143677057Y-96324200D01*
X143757976Y-96332170D01*
G37*
G36*
X130138300Y-97066300D02*
G01*
X129711700Y-97066300D01*
X129711700Y-95694700D01*
X130138300Y-95694700D01*
X130138300Y-97066300D01*
G37*
G36*
X129488300Y-97066300D02*
G01*
X129061700Y-97066300D01*
X129061700Y-95694700D01*
X129488300Y-95694700D01*
X129488300Y-97066300D01*
G37*
G36*
X128838300Y-97066300D02*
G01*
X128411700Y-97066300D01*
X128411700Y-95694700D01*
X128838300Y-95694700D01*
X128838300Y-97066300D01*
G37*
G36*
X126238300Y-97066300D02*
G01*
X125811700Y-97066300D01*
X125811700Y-95694700D01*
X126238300Y-95694700D01*
X126238300Y-97066300D01*
G37*
G36*
X124288300Y-97066300D02*
G01*
X123861700Y-97066300D01*
X123861700Y-95694700D01*
X124288300Y-95694700D01*
X124288300Y-97066300D01*
G37*
G36*
X127538300Y-97066300D02*
G01*
X127111700Y-97066300D01*
X127111700Y-95694700D01*
X127538300Y-95694700D01*
X127538300Y-97066300D01*
G37*
G36*
X125588300Y-97066300D02*
G01*
X125161700Y-97066300D01*
X125161700Y-95694700D01*
X125588300Y-95694700D01*
X125588300Y-97066300D01*
G37*
G36*
X124938300Y-97066300D02*
G01*
X124511700Y-97066300D01*
X124511700Y-95694700D01*
X124938300Y-95694700D01*
X124938300Y-97066300D01*
G37*
G36*
X126888300Y-97066300D02*
G01*
X126461700Y-97066300D01*
X126461700Y-95694700D01*
X126888300Y-95694700D01*
X126888300Y-97066300D01*
G37*
G36*
X128188300Y-97066300D02*
G01*
X127761700Y-97066300D01*
X127761700Y-95694700D01*
X128188300Y-95694700D01*
X128188300Y-97066300D01*
G37*
G36*
X121147579Y-95758617D02*
G01*
X121147582Y-95758618D01*
X121270254Y-95795830D01*
X121383313Y-95856261D01*
X121482411Y-95937589D01*
X121563739Y-96036687D01*
X121624170Y-96149746D01*
X121638503Y-96196996D01*
X121661383Y-96272421D01*
X121673948Y-96400000D01*
X121661383Y-96527579D01*
X121661382Y-96527582D01*
X121624170Y-96650254D01*
X121563739Y-96763313D01*
X121482411Y-96862411D01*
X121383313Y-96943739D01*
X121270254Y-97004170D01*
X121161609Y-97037127D01*
X121147579Y-97041383D01*
X121051963Y-97050800D01*
X120388037Y-97050800D01*
X120292421Y-97041383D01*
X120278391Y-97037127D01*
X120169746Y-97004170D01*
X120056687Y-96943739D01*
X119957589Y-96862411D01*
X119876261Y-96763313D01*
X119815830Y-96650254D01*
X119778618Y-96527582D01*
X119778617Y-96527579D01*
X119766052Y-96400000D01*
X119778617Y-96272421D01*
X119801497Y-96196996D01*
X119815830Y-96149746D01*
X119876261Y-96036687D01*
X119957589Y-95937589D01*
X120056687Y-95856261D01*
X120169746Y-95795830D01*
X120292418Y-95758618D01*
X120292421Y-95758617D01*
X120388037Y-95749200D01*
X121051963Y-95749200D01*
X121147579Y-95758617D01*
G37*
G36*
X117677579Y-95758617D02*
G01*
X117677582Y-95758618D01*
X117800254Y-95795830D01*
X117913313Y-95856261D01*
X118012411Y-95937589D01*
X118093739Y-96036687D01*
X118154170Y-96149746D01*
X118168503Y-96196996D01*
X118191383Y-96272421D01*
X118203948Y-96400000D01*
X118191383Y-96527579D01*
X118191382Y-96527582D01*
X118154170Y-96650254D01*
X118093739Y-96763313D01*
X118012411Y-96862411D01*
X117913313Y-96943739D01*
X117800254Y-97004170D01*
X117691609Y-97037127D01*
X117677579Y-97041383D01*
X117581963Y-97050800D01*
X116918037Y-97050800D01*
X116822421Y-97041383D01*
X116808391Y-97037127D01*
X116699746Y-97004170D01*
X116586687Y-96943739D01*
X116487589Y-96862411D01*
X116406261Y-96763313D01*
X116345830Y-96650254D01*
X116308618Y-96527582D01*
X116308617Y-96527579D01*
X116296052Y-96400000D01*
X116308617Y-96272421D01*
X116331497Y-96196996D01*
X116345830Y-96149746D01*
X116406261Y-96036687D01*
X116487589Y-95937589D01*
X116586687Y-95856261D01*
X116699746Y-95795830D01*
X116822418Y-95758618D01*
X116822421Y-95758617D01*
X116918037Y-95749200D01*
X117581963Y-95749200D01*
X117677579Y-95758617D01*
G37*
G36*
X141382889Y-95297095D02*
G01*
X141446534Y-95323458D01*
X141497000Y-95344361D01*
X141599687Y-95412975D01*
X141687025Y-95500313D01*
X141755639Y-95603000D01*
X141771296Y-95640800D01*
X141802905Y-95717111D01*
X141827000Y-95838246D01*
X141827000Y-95961754D01*
X141802905Y-96082889D01*
X141776542Y-96146534D01*
X141755639Y-96197000D01*
X141687025Y-96299687D01*
X141599687Y-96387025D01*
X141497000Y-96455639D01*
X141446534Y-96476542D01*
X141382889Y-96502905D01*
X141261754Y-96527000D01*
X141138246Y-96527000D01*
X141017111Y-96502905D01*
X140953466Y-96476542D01*
X140903000Y-96455639D01*
X140800313Y-96387025D01*
X140712975Y-96299687D01*
X140644361Y-96197000D01*
X140623458Y-96146534D01*
X140597095Y-96082889D01*
X140573000Y-95961754D01*
X140573000Y-95838246D01*
X140597095Y-95717111D01*
X140628704Y-95640800D01*
X140644361Y-95603000D01*
X140712975Y-95500313D01*
X140800313Y-95412975D01*
X140903000Y-95344361D01*
X140953466Y-95323458D01*
X141017111Y-95297095D01*
X141138246Y-95273000D01*
X141261754Y-95273000D01*
X141382889Y-95297095D01*
G37*
G36*
X139018800Y-95899800D02*
G01*
X137901200Y-95899800D01*
X137901200Y-94782200D01*
X139018800Y-94782200D01*
X139018800Y-95899800D01*
G37*
G36*
X133390800Y-95640800D02*
G01*
X131989200Y-95640800D01*
X131989200Y-94739200D01*
X133390800Y-94739200D01*
X133390800Y-95640800D01*
G37*
G36*
X128824129Y-92096316D02*
G01*
X128995162Y-92167160D01*
X128995163Y-92167161D01*
X128995166Y-92167162D01*
X129149085Y-92270008D01*
X129279992Y-92400915D01*
X129382838Y-92554834D01*
X129382839Y-92554837D01*
X129382840Y-92554838D01*
X129453684Y-92725871D01*
X129489800Y-92907438D01*
X129489800Y-93092562D01*
X129453684Y-93274129D01*
X129382840Y-93445162D01*
X129382838Y-93445166D01*
X129279992Y-93599085D01*
X129149085Y-93729992D01*
X128995166Y-93832838D01*
X128995163Y-93832839D01*
X128995162Y-93832840D01*
X128824129Y-93903684D01*
X128642562Y-93939800D01*
X128457438Y-93939800D01*
X128275871Y-93903684D01*
X128104838Y-93832840D01*
X128104837Y-93832839D01*
X128104834Y-93832838D01*
X127950915Y-93729992D01*
X127820008Y-93599085D01*
X127717162Y-93445166D01*
X127717160Y-93445162D01*
X127646316Y-93274129D01*
X127610200Y-93092562D01*
X127610200Y-92907438D01*
X127646316Y-92725871D01*
X127717160Y-92554838D01*
X127717161Y-92554837D01*
X127717162Y-92554834D01*
X127820008Y-92400915D01*
X127950915Y-92270008D01*
X128104834Y-92167162D01*
X128104837Y-92167161D01*
X128104838Y-92167160D01*
X128275871Y-92096316D01*
X128457438Y-92060200D01*
X128642562Y-92060200D01*
X128824129Y-92096316D01*
G37*
G36*
X131364129Y-92096316D02*
G01*
X131535162Y-92167160D01*
X131535163Y-92167161D01*
X131535166Y-92167162D01*
X131689085Y-92270008D01*
X131819992Y-92400915D01*
X131922838Y-92554834D01*
X131922839Y-92554837D01*
X131922840Y-92554838D01*
X131993684Y-92725871D01*
X132029800Y-92907438D01*
X132029800Y-93092562D01*
X131993684Y-93274129D01*
X131922840Y-93445162D01*
X131922838Y-93445166D01*
X131819992Y-93599085D01*
X131689085Y-93729992D01*
X131535166Y-93832838D01*
X131535163Y-93832839D01*
X131535162Y-93832840D01*
X131364129Y-93903684D01*
X131182562Y-93939800D01*
X130997438Y-93939800D01*
X130815871Y-93903684D01*
X130644838Y-93832840D01*
X130644837Y-93832839D01*
X130644834Y-93832838D01*
X130490915Y-93729992D01*
X130360008Y-93599085D01*
X130257162Y-93445166D01*
X130257160Y-93445162D01*
X130186316Y-93274129D01*
X130150200Y-93092562D01*
X130150200Y-92907438D01*
X130186316Y-92725871D01*
X130257160Y-92554838D01*
X130257161Y-92554837D01*
X130257162Y-92554834D01*
X130360008Y-92400915D01*
X130490915Y-92270008D01*
X130644834Y-92167162D01*
X130644837Y-92167161D01*
X130644838Y-92167160D01*
X130815871Y-92096316D01*
X130997438Y-92060200D01*
X131182562Y-92060200D01*
X131364129Y-92096316D01*
G37*
G36*
X136444129Y-92096316D02*
G01*
X136615162Y-92167160D01*
X136615163Y-92167161D01*
X136615166Y-92167162D01*
X136769085Y-92270008D01*
X136899992Y-92400915D01*
X137002838Y-92554834D01*
X137002839Y-92554837D01*
X137002840Y-92554838D01*
X137073684Y-92725871D01*
X137109800Y-92907438D01*
X137109800Y-93092562D01*
X137073684Y-93274129D01*
X137002840Y-93445162D01*
X137002838Y-93445166D01*
X136899992Y-93599085D01*
X136769085Y-93729992D01*
X136615166Y-93832838D01*
X136615163Y-93832839D01*
X136615162Y-93832840D01*
X136444129Y-93903684D01*
X136262562Y-93939800D01*
X136077438Y-93939800D01*
X135895871Y-93903684D01*
X135724838Y-93832840D01*
X135724837Y-93832839D01*
X135724834Y-93832838D01*
X135570915Y-93729992D01*
X135440008Y-93599085D01*
X135337162Y-93445166D01*
X135337160Y-93445162D01*
X135266316Y-93274129D01*
X135230200Y-93092562D01*
X135230200Y-92907438D01*
X135266316Y-92725871D01*
X135337160Y-92554838D01*
X135337161Y-92554837D01*
X135337162Y-92554834D01*
X135440008Y-92400915D01*
X135570915Y-92270008D01*
X135724834Y-92167162D01*
X135724837Y-92167161D01*
X135724838Y-92167160D01*
X135895871Y-92096316D01*
X136077438Y-92060200D01*
X136262562Y-92060200D01*
X136444129Y-92096316D01*
G37*
G36*
X138984129Y-92096316D02*
G01*
X139155162Y-92167160D01*
X139155163Y-92167161D01*
X139155166Y-92167162D01*
X139309085Y-92270008D01*
X139439992Y-92400915D01*
X139542838Y-92554834D01*
X139542839Y-92554837D01*
X139542840Y-92554838D01*
X139613684Y-92725871D01*
X139649800Y-92907438D01*
X139649800Y-93092562D01*
X139613684Y-93274129D01*
X139542840Y-93445162D01*
X139542838Y-93445166D01*
X139439992Y-93599085D01*
X139309085Y-93729992D01*
X139155166Y-93832838D01*
X139155163Y-93832839D01*
X139155162Y-93832840D01*
X138984129Y-93903684D01*
X138802562Y-93939800D01*
X138617438Y-93939800D01*
X138435871Y-93903684D01*
X138264838Y-93832840D01*
X138264837Y-93832839D01*
X138264834Y-93832838D01*
X138110915Y-93729992D01*
X137980008Y-93599085D01*
X137877162Y-93445166D01*
X137877160Y-93445162D01*
X137806316Y-93274129D01*
X137770200Y-93092562D01*
X137770200Y-92907438D01*
X137806316Y-92725871D01*
X137877160Y-92554838D01*
X137877161Y-92554837D01*
X137877162Y-92554834D01*
X137980008Y-92400915D01*
X138110915Y-92270008D01*
X138264834Y-92167162D01*
X138264837Y-92167161D01*
X138264838Y-92167160D01*
X138435871Y-92096316D01*
X138617438Y-92060200D01*
X138802562Y-92060200D01*
X138984129Y-92096316D01*
G37*
G36*
X141524129Y-92096316D02*
G01*
X141695162Y-92167160D01*
X141695163Y-92167161D01*
X141695166Y-92167162D01*
X141849085Y-92270008D01*
X141979992Y-92400915D01*
X142082838Y-92554834D01*
X142082839Y-92554837D01*
X142082840Y-92554838D01*
X142153684Y-92725871D01*
X142189800Y-92907438D01*
X142189800Y-93092562D01*
X142153684Y-93274129D01*
X142082840Y-93445162D01*
X142082838Y-93445166D01*
X141979992Y-93599085D01*
X141849085Y-93729992D01*
X141695166Y-93832838D01*
X141695163Y-93832839D01*
X141695162Y-93832840D01*
X141524129Y-93903684D01*
X141342562Y-93939800D01*
X141157438Y-93939800D01*
X140975871Y-93903684D01*
X140804838Y-93832840D01*
X140804837Y-93832839D01*
X140804834Y-93832838D01*
X140650915Y-93729992D01*
X140520008Y-93599085D01*
X140417162Y-93445166D01*
X140417160Y-93445162D01*
X140346316Y-93274129D01*
X140310200Y-93092562D01*
X140310200Y-92907438D01*
X140346316Y-92725871D01*
X140417160Y-92554838D01*
X140417161Y-92554837D01*
X140417162Y-92554834D01*
X140520008Y-92400915D01*
X140650915Y-92270008D01*
X140804834Y-92167162D01*
X140804837Y-92167161D01*
X140804838Y-92167160D01*
X140975871Y-92096316D01*
X141157438Y-92060200D01*
X141342562Y-92060200D01*
X141524129Y-92096316D01*
G37*
G36*
X133904129Y-92096316D02*
G01*
X134075162Y-92167160D01*
X134075163Y-92167161D01*
X134075166Y-92167162D01*
X134229085Y-92270008D01*
X134359992Y-92400915D01*
X134462838Y-92554834D01*
X134462839Y-92554837D01*
X134462840Y-92554838D01*
X134533684Y-92725871D01*
X134569800Y-92907438D01*
X134569800Y-93092562D01*
X134533684Y-93274129D01*
X134462840Y-93445162D01*
X134462838Y-93445166D01*
X134359992Y-93599085D01*
X134229085Y-93729992D01*
X134075166Y-93832838D01*
X134075163Y-93832839D01*
X134075162Y-93832840D01*
X133904129Y-93903684D01*
X133722562Y-93939800D01*
X133537438Y-93939800D01*
X133355871Y-93903684D01*
X133184838Y-93832840D01*
X133184837Y-93832839D01*
X133184834Y-93832838D01*
X133030915Y-93729992D01*
X132900008Y-93599085D01*
X132797162Y-93445166D01*
X132797160Y-93445162D01*
X132726316Y-93274129D01*
X132690200Y-93092562D01*
X132690200Y-92907438D01*
X132726316Y-92725871D01*
X132797160Y-92554838D01*
X132797161Y-92554837D01*
X132797162Y-92554834D01*
X132900008Y-92400915D01*
X133030915Y-92270008D01*
X133184834Y-92167162D01*
X133184837Y-92167161D01*
X133184838Y-92167160D01*
X133355871Y-92096316D01*
X133537438Y-92060200D01*
X133722562Y-92060200D01*
X133904129Y-92096316D01*
G37*
G36*
X144729800Y-93939800D02*
G01*
X142850200Y-93939800D01*
X142850200Y-92060200D01*
X144729800Y-92060200D01*
X144729800Y-93939800D01*
G37*
M02*
