G04 #@! TF.GenerationSoftware,KiCad,Pcbnew,5.1.5-52549c5~84~ubuntu19.10.1*
G04 #@! TF.CreationDate,2020-03-27T11:31:54+02:00*
G04 #@! TF.ProjectId,ESP-PROG_Rev.C,4553502d-5052-44f4-975f-5265762e432e,rev?*
G04 #@! TF.SameCoordinates,Original*
G04 #@! TF.FileFunction,Copper,L1,Top*
G04 #@! TF.FilePolarity,Positive*
%FSLAX46Y46*%
G04 Gerber Fmt 4.6, Leading zero omitted, Abs format (unit mm)*
G04 Created by KiCad (PCBNEW 5.1.5-52549c5~84~ubuntu19.10.1) date 2020-03-27 11:31:54*
%MOMM*%
%LPD*%
G04 APERTURE LIST*
%ADD10C,0.100000*%
%ADD11R,1.200000X1.400000*%
%ADD12R,1.300000X0.800000*%
%ADD13R,1.501900X0.900000*%
%ADD14C,1.778000*%
%ADD15R,1.778000X1.778000*%
%ADD16C,1.000000*%
%ADD17R,1.650000X0.500000*%
%ADD18R,1.650000X0.325000*%
%ADD19R,1.000000X1.100000*%
%ADD20O,1.800000X1.200000*%
%ADD21R,0.325000X1.270000*%
%ADD22R,0.500000X0.550000*%
%ADD23R,0.550000X0.500000*%
%ADD24R,1.400000X1.000000*%
%ADD25R,1.016000X1.016000*%
%ADD26O,1.500000X1.000000*%
%ADD27C,0.800000*%
%ADD28C,0.900000*%
%ADD29C,0.203200*%
%ADD30C,0.254000*%
%ADD31C,0.508000*%
%ADD32C,0.381000*%
G04 APERTURE END LIST*
D10*
G36*
X134440000Y-97590000D02*
G01*
X133440000Y-97190000D01*
X132040000Y-97190000D01*
X132040000Y-96190000D01*
X133440000Y-96190000D01*
X134440000Y-95790000D01*
X136740000Y-95790000D01*
X136740000Y-97590000D01*
X134440000Y-97590000D01*
G37*
X134440000Y-97590000D02*
X133440000Y-97190000D01*
X132040000Y-97190000D01*
X132040000Y-96190000D01*
X133440000Y-96190000D01*
X134440000Y-95790000D01*
X136740000Y-95790000D01*
X136740000Y-97590000D01*
X134440000Y-97590000D01*
D11*
X133180000Y-104100000D03*
X134780000Y-101900000D03*
X133180000Y-101900000D03*
X134780000Y-104100000D03*
D12*
X132690000Y-95190000D03*
D13*
X132790000Y-96690000D03*
D12*
X132690000Y-98190000D03*
D14*
X128550000Y-93000000D03*
X131090000Y-93000000D03*
X133630000Y-93000000D03*
D15*
X143790000Y-93000000D03*
D14*
X141250000Y-93000000D03*
X138710000Y-93000000D03*
X136170000Y-93000000D03*
D16*
X118100000Y-99900000D03*
X141200000Y-95900000D03*
D17*
X120650000Y-98612500D03*
D18*
X120650000Y-99350000D03*
X120650000Y-100000000D03*
X120650000Y-100650000D03*
D17*
X120650000Y-101387500D03*
D19*
X116100000Y-98500000D03*
X116100000Y-101500000D03*
D20*
X117250000Y-96400000D03*
X120720000Y-96400000D03*
X120720000Y-103600000D03*
X117250000Y-103600000D03*
D21*
X124075000Y-103619500D03*
X124725000Y-103619500D03*
X125375000Y-103619500D03*
X126025000Y-103619500D03*
X126675000Y-103619500D03*
X127325000Y-103619500D03*
X127975000Y-103619500D03*
X128625000Y-103619500D03*
X129275000Y-103619500D03*
X129925000Y-103619500D03*
X129925000Y-96380500D03*
X129275000Y-96380500D03*
X128625000Y-96380500D03*
X127975000Y-96380500D03*
X127325000Y-96380500D03*
X126675000Y-96380500D03*
X126025000Y-96380500D03*
X125375000Y-96380500D03*
X124725000Y-96380500D03*
X124075000Y-96380500D03*
D22*
X140492000Y-98100000D03*
X141508000Y-98100000D03*
X140492000Y-101500000D03*
X141508000Y-101500000D03*
D23*
X136400000Y-101092000D03*
X136400000Y-102108000D03*
X136400000Y-99308000D03*
X136400000Y-98292000D03*
D24*
X137892560Y-102150040D03*
X137892560Y-104052500D03*
X140102360Y-103097460D03*
X137892560Y-98750040D03*
X137892560Y-100652500D03*
X140102360Y-99697460D03*
D23*
X136400000Y-103292000D03*
X136400000Y-104308000D03*
D25*
X131661000Y-100220000D03*
X133439000Y-100220000D03*
D23*
X131700000Y-104408000D03*
X131700000Y-103392000D03*
D25*
X138460000Y-95341000D03*
X138460000Y-97119000D03*
D26*
X143400000Y-103125000D03*
X143400000Y-101875000D03*
X143400000Y-100625000D03*
X143400000Y-99375000D03*
X143400000Y-98125000D03*
X143400000Y-96875000D03*
D27*
X135750000Y-102850000D03*
D28*
X126500000Y-99200000D03*
X123300000Y-98600000D03*
X142300000Y-104000000D03*
X123300000Y-101300000D03*
X128900000Y-100800000D03*
X130580000Y-100910000D03*
D27*
X134660000Y-100580000D03*
D28*
X130750000Y-103600000D03*
D27*
X139450000Y-104700000D03*
X136450000Y-100050000D03*
D28*
X128600000Y-98800000D03*
X126700000Y-104700000D03*
X124700000Y-98000000D03*
X134600000Y-99045200D03*
X139754800Y-101500000D03*
X125400000Y-102300000D03*
X125500000Y-101100000D03*
X139700000Y-97500000D03*
D29*
X129275000Y-103619500D02*
X129275000Y-104457700D01*
X129275000Y-104457700D02*
X129896701Y-105079401D01*
X129896701Y-105079401D02*
X134723799Y-105079401D01*
D30*
X135817602Y-104308000D02*
X136400000Y-104308000D01*
X135817602Y-104283602D02*
X135634000Y-104100000D01*
X135634000Y-104100000D02*
X134780000Y-104100000D01*
X135817602Y-104308000D02*
X135817602Y-104283602D01*
X134765810Y-105068190D02*
X134723799Y-105068190D01*
X134780000Y-104100000D02*
X134780000Y-105054000D01*
X134780000Y-105054000D02*
X134765810Y-105068190D01*
D29*
X136400000Y-102934315D02*
X136400000Y-103292000D01*
X135750000Y-102850000D02*
X136315685Y-102850000D01*
X136315685Y-102850000D02*
X136400000Y-102934315D01*
X135750000Y-102850000D02*
X134800000Y-101900000D01*
X131171000Y-104408000D02*
X130921604Y-104408000D01*
X130921604Y-104408000D02*
X130750000Y-104236396D01*
X130750000Y-104236396D02*
X130750000Y-103600000D01*
X128625000Y-103619500D02*
X128625000Y-101075000D01*
X128625000Y-101075000D02*
X128900000Y-100800000D01*
D30*
X126500000Y-99200000D02*
X128100000Y-100800000D01*
X128100000Y-100800000D02*
X128900000Y-100800000D01*
X123300000Y-98600000D02*
X123936396Y-98600000D01*
X126243590Y-98943590D02*
X126500000Y-99200000D01*
X123936396Y-98600000D02*
X124279986Y-98943590D01*
X124279986Y-98943590D02*
X126243590Y-98943590D01*
X131700000Y-104408000D02*
X131171000Y-104408000D01*
X121729000Y-101387500D02*
X122200000Y-101858500D01*
X120650000Y-101387500D02*
X121729000Y-101387500D01*
X122200000Y-101858500D02*
X122200000Y-103500000D01*
X122100000Y-103600000D02*
X120720000Y-103600000D01*
X122200000Y-103500000D02*
X122100000Y-103600000D01*
X119566000Y-103600000D02*
X117250000Y-103600000D01*
X120720000Y-103600000D02*
X119566000Y-103600000D01*
X118404000Y-96400000D02*
X120720000Y-96400000D01*
X117250000Y-96400000D02*
X118404000Y-96400000D01*
X116950000Y-96400000D02*
X117250000Y-96400000D01*
X116096000Y-97254000D02*
X116950000Y-96400000D01*
X116096000Y-97546000D02*
X116096000Y-97254000D01*
X116100000Y-97550000D02*
X116096000Y-97546000D01*
X116100000Y-98500000D02*
X116100000Y-97550000D01*
X116096000Y-102746000D02*
X116950000Y-103600000D01*
X116096000Y-102454000D02*
X116096000Y-102746000D01*
X116100000Y-102450000D02*
X116096000Y-102454000D01*
X116950000Y-103600000D02*
X117250000Y-103600000D01*
X116100000Y-101500000D02*
X116100000Y-102450000D01*
X116100000Y-98500000D02*
X116100000Y-101500000D01*
D31*
X138309000Y-95190000D02*
X138460000Y-95341000D01*
X136170000Y-95110000D02*
X136230000Y-95170000D01*
X136170000Y-93000000D02*
X136170000Y-95110000D01*
X132690000Y-95190000D02*
X136230000Y-95170000D01*
X136230000Y-95170000D02*
X138309000Y-95190000D01*
D30*
X132872000Y-104408000D02*
X133180000Y-104100000D01*
X131700000Y-104408000D02*
X132872000Y-104408000D01*
X134660000Y-101780000D02*
X134780000Y-101900000D01*
X134660000Y-100580000D02*
X134660000Y-101780000D01*
X138700000Y-99800000D02*
X136700000Y-99800000D01*
X138850000Y-104050000D02*
X139000000Y-103900000D01*
X139000000Y-100100000D02*
X138700000Y-99800000D01*
X139000000Y-103900000D02*
X139000000Y-100100000D01*
X138000000Y-104050000D02*
X138850000Y-104050000D01*
X136700000Y-99800000D02*
X136450000Y-100050000D01*
X136400000Y-99308000D02*
X136400000Y-100000000D01*
X136400000Y-100000000D02*
X136450000Y-100050000D01*
D29*
X136400000Y-99308000D02*
X136507998Y-99308000D01*
D30*
X126675000Y-97269500D02*
X128205500Y-98800000D01*
X126675000Y-96380500D02*
X126675000Y-97269500D01*
X128205500Y-98800000D02*
X128600000Y-98800000D01*
X136842000Y-100650000D02*
X136400000Y-101092000D01*
X138000000Y-100650000D02*
X136842000Y-100650000D01*
D29*
X134760000Y-98180000D02*
X135630000Y-98995686D01*
X127325000Y-97218700D02*
X127616300Y-97510000D01*
X135630000Y-100800200D02*
X135921800Y-101092000D01*
X135630000Y-98995686D02*
X135630000Y-100800200D01*
X133460000Y-97510000D02*
X134130000Y-98180000D01*
X135921800Y-101092000D02*
X136400000Y-101092000D01*
X134130000Y-98180000D02*
X134760000Y-98180000D01*
X127325000Y-96380500D02*
X127325000Y-97218700D01*
X127616300Y-97510000D02*
X133460000Y-97510000D01*
X127975000Y-101849750D02*
X125475250Y-99350000D01*
X127975000Y-103619500D02*
X127975000Y-101849750D01*
X125475250Y-99350000D02*
X120650000Y-99350000D01*
X127325000Y-101738580D02*
X125586420Y-100000000D01*
X127325000Y-103619500D02*
X127325000Y-101738580D01*
X125586420Y-100000000D02*
X120650000Y-100000000D01*
D31*
X128550000Y-93450000D02*
X129750000Y-94650000D01*
X128550000Y-93000000D02*
X128550000Y-93450000D01*
X124000000Y-94600000D02*
X126950000Y-94600000D01*
X126950000Y-94600000D02*
X128550000Y-93000000D01*
D32*
X122400000Y-96200000D02*
X122400000Y-98300000D01*
X124000000Y-94600000D02*
X122400000Y-96200000D01*
X122087500Y-98612500D02*
X120650000Y-98612500D01*
X122400000Y-98300000D02*
X122087500Y-98612500D01*
D31*
X129750000Y-94650000D02*
X130340000Y-94650000D01*
X130340000Y-94650000D02*
X131000000Y-95310000D01*
X131000000Y-95310000D02*
X131000000Y-96350000D01*
X131340000Y-96690000D02*
X132790000Y-96690000D01*
X131000000Y-96350000D02*
X131340000Y-96690000D01*
X132790000Y-96690000D02*
X135000000Y-96690000D01*
X135429000Y-97119000D02*
X138460000Y-97119000D01*
X135000000Y-96690000D02*
X135429000Y-97119000D01*
D30*
X129925000Y-102725000D02*
X130200000Y-102450000D01*
X129925000Y-103619500D02*
X129925000Y-102725000D01*
X130200000Y-102450000D02*
X131700000Y-102450000D01*
X131700000Y-102450000D02*
X131700000Y-103392000D01*
X131700000Y-103392000D02*
X131700000Y-102400000D01*
X131700000Y-102400000D02*
X132200000Y-101900000D01*
X132200000Y-101900000D02*
X133180000Y-101900000D01*
X128000000Y-99600000D02*
X128917106Y-99600000D01*
X124700000Y-98000000D02*
X126400000Y-98000000D01*
X126400000Y-98000000D02*
X128000000Y-99600000D01*
D31*
X143400000Y-101875000D02*
X143525000Y-102000000D01*
D30*
X126675000Y-103619500D02*
X126675000Y-104675000D01*
X126675000Y-104675000D02*
X126700000Y-104700000D01*
X124700000Y-96405500D02*
X124725000Y-96380500D01*
X124700000Y-98000000D02*
X124700000Y-96405500D01*
X124725000Y-96380500D02*
X124725000Y-98025000D01*
D31*
X129358199Y-99681801D02*
X128917106Y-99681801D01*
X132690000Y-98190000D02*
X130850000Y-98190000D01*
X130850000Y-98190000D02*
X129358199Y-99681801D01*
X132690000Y-98190000D02*
X132690000Y-98530000D01*
X133205200Y-99045200D02*
X134600000Y-99045200D01*
X132690000Y-98530000D02*
X133205200Y-99045200D01*
X133440000Y-100219000D02*
X133439000Y-100220000D01*
X132690000Y-98530000D02*
X133440000Y-99280000D01*
X133440000Y-99280000D02*
X133440000Y-100219000D01*
D32*
X145200000Y-91969058D02*
X145200000Y-102456000D01*
X144830942Y-91600000D02*
X145200000Y-91969058D01*
X131600000Y-91600000D02*
X144830942Y-91600000D01*
X145200000Y-102456000D02*
X144531000Y-103125000D01*
X131090000Y-93000000D02*
X131090000Y-92110000D01*
X131090000Y-92110000D02*
X131600000Y-91600000D01*
X144531000Y-103125000D02*
X143400000Y-103125000D01*
D30*
X140000000Y-103100000D02*
X143375000Y-103100000D01*
X143375000Y-103100000D02*
X143400000Y-103125000D01*
X142225000Y-99375000D02*
X141508000Y-100092000D01*
X141508000Y-100092000D02*
X141508000Y-101500000D01*
X143400000Y-99375000D02*
X142225000Y-99375000D01*
X143104000Y-99375000D02*
X143396000Y-99375000D01*
X140704000Y-99700000D02*
X141604000Y-98800000D01*
X141604000Y-98800000D02*
X142087500Y-98800000D01*
X140000000Y-99700000D02*
X140704000Y-99700000D01*
X142762500Y-98125000D02*
X143400000Y-98125000D01*
X142087500Y-98800000D02*
X142762500Y-98125000D01*
X143400000Y-96875000D02*
X142733000Y-96875000D01*
X142733000Y-96875000D02*
X141508000Y-98100000D01*
X143790000Y-93000000D02*
X143790000Y-96485000D01*
X143790000Y-96485000D02*
X143400000Y-96875000D01*
X136792000Y-98292000D02*
X136950000Y-98450000D01*
X137592520Y-98450000D02*
X137892560Y-98750040D01*
X136400000Y-98292000D02*
X136792000Y-98292000D01*
X136950000Y-98450000D02*
X137592520Y-98450000D01*
X137958000Y-98792000D02*
X138000000Y-98750000D01*
X137958000Y-102108000D02*
X138000000Y-102150000D01*
X136400000Y-102108000D02*
X137958000Y-102108000D01*
X140492000Y-101500000D02*
X139754800Y-101500000D01*
X125375000Y-102325000D02*
X125400000Y-102300000D01*
X125375000Y-103619500D02*
X125375000Y-102325000D01*
X140492000Y-98100000D02*
X140300000Y-98100000D01*
X140300000Y-98100000D02*
X139700000Y-97500000D01*
X126025000Y-102730500D02*
X126300000Y-102455500D01*
X126025000Y-103619500D02*
X126025000Y-102730500D01*
X126300000Y-102455500D02*
X126300000Y-101900000D01*
X126300000Y-101900000D02*
X125500000Y-101100000D01*
G36*
X127585462Y-99975725D02*
G01*
X127602957Y-99997043D01*
X127637995Y-100025798D01*
X127688045Y-100066873D01*
X127785122Y-100118761D01*
X127890455Y-100150714D01*
X128000000Y-100161503D01*
X128027444Y-100158800D01*
X128421389Y-100158800D01*
X128429826Y-100169081D01*
X128534253Y-100254782D01*
X128653392Y-100318463D01*
X128782666Y-100357678D01*
X128883417Y-100367601D01*
X129324520Y-100367601D01*
X129358199Y-100370918D01*
X129391878Y-100367601D01*
X129391888Y-100367601D01*
X129492639Y-100357678D01*
X129621913Y-100318463D01*
X129741052Y-100254782D01*
X129845479Y-100169081D01*
X129866957Y-100142910D01*
X130588130Y-99421737D01*
X130563498Y-99467820D01*
X130527188Y-99587518D01*
X130514928Y-99712000D01*
X130518000Y-99934250D01*
X130676750Y-100093000D01*
X131534000Y-100093000D01*
X131534000Y-99235750D01*
X131375250Y-99077000D01*
X131153000Y-99073928D01*
X131028518Y-99086188D01*
X130908820Y-99122498D01*
X130862738Y-99147130D01*
X131134068Y-98875800D01*
X131715955Y-98875800D01*
X131733194Y-98896806D01*
X131798944Y-98950766D01*
X131873958Y-98990861D01*
X131955352Y-99015552D01*
X132040000Y-99023889D01*
X132210774Y-99023889D01*
X132228886Y-99038753D01*
X132274446Y-99084313D01*
X132169000Y-99073928D01*
X131946750Y-99077000D01*
X131788000Y-99235750D01*
X131788000Y-100093000D01*
X131808000Y-100093000D01*
X131808000Y-100347000D01*
X131788000Y-100347000D01*
X131788000Y-101204250D01*
X131946750Y-101363000D01*
X132040954Y-101364302D01*
X131985122Y-101381239D01*
X131888045Y-101433127D01*
X131858787Y-101457139D01*
X131802957Y-101502957D01*
X131785463Y-101524274D01*
X131418538Y-101891200D01*
X130227444Y-101891200D01*
X130200000Y-101888497D01*
X130090455Y-101899286D01*
X130029790Y-101917689D01*
X129985122Y-101931239D01*
X129888046Y-101983127D01*
X129802957Y-102052957D01*
X129785457Y-102074281D01*
X129549276Y-102310462D01*
X129527958Y-102327957D01*
X129480546Y-102385729D01*
X129458128Y-102413046D01*
X129406239Y-102510123D01*
X129393957Y-102550611D01*
X129253847Y-102550611D01*
X129246141Y-102540896D01*
X129150786Y-102459944D01*
X129041469Y-102399149D01*
X128922393Y-102360850D01*
X128819250Y-102349500D01*
X128660500Y-102508250D01*
X128660500Y-103492500D01*
X128678611Y-103492500D01*
X128678611Y-103746500D01*
X128660500Y-103746500D01*
X128660500Y-104730750D01*
X128819250Y-104889500D01*
X128922393Y-104878150D01*
X128936554Y-104873595D01*
X129004159Y-104941200D01*
X127551098Y-104941200D01*
X127581800Y-104786850D01*
X127581800Y-104677124D01*
X127650000Y-104656435D01*
X127727852Y-104680052D01*
X127812500Y-104688389D01*
X127996153Y-104688389D01*
X128003859Y-104698104D01*
X128099214Y-104779056D01*
X128208531Y-104839851D01*
X128327607Y-104878150D01*
X128430750Y-104889500D01*
X128589500Y-104730750D01*
X128589500Y-103746500D01*
X128571389Y-103746500D01*
X128571389Y-103492500D01*
X128589500Y-103492500D01*
X128589500Y-102508250D01*
X128508400Y-102427150D01*
X128508400Y-101875936D01*
X128510979Y-101849749D01*
X128508400Y-101823562D01*
X128508400Y-101823555D01*
X128500681Y-101745185D01*
X128470181Y-101644639D01*
X128420651Y-101551975D01*
X128353995Y-101470755D01*
X128333651Y-101454059D01*
X127607592Y-100728000D01*
X130514928Y-100728000D01*
X130527188Y-100852482D01*
X130563498Y-100972180D01*
X130622463Y-101082494D01*
X130701815Y-101179185D01*
X130798506Y-101258537D01*
X130908820Y-101317502D01*
X131028518Y-101353812D01*
X131153000Y-101366072D01*
X131375250Y-101363000D01*
X131534000Y-101204250D01*
X131534000Y-100347000D01*
X130676750Y-100347000D01*
X130518000Y-100505750D01*
X130514928Y-100728000D01*
X127607592Y-100728000D01*
X125870946Y-98991355D01*
X125854245Y-98971005D01*
X125773025Y-98904349D01*
X125680361Y-98854819D01*
X125579815Y-98824319D01*
X125501445Y-98816600D01*
X125501437Y-98816600D01*
X125475250Y-98814021D01*
X125449063Y-98816600D01*
X125032808Y-98816600D01*
X125117689Y-98781441D01*
X125262115Y-98684939D01*
X125384939Y-98562115D01*
X125387154Y-98558800D01*
X126168538Y-98558800D01*
X127585462Y-99975725D01*
G37*
X127585462Y-99975725D02*
X127602957Y-99997043D01*
X127637995Y-100025798D01*
X127688045Y-100066873D01*
X127785122Y-100118761D01*
X127890455Y-100150714D01*
X128000000Y-100161503D01*
X128027444Y-100158800D01*
X128421389Y-100158800D01*
X128429826Y-100169081D01*
X128534253Y-100254782D01*
X128653392Y-100318463D01*
X128782666Y-100357678D01*
X128883417Y-100367601D01*
X129324520Y-100367601D01*
X129358199Y-100370918D01*
X129391878Y-100367601D01*
X129391888Y-100367601D01*
X129492639Y-100357678D01*
X129621913Y-100318463D01*
X129741052Y-100254782D01*
X129845479Y-100169081D01*
X129866957Y-100142910D01*
X130588130Y-99421737D01*
X130563498Y-99467820D01*
X130527188Y-99587518D01*
X130514928Y-99712000D01*
X130518000Y-99934250D01*
X130676750Y-100093000D01*
X131534000Y-100093000D01*
X131534000Y-99235750D01*
X131375250Y-99077000D01*
X131153000Y-99073928D01*
X131028518Y-99086188D01*
X130908820Y-99122498D01*
X130862738Y-99147130D01*
X131134068Y-98875800D01*
X131715955Y-98875800D01*
X131733194Y-98896806D01*
X131798944Y-98950766D01*
X131873958Y-98990861D01*
X131955352Y-99015552D01*
X132040000Y-99023889D01*
X132210774Y-99023889D01*
X132228886Y-99038753D01*
X132274446Y-99084313D01*
X132169000Y-99073928D01*
X131946750Y-99077000D01*
X131788000Y-99235750D01*
X131788000Y-100093000D01*
X131808000Y-100093000D01*
X131808000Y-100347000D01*
X131788000Y-100347000D01*
X131788000Y-101204250D01*
X131946750Y-101363000D01*
X132040954Y-101364302D01*
X131985122Y-101381239D01*
X131888045Y-101433127D01*
X131858787Y-101457139D01*
X131802957Y-101502957D01*
X131785463Y-101524274D01*
X131418538Y-101891200D01*
X130227444Y-101891200D01*
X130200000Y-101888497D01*
X130090455Y-101899286D01*
X130029790Y-101917689D01*
X129985122Y-101931239D01*
X129888046Y-101983127D01*
X129802957Y-102052957D01*
X129785457Y-102074281D01*
X129549276Y-102310462D01*
X129527958Y-102327957D01*
X129480546Y-102385729D01*
X129458128Y-102413046D01*
X129406239Y-102510123D01*
X129393957Y-102550611D01*
X129253847Y-102550611D01*
X129246141Y-102540896D01*
X129150786Y-102459944D01*
X129041469Y-102399149D01*
X128922393Y-102360850D01*
X128819250Y-102349500D01*
X128660500Y-102508250D01*
X128660500Y-103492500D01*
X128678611Y-103492500D01*
X128678611Y-103746500D01*
X128660500Y-103746500D01*
X128660500Y-104730750D01*
X128819250Y-104889500D01*
X128922393Y-104878150D01*
X128936554Y-104873595D01*
X129004159Y-104941200D01*
X127551098Y-104941200D01*
X127581800Y-104786850D01*
X127581800Y-104677124D01*
X127650000Y-104656435D01*
X127727852Y-104680052D01*
X127812500Y-104688389D01*
X127996153Y-104688389D01*
X128003859Y-104698104D01*
X128099214Y-104779056D01*
X128208531Y-104839851D01*
X128327607Y-104878150D01*
X128430750Y-104889500D01*
X128589500Y-104730750D01*
X128589500Y-103746500D01*
X128571389Y-103746500D01*
X128571389Y-103492500D01*
X128589500Y-103492500D01*
X128589500Y-102508250D01*
X128508400Y-102427150D01*
X128508400Y-101875936D01*
X128510979Y-101849749D01*
X128508400Y-101823562D01*
X128508400Y-101823555D01*
X128500681Y-101745185D01*
X128470181Y-101644639D01*
X128420651Y-101551975D01*
X128353995Y-101470755D01*
X128333651Y-101454059D01*
X127607592Y-100728000D01*
X130514928Y-100728000D01*
X130527188Y-100852482D01*
X130563498Y-100972180D01*
X130622463Y-101082494D01*
X130701815Y-101179185D01*
X130798506Y-101258537D01*
X130908820Y-101317502D01*
X131028518Y-101353812D01*
X131153000Y-101366072D01*
X131375250Y-101363000D01*
X131534000Y-101204250D01*
X131534000Y-100347000D01*
X130676750Y-100347000D01*
X130518000Y-100505750D01*
X130514928Y-100728000D01*
X127607592Y-100728000D01*
X125870946Y-98991355D01*
X125854245Y-98971005D01*
X125773025Y-98904349D01*
X125680361Y-98854819D01*
X125579815Y-98824319D01*
X125501445Y-98816600D01*
X125501437Y-98816600D01*
X125475250Y-98814021D01*
X125449063Y-98816600D01*
X125032808Y-98816600D01*
X125117689Y-98781441D01*
X125262115Y-98684939D01*
X125384939Y-98562115D01*
X125387154Y-98558800D01*
X126168538Y-98558800D01*
X127585462Y-99975725D01*
G36*
X130671588Y-91648348D02*
G01*
X130647839Y-91667838D01*
X130628350Y-91691586D01*
X130570073Y-91762596D01*
X130554187Y-91792317D01*
X130464366Y-91829522D01*
X130248039Y-91974067D01*
X130064067Y-92158039D01*
X129919522Y-92374366D01*
X129820000Y-92614633D01*
X129720478Y-92374366D01*
X129575933Y-92158039D01*
X129391961Y-91974067D01*
X129175634Y-91829522D01*
X128935263Y-91729957D01*
X128680087Y-91679200D01*
X128419913Y-91679200D01*
X128164737Y-91729957D01*
X127924366Y-91829522D01*
X127708039Y-91974067D01*
X127524067Y-92158039D01*
X127379522Y-92374366D01*
X127279957Y-92614737D01*
X127229200Y-92869913D01*
X127229200Y-93130087D01*
X127265840Y-93314293D01*
X126665933Y-93914200D01*
X123966311Y-93914200D01*
X123865560Y-93924123D01*
X123736286Y-93963338D01*
X123617147Y-94027019D01*
X123512720Y-94112720D01*
X123427019Y-94217147D01*
X123363338Y-94336286D01*
X123354494Y-94365441D01*
X122031007Y-95688929D01*
X121983078Y-95616526D01*
X121811725Y-95443693D01*
X121609946Y-95307610D01*
X121385496Y-95213507D01*
X121147000Y-95165000D01*
X120847000Y-95165000D01*
X120847000Y-96273000D01*
X120867000Y-96273000D01*
X120867000Y-96527000D01*
X120847000Y-96527000D01*
X120847000Y-97635000D01*
X121147000Y-97635000D01*
X121385496Y-97586493D01*
X121609946Y-97492390D01*
X121777701Y-97379254D01*
X121777701Y-97990200D01*
X121694477Y-97990200D01*
X121641042Y-97961639D01*
X121559648Y-97936948D01*
X121475000Y-97928611D01*
X120131800Y-97928611D01*
X120131800Y-97927924D01*
X120103677Y-97786542D01*
X120048513Y-97653363D01*
X119984112Y-97556980D01*
X120054504Y-97586493D01*
X120293000Y-97635000D01*
X120593000Y-97635000D01*
X120593000Y-96527000D01*
X119351269Y-96527000D01*
X119226538Y-96717609D01*
X119230409Y-96755282D01*
X119322579Y-96980533D01*
X119456922Y-97183474D01*
X119557835Y-97285259D01*
X119472076Y-97268200D01*
X119327924Y-97268200D01*
X119186542Y-97296323D01*
X119053363Y-97351487D01*
X118933505Y-97431574D01*
X118831574Y-97533505D01*
X118751487Y-97653363D01*
X118696323Y-97786542D01*
X118668200Y-97927924D01*
X118668200Y-98072076D01*
X118696323Y-98213458D01*
X118751487Y-98346637D01*
X118792921Y-98408647D01*
X118579245Y-98320139D01*
X118261821Y-98257000D01*
X117938179Y-98257000D01*
X117620755Y-98320139D01*
X117321748Y-98443992D01*
X117052648Y-98623798D01*
X117049446Y-98627000D01*
X116227000Y-98627000D01*
X116227000Y-99526250D01*
X116385750Y-99685000D01*
X116467345Y-99686170D01*
X116457000Y-99738179D01*
X116457000Y-100061821D01*
X116507014Y-100313261D01*
X116385750Y-100315000D01*
X116227000Y-100473750D01*
X116227000Y-101373000D01*
X117076250Y-101373000D01*
X117184768Y-101264482D01*
X117321748Y-101356008D01*
X117620755Y-101479861D01*
X117938179Y-101543000D01*
X118261821Y-101543000D01*
X118579245Y-101479861D01*
X118878252Y-101356008D01*
X119147352Y-101176202D01*
X119203902Y-101119652D01*
X119344748Y-101260498D01*
X119190000Y-101260498D01*
X119190000Y-101295635D01*
X119186542Y-101296323D01*
X119053363Y-101351487D01*
X118933505Y-101431574D01*
X118831574Y-101533505D01*
X118751487Y-101653363D01*
X118696323Y-101786542D01*
X118668200Y-101927924D01*
X118668200Y-102072076D01*
X118696323Y-102213458D01*
X118751487Y-102346637D01*
X118831574Y-102466495D01*
X118933505Y-102568426D01*
X119053363Y-102648513D01*
X119186542Y-102703677D01*
X119327924Y-102731800D01*
X119472076Y-102731800D01*
X119557835Y-102714741D01*
X119456922Y-102816526D01*
X119322579Y-103019467D01*
X119230409Y-103244718D01*
X119226538Y-103282391D01*
X119351269Y-103473000D01*
X120593000Y-103473000D01*
X120593000Y-102365000D01*
X120847000Y-102365000D01*
X120847000Y-103473000D01*
X122088731Y-103473000D01*
X122213462Y-103282391D01*
X122209591Y-103244718D01*
X122117421Y-103019467D01*
X121983078Y-102816526D01*
X121811725Y-102643693D01*
X121609946Y-102507610D01*
X121385496Y-102413507D01*
X121147000Y-102365000D01*
X120847000Y-102365000D01*
X120593000Y-102365000D01*
X120293000Y-102365000D01*
X120054504Y-102413507D01*
X119984112Y-102443020D01*
X120048513Y-102346637D01*
X120078550Y-102274121D01*
X120364250Y-102272500D01*
X120523000Y-102113750D01*
X120523000Y-101510500D01*
X120777000Y-101510500D01*
X120777000Y-102113750D01*
X120935750Y-102272500D01*
X121466135Y-102275510D01*
X121590775Y-102264981D01*
X121710966Y-102230337D01*
X121822089Y-102172911D01*
X121919873Y-102094910D01*
X122000561Y-101999331D01*
X122061052Y-101889846D01*
X122099022Y-101770664D01*
X122110000Y-101669250D01*
X121951250Y-101510500D01*
X120777000Y-101510500D01*
X120523000Y-101510500D01*
X120503000Y-101510500D01*
X120503000Y-101264500D01*
X120523000Y-101264500D01*
X120523000Y-101246389D01*
X120777000Y-101246389D01*
X120777000Y-101264500D01*
X121951250Y-101264500D01*
X122110000Y-101105750D01*
X122099022Y-101004336D01*
X122061052Y-100885154D01*
X122000561Y-100775669D01*
X121919873Y-100680090D01*
X121908889Y-100671328D01*
X121908889Y-100533400D01*
X124819546Y-100533400D01*
X124815061Y-100537885D01*
X124718559Y-100682311D01*
X124652087Y-100842788D01*
X124618200Y-101013150D01*
X124618200Y-101186850D01*
X124652087Y-101357212D01*
X124718559Y-101517689D01*
X124805356Y-101647590D01*
X124715061Y-101737885D01*
X124618559Y-101882311D01*
X124552087Y-102042788D01*
X124518200Y-102213150D01*
X124518200Y-102386850D01*
X124550999Y-102551744D01*
X124477852Y-102558948D01*
X124400000Y-102582565D01*
X124322148Y-102558948D01*
X124237500Y-102550611D01*
X123912500Y-102550611D01*
X123827852Y-102558948D01*
X123746458Y-102583639D01*
X123671444Y-102623734D01*
X123605694Y-102677694D01*
X123551734Y-102743444D01*
X123511639Y-102818458D01*
X123486948Y-102899852D01*
X123478611Y-102984500D01*
X123478611Y-104254500D01*
X123486948Y-104339148D01*
X123511639Y-104420542D01*
X123551734Y-104495556D01*
X123605694Y-104561306D01*
X123671444Y-104615266D01*
X123746458Y-104655361D01*
X123827852Y-104680052D01*
X123912500Y-104688389D01*
X124237500Y-104688389D01*
X124322148Y-104680052D01*
X124400000Y-104656435D01*
X124477852Y-104680052D01*
X124562500Y-104688389D01*
X124887500Y-104688389D01*
X124972148Y-104680052D01*
X125050000Y-104656435D01*
X125127852Y-104680052D01*
X125212500Y-104688389D01*
X125537500Y-104688389D01*
X125622148Y-104680052D01*
X125700000Y-104656435D01*
X125777852Y-104680052D01*
X125818200Y-104684026D01*
X125818200Y-104786850D01*
X125848902Y-104941200D01*
X114558800Y-104941200D01*
X114558800Y-104845357D01*
X115207542Y-104520986D01*
X115214878Y-104518761D01*
X115256679Y-104496418D01*
X115274449Y-104487533D01*
X115280906Y-104483468D01*
X115311954Y-104466873D01*
X115327377Y-104454215D01*
X115344265Y-104443585D01*
X115369825Y-104419380D01*
X115397043Y-104397043D01*
X115409705Y-104381614D01*
X115424189Y-104367898D01*
X115444535Y-104339173D01*
X115466873Y-104311954D01*
X115476279Y-104294356D01*
X115487812Y-104278074D01*
X115502167Y-104245923D01*
X115518761Y-104214878D01*
X115524552Y-104195789D01*
X115532689Y-104177564D01*
X115540495Y-104143231D01*
X115550714Y-104109544D01*
X115552670Y-104089681D01*
X115557093Y-104070229D01*
X115558051Y-104035046D01*
X115558800Y-104027444D01*
X115558800Y-104007558D01*
X115560090Y-103960196D01*
X115558800Y-103952641D01*
X115558800Y-103917609D01*
X115756538Y-103917609D01*
X115760409Y-103955282D01*
X115852579Y-104180533D01*
X115986922Y-104383474D01*
X116158275Y-104556307D01*
X116360054Y-104692390D01*
X116584504Y-104786493D01*
X116823000Y-104835000D01*
X117123000Y-104835000D01*
X117123000Y-103727000D01*
X117377000Y-103727000D01*
X117377000Y-104835000D01*
X117677000Y-104835000D01*
X117915496Y-104786493D01*
X118139946Y-104692390D01*
X118341725Y-104556307D01*
X118513078Y-104383474D01*
X118647421Y-104180533D01*
X118739591Y-103955282D01*
X118743462Y-103917609D01*
X119226538Y-103917609D01*
X119230409Y-103955282D01*
X119322579Y-104180533D01*
X119456922Y-104383474D01*
X119628275Y-104556307D01*
X119830054Y-104692390D01*
X120054504Y-104786493D01*
X120293000Y-104835000D01*
X120593000Y-104835000D01*
X120593000Y-103727000D01*
X120847000Y-103727000D01*
X120847000Y-104835000D01*
X121147000Y-104835000D01*
X121385496Y-104786493D01*
X121609946Y-104692390D01*
X121811725Y-104556307D01*
X121983078Y-104383474D01*
X122117421Y-104180533D01*
X122209591Y-103955282D01*
X122213462Y-103917609D01*
X122088731Y-103727000D01*
X120847000Y-103727000D01*
X120593000Y-103727000D01*
X119351269Y-103727000D01*
X119226538Y-103917609D01*
X118743462Y-103917609D01*
X118618731Y-103727000D01*
X117377000Y-103727000D01*
X117123000Y-103727000D01*
X115881269Y-103727000D01*
X115756538Y-103917609D01*
X115558800Y-103917609D01*
X115558800Y-103282391D01*
X115756538Y-103282391D01*
X115881269Y-103473000D01*
X117123000Y-103473000D01*
X117123000Y-102413678D01*
X117130537Y-102404494D01*
X117151647Y-102365000D01*
X117377000Y-102365000D01*
X117377000Y-103473000D01*
X118618731Y-103473000D01*
X118743462Y-103282391D01*
X118739591Y-103244718D01*
X118647421Y-103019467D01*
X118513078Y-102816526D01*
X118341725Y-102643693D01*
X118139946Y-102507610D01*
X117915496Y-102413507D01*
X117677000Y-102365000D01*
X117377000Y-102365000D01*
X117151647Y-102365000D01*
X117189502Y-102294180D01*
X117225812Y-102174482D01*
X117238072Y-102050000D01*
X117235000Y-101785750D01*
X117076250Y-101627000D01*
X116227000Y-101627000D01*
X116227000Y-102526250D01*
X116269459Y-102568709D01*
X116158275Y-102643693D01*
X115986922Y-102816526D01*
X115852579Y-103019467D01*
X115760409Y-103244718D01*
X115756538Y-103282391D01*
X115558800Y-103282391D01*
X115558800Y-102684014D01*
X115600000Y-102688072D01*
X115814250Y-102685000D01*
X115973000Y-102526250D01*
X115973000Y-101627000D01*
X115953000Y-101627000D01*
X115953000Y-101373000D01*
X115973000Y-101373000D01*
X115973000Y-100473750D01*
X115814250Y-100315000D01*
X115600000Y-100311928D01*
X115558800Y-100315986D01*
X115558800Y-99684014D01*
X115600000Y-99688072D01*
X115814250Y-99685000D01*
X115973000Y-99526250D01*
X115973000Y-98627000D01*
X115953000Y-98627000D01*
X115953000Y-98373000D01*
X115973000Y-98373000D01*
X115973000Y-97473750D01*
X115814250Y-97315000D01*
X115600000Y-97311928D01*
X115558800Y-97315986D01*
X115558800Y-96717609D01*
X115756538Y-96717609D01*
X115760409Y-96755282D01*
X115852579Y-96980533D01*
X115986922Y-97183474D01*
X116158275Y-97356307D01*
X116269459Y-97431291D01*
X116227000Y-97473750D01*
X116227000Y-98373000D01*
X117076250Y-98373000D01*
X117235000Y-98214250D01*
X117238072Y-97950000D01*
X117225812Y-97825518D01*
X117189502Y-97705820D01*
X117130537Y-97595506D01*
X117123000Y-97586322D01*
X117123000Y-96527000D01*
X117377000Y-96527000D01*
X117377000Y-97635000D01*
X117677000Y-97635000D01*
X117915496Y-97586493D01*
X118139946Y-97492390D01*
X118341725Y-97356307D01*
X118513078Y-97183474D01*
X118647421Y-96980533D01*
X118739591Y-96755282D01*
X118743462Y-96717609D01*
X118618731Y-96527000D01*
X117377000Y-96527000D01*
X117123000Y-96527000D01*
X115881269Y-96527000D01*
X115756538Y-96717609D01*
X115558800Y-96717609D01*
X115558800Y-96082391D01*
X115756538Y-96082391D01*
X115881269Y-96273000D01*
X117123000Y-96273000D01*
X117123000Y-95165000D01*
X117377000Y-95165000D01*
X117377000Y-96273000D01*
X118618731Y-96273000D01*
X118743462Y-96082391D01*
X119226538Y-96082391D01*
X119351269Y-96273000D01*
X120593000Y-96273000D01*
X120593000Y-95165000D01*
X120293000Y-95165000D01*
X120054504Y-95213507D01*
X119830054Y-95307610D01*
X119628275Y-95443693D01*
X119456922Y-95616526D01*
X119322579Y-95819467D01*
X119230409Y-96044718D01*
X119226538Y-96082391D01*
X118743462Y-96082391D01*
X118739591Y-96044718D01*
X118647421Y-95819467D01*
X118513078Y-95616526D01*
X118341725Y-95443693D01*
X118139946Y-95307610D01*
X117915496Y-95213507D01*
X117677000Y-95165000D01*
X117377000Y-95165000D01*
X117123000Y-95165000D01*
X116823000Y-95165000D01*
X116584504Y-95213507D01*
X116360054Y-95307610D01*
X116158275Y-95443693D01*
X115986922Y-95616526D01*
X115852579Y-95819467D01*
X115760409Y-96044718D01*
X115756538Y-96082391D01*
X115558800Y-96082391D01*
X115558800Y-96047359D01*
X115560090Y-96039804D01*
X115558800Y-95992442D01*
X115558800Y-95972556D01*
X115558051Y-95964954D01*
X115557093Y-95929771D01*
X115552670Y-95910319D01*
X115550714Y-95890456D01*
X115540495Y-95856769D01*
X115532689Y-95822436D01*
X115524552Y-95804211D01*
X115518761Y-95785122D01*
X115502167Y-95754077D01*
X115487812Y-95721926D01*
X115476279Y-95705644D01*
X115466873Y-95688046D01*
X115444535Y-95660827D01*
X115424189Y-95632102D01*
X115409705Y-95618386D01*
X115397043Y-95602957D01*
X115369825Y-95580620D01*
X115344265Y-95556415D01*
X115327377Y-95545785D01*
X115311954Y-95533127D01*
X115280908Y-95516533D01*
X115274449Y-95512467D01*
X115256670Y-95503578D01*
X115214877Y-95481239D01*
X115207544Y-95479015D01*
X114558800Y-95154643D01*
X114558800Y-91558800D01*
X130761136Y-91558800D01*
X130671588Y-91648348D01*
G37*
X130671588Y-91648348D02*
X130647839Y-91667838D01*
X130628350Y-91691586D01*
X130570073Y-91762596D01*
X130554187Y-91792317D01*
X130464366Y-91829522D01*
X130248039Y-91974067D01*
X130064067Y-92158039D01*
X129919522Y-92374366D01*
X129820000Y-92614633D01*
X129720478Y-92374366D01*
X129575933Y-92158039D01*
X129391961Y-91974067D01*
X129175634Y-91829522D01*
X128935263Y-91729957D01*
X128680087Y-91679200D01*
X128419913Y-91679200D01*
X128164737Y-91729957D01*
X127924366Y-91829522D01*
X127708039Y-91974067D01*
X127524067Y-92158039D01*
X127379522Y-92374366D01*
X127279957Y-92614737D01*
X127229200Y-92869913D01*
X127229200Y-93130087D01*
X127265840Y-93314293D01*
X126665933Y-93914200D01*
X123966311Y-93914200D01*
X123865560Y-93924123D01*
X123736286Y-93963338D01*
X123617147Y-94027019D01*
X123512720Y-94112720D01*
X123427019Y-94217147D01*
X123363338Y-94336286D01*
X123354494Y-94365441D01*
X122031007Y-95688929D01*
X121983078Y-95616526D01*
X121811725Y-95443693D01*
X121609946Y-95307610D01*
X121385496Y-95213507D01*
X121147000Y-95165000D01*
X120847000Y-95165000D01*
X120847000Y-96273000D01*
X120867000Y-96273000D01*
X120867000Y-96527000D01*
X120847000Y-96527000D01*
X120847000Y-97635000D01*
X121147000Y-97635000D01*
X121385496Y-97586493D01*
X121609946Y-97492390D01*
X121777701Y-97379254D01*
X121777701Y-97990200D01*
X121694477Y-97990200D01*
X121641042Y-97961639D01*
X121559648Y-97936948D01*
X121475000Y-97928611D01*
X120131800Y-97928611D01*
X120131800Y-97927924D01*
X120103677Y-97786542D01*
X120048513Y-97653363D01*
X119984112Y-97556980D01*
X120054504Y-97586493D01*
X120293000Y-97635000D01*
X120593000Y-97635000D01*
X120593000Y-96527000D01*
X119351269Y-96527000D01*
X119226538Y-96717609D01*
X119230409Y-96755282D01*
X119322579Y-96980533D01*
X119456922Y-97183474D01*
X119557835Y-97285259D01*
X119472076Y-97268200D01*
X119327924Y-97268200D01*
X119186542Y-97296323D01*
X119053363Y-97351487D01*
X118933505Y-97431574D01*
X118831574Y-97533505D01*
X118751487Y-97653363D01*
X118696323Y-97786542D01*
X118668200Y-97927924D01*
X118668200Y-98072076D01*
X118696323Y-98213458D01*
X118751487Y-98346637D01*
X118792921Y-98408647D01*
X118579245Y-98320139D01*
X118261821Y-98257000D01*
X117938179Y-98257000D01*
X117620755Y-98320139D01*
X117321748Y-98443992D01*
X117052648Y-98623798D01*
X117049446Y-98627000D01*
X116227000Y-98627000D01*
X116227000Y-99526250D01*
X116385750Y-99685000D01*
X116467345Y-99686170D01*
X116457000Y-99738179D01*
X116457000Y-100061821D01*
X116507014Y-100313261D01*
X116385750Y-100315000D01*
X116227000Y-100473750D01*
X116227000Y-101373000D01*
X117076250Y-101373000D01*
X117184768Y-101264482D01*
X117321748Y-101356008D01*
X117620755Y-101479861D01*
X117938179Y-101543000D01*
X118261821Y-101543000D01*
X118579245Y-101479861D01*
X118878252Y-101356008D01*
X119147352Y-101176202D01*
X119203902Y-101119652D01*
X119344748Y-101260498D01*
X119190000Y-101260498D01*
X119190000Y-101295635D01*
X119186542Y-101296323D01*
X119053363Y-101351487D01*
X118933505Y-101431574D01*
X118831574Y-101533505D01*
X118751487Y-101653363D01*
X118696323Y-101786542D01*
X118668200Y-101927924D01*
X118668200Y-102072076D01*
X118696323Y-102213458D01*
X118751487Y-102346637D01*
X118831574Y-102466495D01*
X118933505Y-102568426D01*
X119053363Y-102648513D01*
X119186542Y-102703677D01*
X119327924Y-102731800D01*
X119472076Y-102731800D01*
X119557835Y-102714741D01*
X119456922Y-102816526D01*
X119322579Y-103019467D01*
X119230409Y-103244718D01*
X119226538Y-103282391D01*
X119351269Y-103473000D01*
X120593000Y-103473000D01*
X120593000Y-102365000D01*
X120847000Y-102365000D01*
X120847000Y-103473000D01*
X122088731Y-103473000D01*
X122213462Y-103282391D01*
X122209591Y-103244718D01*
X122117421Y-103019467D01*
X121983078Y-102816526D01*
X121811725Y-102643693D01*
X121609946Y-102507610D01*
X121385496Y-102413507D01*
X121147000Y-102365000D01*
X120847000Y-102365000D01*
X120593000Y-102365000D01*
X120293000Y-102365000D01*
X120054504Y-102413507D01*
X119984112Y-102443020D01*
X120048513Y-102346637D01*
X120078550Y-102274121D01*
X120364250Y-102272500D01*
X120523000Y-102113750D01*
X120523000Y-101510500D01*
X120777000Y-101510500D01*
X120777000Y-102113750D01*
X120935750Y-102272500D01*
X121466135Y-102275510D01*
X121590775Y-102264981D01*
X121710966Y-102230337D01*
X121822089Y-102172911D01*
X121919873Y-102094910D01*
X122000561Y-101999331D01*
X122061052Y-101889846D01*
X122099022Y-101770664D01*
X122110000Y-101669250D01*
X121951250Y-101510500D01*
X120777000Y-101510500D01*
X120523000Y-101510500D01*
X120503000Y-101510500D01*
X120503000Y-101264500D01*
X120523000Y-101264500D01*
X120523000Y-101246389D01*
X120777000Y-101246389D01*
X120777000Y-101264500D01*
X121951250Y-101264500D01*
X122110000Y-101105750D01*
X122099022Y-101004336D01*
X122061052Y-100885154D01*
X122000561Y-100775669D01*
X121919873Y-100680090D01*
X121908889Y-100671328D01*
X121908889Y-100533400D01*
X124819546Y-100533400D01*
X124815061Y-100537885D01*
X124718559Y-100682311D01*
X124652087Y-100842788D01*
X124618200Y-101013150D01*
X124618200Y-101186850D01*
X124652087Y-101357212D01*
X124718559Y-101517689D01*
X124805356Y-101647590D01*
X124715061Y-101737885D01*
X124618559Y-101882311D01*
X124552087Y-102042788D01*
X124518200Y-102213150D01*
X124518200Y-102386850D01*
X124550999Y-102551744D01*
X124477852Y-102558948D01*
X124400000Y-102582565D01*
X124322148Y-102558948D01*
X124237500Y-102550611D01*
X123912500Y-102550611D01*
X123827852Y-102558948D01*
X123746458Y-102583639D01*
X123671444Y-102623734D01*
X123605694Y-102677694D01*
X123551734Y-102743444D01*
X123511639Y-102818458D01*
X123486948Y-102899852D01*
X123478611Y-102984500D01*
X123478611Y-104254500D01*
X123486948Y-104339148D01*
X123511639Y-104420542D01*
X123551734Y-104495556D01*
X123605694Y-104561306D01*
X123671444Y-104615266D01*
X123746458Y-104655361D01*
X123827852Y-104680052D01*
X123912500Y-104688389D01*
X124237500Y-104688389D01*
X124322148Y-104680052D01*
X124400000Y-104656435D01*
X124477852Y-104680052D01*
X124562500Y-104688389D01*
X124887500Y-104688389D01*
X124972148Y-104680052D01*
X125050000Y-104656435D01*
X125127852Y-104680052D01*
X125212500Y-104688389D01*
X125537500Y-104688389D01*
X125622148Y-104680052D01*
X125700000Y-104656435D01*
X125777852Y-104680052D01*
X125818200Y-104684026D01*
X125818200Y-104786850D01*
X125848902Y-104941200D01*
X114558800Y-104941200D01*
X114558800Y-104845357D01*
X115207542Y-104520986D01*
X115214878Y-104518761D01*
X115256679Y-104496418D01*
X115274449Y-104487533D01*
X115280906Y-104483468D01*
X115311954Y-104466873D01*
X115327377Y-104454215D01*
X115344265Y-104443585D01*
X115369825Y-104419380D01*
X115397043Y-104397043D01*
X115409705Y-104381614D01*
X115424189Y-104367898D01*
X115444535Y-104339173D01*
X115466873Y-104311954D01*
X115476279Y-104294356D01*
X115487812Y-104278074D01*
X115502167Y-104245923D01*
X115518761Y-104214878D01*
X115524552Y-104195789D01*
X115532689Y-104177564D01*
X115540495Y-104143231D01*
X115550714Y-104109544D01*
X115552670Y-104089681D01*
X115557093Y-104070229D01*
X115558051Y-104035046D01*
X115558800Y-104027444D01*
X115558800Y-104007558D01*
X115560090Y-103960196D01*
X115558800Y-103952641D01*
X115558800Y-103917609D01*
X115756538Y-103917609D01*
X115760409Y-103955282D01*
X115852579Y-104180533D01*
X115986922Y-104383474D01*
X116158275Y-104556307D01*
X116360054Y-104692390D01*
X116584504Y-104786493D01*
X116823000Y-104835000D01*
X117123000Y-104835000D01*
X117123000Y-103727000D01*
X117377000Y-103727000D01*
X117377000Y-104835000D01*
X117677000Y-104835000D01*
X117915496Y-104786493D01*
X118139946Y-104692390D01*
X118341725Y-104556307D01*
X118513078Y-104383474D01*
X118647421Y-104180533D01*
X118739591Y-103955282D01*
X118743462Y-103917609D01*
X119226538Y-103917609D01*
X119230409Y-103955282D01*
X119322579Y-104180533D01*
X119456922Y-104383474D01*
X119628275Y-104556307D01*
X119830054Y-104692390D01*
X120054504Y-104786493D01*
X120293000Y-104835000D01*
X120593000Y-104835000D01*
X120593000Y-103727000D01*
X120847000Y-103727000D01*
X120847000Y-104835000D01*
X121147000Y-104835000D01*
X121385496Y-104786493D01*
X121609946Y-104692390D01*
X121811725Y-104556307D01*
X121983078Y-104383474D01*
X122117421Y-104180533D01*
X122209591Y-103955282D01*
X122213462Y-103917609D01*
X122088731Y-103727000D01*
X120847000Y-103727000D01*
X120593000Y-103727000D01*
X119351269Y-103727000D01*
X119226538Y-103917609D01*
X118743462Y-103917609D01*
X118618731Y-103727000D01*
X117377000Y-103727000D01*
X117123000Y-103727000D01*
X115881269Y-103727000D01*
X115756538Y-103917609D01*
X115558800Y-103917609D01*
X115558800Y-103282391D01*
X115756538Y-103282391D01*
X115881269Y-103473000D01*
X117123000Y-103473000D01*
X117123000Y-102413678D01*
X117130537Y-102404494D01*
X117151647Y-102365000D01*
X117377000Y-102365000D01*
X117377000Y-103473000D01*
X118618731Y-103473000D01*
X118743462Y-103282391D01*
X118739591Y-103244718D01*
X118647421Y-103019467D01*
X118513078Y-102816526D01*
X118341725Y-102643693D01*
X118139946Y-102507610D01*
X117915496Y-102413507D01*
X117677000Y-102365000D01*
X117377000Y-102365000D01*
X117151647Y-102365000D01*
X117189502Y-102294180D01*
X117225812Y-102174482D01*
X117238072Y-102050000D01*
X117235000Y-101785750D01*
X117076250Y-101627000D01*
X116227000Y-101627000D01*
X116227000Y-102526250D01*
X116269459Y-102568709D01*
X116158275Y-102643693D01*
X115986922Y-102816526D01*
X115852579Y-103019467D01*
X115760409Y-103244718D01*
X115756538Y-103282391D01*
X115558800Y-103282391D01*
X115558800Y-102684014D01*
X115600000Y-102688072D01*
X115814250Y-102685000D01*
X115973000Y-102526250D01*
X115973000Y-101627000D01*
X115953000Y-101627000D01*
X115953000Y-101373000D01*
X115973000Y-101373000D01*
X115973000Y-100473750D01*
X115814250Y-100315000D01*
X115600000Y-100311928D01*
X115558800Y-100315986D01*
X115558800Y-99684014D01*
X115600000Y-99688072D01*
X115814250Y-99685000D01*
X115973000Y-99526250D01*
X115973000Y-98627000D01*
X115953000Y-98627000D01*
X115953000Y-98373000D01*
X115973000Y-98373000D01*
X115973000Y-97473750D01*
X115814250Y-97315000D01*
X115600000Y-97311928D01*
X115558800Y-97315986D01*
X115558800Y-96717609D01*
X115756538Y-96717609D01*
X115760409Y-96755282D01*
X115852579Y-96980533D01*
X115986922Y-97183474D01*
X116158275Y-97356307D01*
X116269459Y-97431291D01*
X116227000Y-97473750D01*
X116227000Y-98373000D01*
X117076250Y-98373000D01*
X117235000Y-98214250D01*
X117238072Y-97950000D01*
X117225812Y-97825518D01*
X117189502Y-97705820D01*
X117130537Y-97595506D01*
X117123000Y-97586322D01*
X117123000Y-96527000D01*
X117377000Y-96527000D01*
X117377000Y-97635000D01*
X117677000Y-97635000D01*
X117915496Y-97586493D01*
X118139946Y-97492390D01*
X118341725Y-97356307D01*
X118513078Y-97183474D01*
X118647421Y-96980533D01*
X118739591Y-96755282D01*
X118743462Y-96717609D01*
X118618731Y-96527000D01*
X117377000Y-96527000D01*
X117123000Y-96527000D01*
X115881269Y-96527000D01*
X115756538Y-96717609D01*
X115558800Y-96717609D01*
X115558800Y-96082391D01*
X115756538Y-96082391D01*
X115881269Y-96273000D01*
X117123000Y-96273000D01*
X117123000Y-95165000D01*
X117377000Y-95165000D01*
X117377000Y-96273000D01*
X118618731Y-96273000D01*
X118743462Y-96082391D01*
X119226538Y-96082391D01*
X119351269Y-96273000D01*
X120593000Y-96273000D01*
X120593000Y-95165000D01*
X120293000Y-95165000D01*
X120054504Y-95213507D01*
X119830054Y-95307610D01*
X119628275Y-95443693D01*
X119456922Y-95616526D01*
X119322579Y-95819467D01*
X119230409Y-96044718D01*
X119226538Y-96082391D01*
X118743462Y-96082391D01*
X118739591Y-96044718D01*
X118647421Y-95819467D01*
X118513078Y-95616526D01*
X118341725Y-95443693D01*
X118139946Y-95307610D01*
X117915496Y-95213507D01*
X117677000Y-95165000D01*
X117377000Y-95165000D01*
X117123000Y-95165000D01*
X116823000Y-95165000D01*
X116584504Y-95213507D01*
X116360054Y-95307610D01*
X116158275Y-95443693D01*
X115986922Y-95616526D01*
X115852579Y-95819467D01*
X115760409Y-96044718D01*
X115756538Y-96082391D01*
X115558800Y-96082391D01*
X115558800Y-96047359D01*
X115560090Y-96039804D01*
X115558800Y-95992442D01*
X115558800Y-95972556D01*
X115558051Y-95964954D01*
X115557093Y-95929771D01*
X115552670Y-95910319D01*
X115550714Y-95890456D01*
X115540495Y-95856769D01*
X115532689Y-95822436D01*
X115524552Y-95804211D01*
X115518761Y-95785122D01*
X115502167Y-95754077D01*
X115487812Y-95721926D01*
X115476279Y-95705644D01*
X115466873Y-95688046D01*
X115444535Y-95660827D01*
X115424189Y-95632102D01*
X115409705Y-95618386D01*
X115397043Y-95602957D01*
X115369825Y-95580620D01*
X115344265Y-95556415D01*
X115327377Y-95545785D01*
X115311954Y-95533127D01*
X115280908Y-95516533D01*
X115274449Y-95512467D01*
X115256670Y-95503578D01*
X115214877Y-95481239D01*
X115207544Y-95479015D01*
X114558800Y-95154643D01*
X114558800Y-91558800D01*
X130761136Y-91558800D01*
X130671588Y-91648348D01*
G36*
X145191200Y-104941200D02*
G01*
X138781354Y-104941200D01*
X138833616Y-104913266D01*
X138899366Y-104859306D01*
X138953326Y-104793556D01*
X138993421Y-104718542D01*
X139018112Y-104637148D01*
X139023615Y-104581278D01*
X139064878Y-104568761D01*
X139161954Y-104516873D01*
X139247043Y-104447043D01*
X139264543Y-104425719D01*
X139375719Y-104314543D01*
X139397043Y-104297043D01*
X139466873Y-104211954D01*
X139518761Y-104114878D01*
X139544099Y-104031349D01*
X140802360Y-104031349D01*
X140887008Y-104023012D01*
X140968402Y-103998321D01*
X141043416Y-103958226D01*
X141109166Y-103904266D01*
X141163126Y-103838516D01*
X141203221Y-103763502D01*
X141227912Y-103682108D01*
X141230208Y-103658800D01*
X142382662Y-103658800D01*
X142487930Y-103787070D01*
X142629815Y-103903512D01*
X142791690Y-103990036D01*
X142967335Y-104043317D01*
X143104230Y-104056800D01*
X143695770Y-104056800D01*
X143832665Y-104043317D01*
X144008310Y-103990036D01*
X144170185Y-103903512D01*
X144312070Y-103787070D01*
X144344708Y-103747300D01*
X144500431Y-103747300D01*
X144531000Y-103750311D01*
X144561569Y-103747300D01*
X144561572Y-103747300D01*
X144652992Y-103738296D01*
X144770296Y-103702712D01*
X144878404Y-103644927D01*
X144973162Y-103567162D01*
X144992657Y-103543407D01*
X145191200Y-103344864D01*
X145191200Y-104941200D01*
G37*
X145191200Y-104941200D02*
X138781354Y-104941200D01*
X138833616Y-104913266D01*
X138899366Y-104859306D01*
X138953326Y-104793556D01*
X138993421Y-104718542D01*
X139018112Y-104637148D01*
X139023615Y-104581278D01*
X139064878Y-104568761D01*
X139161954Y-104516873D01*
X139247043Y-104447043D01*
X139264543Y-104425719D01*
X139375719Y-104314543D01*
X139397043Y-104297043D01*
X139466873Y-104211954D01*
X139518761Y-104114878D01*
X139544099Y-104031349D01*
X140802360Y-104031349D01*
X140887008Y-104023012D01*
X140968402Y-103998321D01*
X141043416Y-103958226D01*
X141109166Y-103904266D01*
X141163126Y-103838516D01*
X141203221Y-103763502D01*
X141227912Y-103682108D01*
X141230208Y-103658800D01*
X142382662Y-103658800D01*
X142487930Y-103787070D01*
X142629815Y-103903512D01*
X142791690Y-103990036D01*
X142967335Y-104043317D01*
X143104230Y-104056800D01*
X143695770Y-104056800D01*
X143832665Y-104043317D01*
X144008310Y-103990036D01*
X144170185Y-103903512D01*
X144312070Y-103787070D01*
X144344708Y-103747300D01*
X144500431Y-103747300D01*
X144531000Y-103750311D01*
X144561569Y-103747300D01*
X144561572Y-103747300D01*
X144652992Y-103738296D01*
X144770296Y-103702712D01*
X144878404Y-103644927D01*
X144973162Y-103567162D01*
X144992657Y-103543407D01*
X145191200Y-103344864D01*
X145191200Y-104941200D01*
G36*
X130999448Y-103057352D02*
G01*
X130991111Y-103142000D01*
X130991111Y-103642000D01*
X130995591Y-103687489D01*
X130986061Y-103694892D01*
X130904147Y-103789424D01*
X130842250Y-103898119D01*
X130802747Y-104016801D01*
X130790000Y-104126250D01*
X130948750Y-104285000D01*
X131573000Y-104285000D01*
X131573000Y-104261000D01*
X131827000Y-104261000D01*
X131827000Y-104285000D01*
X131847000Y-104285000D01*
X131847000Y-104531000D01*
X131827000Y-104531000D01*
X131827000Y-104546001D01*
X131573000Y-104546001D01*
X131573000Y-104531000D01*
X130948750Y-104531000D01*
X130933749Y-104546001D01*
X130406867Y-104546001D01*
X130448266Y-104495556D01*
X130488361Y-104420542D01*
X130513052Y-104339148D01*
X130521389Y-104254500D01*
X130521389Y-103008800D01*
X131014176Y-103008800D01*
X130999448Y-103057352D01*
G37*
X130999448Y-103057352D02*
X130991111Y-103142000D01*
X130991111Y-103642000D01*
X130995591Y-103687489D01*
X130986061Y-103694892D01*
X130904147Y-103789424D01*
X130842250Y-103898119D01*
X130802747Y-104016801D01*
X130790000Y-104126250D01*
X130948750Y-104285000D01*
X131573000Y-104285000D01*
X131573000Y-104261000D01*
X131827000Y-104261000D01*
X131827000Y-104285000D01*
X131847000Y-104285000D01*
X131847000Y-104531000D01*
X131827000Y-104531000D01*
X131827000Y-104546001D01*
X131573000Y-104546001D01*
X131573000Y-104531000D01*
X130948750Y-104531000D01*
X130933749Y-104546001D01*
X130406867Y-104546001D01*
X130448266Y-104495556D01*
X130488361Y-104420542D01*
X130513052Y-104339148D01*
X130521389Y-104254500D01*
X130521389Y-103008800D01*
X131014176Y-103008800D01*
X130999448Y-103057352D01*
G36*
X133307000Y-103973000D02*
G01*
X133327000Y-103973000D01*
X133327000Y-104227000D01*
X133307000Y-104227000D01*
X133307000Y-104247000D01*
X133053000Y-104247000D01*
X133053000Y-104227000D01*
X133033000Y-104227000D01*
X133033000Y-103973000D01*
X133053000Y-103973000D01*
X133053000Y-103953000D01*
X133307000Y-103953000D01*
X133307000Y-103973000D01*
G37*
X133307000Y-103973000D02*
X133327000Y-103973000D01*
X133327000Y-104227000D01*
X133307000Y-104227000D01*
X133307000Y-104247000D01*
X133053000Y-104247000D01*
X133053000Y-104227000D01*
X133033000Y-104227000D01*
X133033000Y-103973000D01*
X133053000Y-103973000D01*
X133053000Y-103953000D01*
X133307000Y-103953000D01*
X133307000Y-103973000D01*
G36*
X136527000Y-103169000D02*
G01*
X136547000Y-103169000D01*
X136547000Y-103415000D01*
X136527000Y-103415000D01*
X136527000Y-103439000D01*
X136273000Y-103439000D01*
X136273000Y-103415000D01*
X136253000Y-103415000D01*
X136253000Y-103169000D01*
X136273000Y-103169000D01*
X136273000Y-103145000D01*
X136527000Y-103145000D01*
X136527000Y-103169000D01*
G37*
X136527000Y-103169000D02*
X136547000Y-103169000D01*
X136547000Y-103415000D01*
X136527000Y-103415000D01*
X136527000Y-103439000D01*
X136273000Y-103439000D01*
X136273000Y-103415000D01*
X136253000Y-103415000D01*
X136253000Y-103169000D01*
X136273000Y-103169000D01*
X136273000Y-103145000D01*
X136527000Y-103145000D01*
X136527000Y-103169000D01*
G36*
X135096601Y-100564698D02*
G01*
X135065750Y-100565000D01*
X134907000Y-100723750D01*
X134907000Y-101773000D01*
X134927000Y-101773000D01*
X134927000Y-102027000D01*
X134907000Y-102027000D01*
X134907000Y-102047000D01*
X134653000Y-102047000D01*
X134653000Y-102027000D01*
X134633000Y-102027000D01*
X134633000Y-101773000D01*
X134653000Y-101773000D01*
X134653000Y-100723750D01*
X134494250Y-100565000D01*
X134380889Y-100563892D01*
X134380889Y-99900692D01*
X134513150Y-99927000D01*
X134686850Y-99927000D01*
X134857212Y-99893113D01*
X135017689Y-99826641D01*
X135096600Y-99773914D01*
X135096601Y-100564698D01*
G37*
X135096601Y-100564698D02*
X135065750Y-100565000D01*
X134907000Y-100723750D01*
X134907000Y-101773000D01*
X134927000Y-101773000D01*
X134927000Y-102027000D01*
X134907000Y-102027000D01*
X134907000Y-102047000D01*
X134653000Y-102047000D01*
X134653000Y-102027000D01*
X134633000Y-102027000D01*
X134633000Y-101773000D01*
X134653000Y-101773000D01*
X134653000Y-100723750D01*
X134494250Y-100565000D01*
X134380889Y-100563892D01*
X134380889Y-99900692D01*
X134513150Y-99927000D01*
X134686850Y-99927000D01*
X134857212Y-99893113D01*
X135017689Y-99826641D01*
X135096600Y-99773914D01*
X135096601Y-100564698D01*
G36*
X143527000Y-100498000D02*
G01*
X143547000Y-100498000D01*
X143547000Y-100752000D01*
X143527000Y-100752000D01*
X143527000Y-100772000D01*
X143273000Y-100772000D01*
X143273000Y-100752000D01*
X143253000Y-100752000D01*
X143253000Y-100498000D01*
X143273000Y-100498000D01*
X143273000Y-100478000D01*
X143527000Y-100478000D01*
X143527000Y-100498000D01*
G37*
X143527000Y-100498000D02*
X143547000Y-100498000D01*
X143547000Y-100752000D01*
X143527000Y-100752000D01*
X143527000Y-100772000D01*
X143273000Y-100772000D01*
X143273000Y-100752000D01*
X143253000Y-100752000D01*
X143253000Y-100498000D01*
X143273000Y-100498000D01*
X143273000Y-100478000D01*
X143527000Y-100478000D01*
X143527000Y-100498000D01*
G36*
X123478611Y-97015500D02*
G01*
X123486948Y-97100148D01*
X123511639Y-97181542D01*
X123551734Y-97256556D01*
X123605694Y-97322306D01*
X123671444Y-97376266D01*
X123746458Y-97416361D01*
X123827852Y-97441052D01*
X123912500Y-97449389D01*
X124007374Y-97449389D01*
X123918559Y-97582311D01*
X123852087Y-97742788D01*
X123818200Y-97913150D01*
X123818200Y-98086850D01*
X123852087Y-98257212D01*
X123918559Y-98417689D01*
X124015061Y-98562115D01*
X124137885Y-98684939D01*
X124282311Y-98781441D01*
X124367192Y-98816600D01*
X122763464Y-98816600D01*
X122818407Y-98761657D01*
X122842162Y-98742162D01*
X122919927Y-98647404D01*
X122935237Y-98618761D01*
X122977712Y-98539297D01*
X122992068Y-98491971D01*
X123013296Y-98421992D01*
X123022300Y-98330572D01*
X123022300Y-98330569D01*
X123025311Y-98300000D01*
X123022300Y-98269431D01*
X123022300Y-96457764D01*
X123478611Y-96001453D01*
X123478611Y-97015500D01*
G37*
X123478611Y-97015500D02*
X123486948Y-97100148D01*
X123511639Y-97181542D01*
X123551734Y-97256556D01*
X123605694Y-97322306D01*
X123671444Y-97376266D01*
X123746458Y-97416361D01*
X123827852Y-97441052D01*
X123912500Y-97449389D01*
X124007374Y-97449389D01*
X123918559Y-97582311D01*
X123852087Y-97742788D01*
X123818200Y-97913150D01*
X123818200Y-98086850D01*
X123852087Y-98257212D01*
X123918559Y-98417689D01*
X124015061Y-98562115D01*
X124137885Y-98684939D01*
X124282311Y-98781441D01*
X124367192Y-98816600D01*
X122763464Y-98816600D01*
X122818407Y-98761657D01*
X122842162Y-98742162D01*
X122919927Y-98647404D01*
X122935237Y-98618761D01*
X122977712Y-98539297D01*
X122992068Y-98491971D01*
X123013296Y-98421992D01*
X123022300Y-98330572D01*
X123022300Y-98330569D01*
X123025311Y-98300000D01*
X123022300Y-98269431D01*
X123022300Y-96457764D01*
X123478611Y-96001453D01*
X123478611Y-97015500D01*
G36*
X136363748Y-92985858D02*
G01*
X136349605Y-93000000D01*
X137226231Y-93876626D01*
X137479289Y-93794273D01*
X137551533Y-93643609D01*
X137684067Y-93841961D01*
X137868039Y-94025933D01*
X138084366Y-94170478D01*
X138150001Y-94197665D01*
X137952000Y-94194928D01*
X137827518Y-94207188D01*
X137707820Y-94243498D01*
X137597506Y-94302463D01*
X137500815Y-94381815D01*
X137421463Y-94478506D01*
X137362498Y-94588820D01*
X137326188Y-94708518D01*
X137313928Y-94833000D01*
X137317000Y-95055250D01*
X137475750Y-95214000D01*
X138333000Y-95214000D01*
X138333000Y-95194000D01*
X138587000Y-95194000D01*
X138587000Y-95214000D01*
X139444250Y-95214000D01*
X139603000Y-95055250D01*
X139606072Y-94833000D01*
X139593812Y-94708518D01*
X139557502Y-94588820D01*
X139498537Y-94478506D01*
X139419185Y-94381815D01*
X139322494Y-94302463D01*
X139212180Y-94243498D01*
X139181683Y-94234247D01*
X139335634Y-94170478D01*
X139551961Y-94025933D01*
X139735933Y-93841961D01*
X139880478Y-93625634D01*
X139980000Y-93385367D01*
X140079522Y-93625634D01*
X140224067Y-93841961D01*
X140408039Y-94025933D01*
X140624366Y-94170478D01*
X140864737Y-94270043D01*
X140918672Y-94280771D01*
X140720755Y-94320139D01*
X140421748Y-94443992D01*
X140152648Y-94623798D01*
X139923798Y-94852648D01*
X139743992Y-95121748D01*
X139620139Y-95420755D01*
X139583119Y-95606869D01*
X139444250Y-95468000D01*
X138587000Y-95468000D01*
X138587000Y-95488000D01*
X138333000Y-95488000D01*
X138333000Y-95468000D01*
X137475750Y-95468000D01*
X137317000Y-95626750D01*
X137313928Y-95849000D01*
X137326188Y-95973482D01*
X137362498Y-96093180D01*
X137421463Y-96203494D01*
X137500815Y-96300185D01*
X137589582Y-96373034D01*
X137557424Y-96433200D01*
X137221800Y-96433200D01*
X137221800Y-95790000D01*
X137217375Y-95744866D01*
X137213266Y-95699720D01*
X137212789Y-95698099D01*
X137212624Y-95696418D01*
X137199519Y-95653012D01*
X137186717Y-95609515D01*
X137185935Y-95608018D01*
X137185446Y-95606400D01*
X137164164Y-95566375D01*
X137143153Y-95526184D01*
X137142093Y-95524866D01*
X137141301Y-95523376D01*
X137112669Y-95488270D01*
X137084233Y-95452902D01*
X137082938Y-95451816D01*
X137081871Y-95450507D01*
X137046969Y-95421633D01*
X137012201Y-95392460D01*
X137010718Y-95391645D01*
X137009419Y-95390570D01*
X136969523Y-95368998D01*
X136929801Y-95347161D01*
X136928194Y-95346651D01*
X136926705Y-95345846D01*
X136883404Y-95332442D01*
X136840172Y-95318728D01*
X136838488Y-95318539D01*
X136836879Y-95318041D01*
X136791861Y-95313309D01*
X136746727Y-95308247D01*
X136743481Y-95308224D01*
X136743364Y-95308212D01*
X136743247Y-95308223D01*
X136740000Y-95308200D01*
X134440000Y-95308200D01*
X134399040Y-95312216D01*
X134357981Y-95315232D01*
X134352287Y-95316801D01*
X134346418Y-95317376D01*
X134307035Y-95329266D01*
X134267327Y-95340205D01*
X134261064Y-95342660D01*
X133961668Y-95462418D01*
X133816250Y-95317000D01*
X132817000Y-95317000D01*
X132817000Y-95337000D01*
X132563000Y-95337000D01*
X132563000Y-95317000D01*
X132543000Y-95317000D01*
X132543000Y-95063000D01*
X132563000Y-95063000D01*
X132563000Y-94313750D01*
X132404250Y-94155000D01*
X132040000Y-94151928D01*
X131915518Y-94164188D01*
X131795820Y-94200498D01*
X131685506Y-94259463D01*
X131588815Y-94338815D01*
X131509463Y-94435506D01*
X131450498Y-94545820D01*
X131414188Y-94665518D01*
X131406226Y-94746358D01*
X130980667Y-94320800D01*
X131220087Y-94320800D01*
X131475263Y-94270043D01*
X131715634Y-94170478D01*
X131931961Y-94025933D01*
X132115933Y-93841961D01*
X132260478Y-93625634D01*
X132360000Y-93385367D01*
X132459522Y-93625634D01*
X132604067Y-93841961D01*
X132788039Y-94025933D01*
X132981134Y-94154955D01*
X132975750Y-94155000D01*
X132817000Y-94313750D01*
X132817000Y-95063000D01*
X133816250Y-95063000D01*
X133975000Y-94904250D01*
X133978072Y-94790000D01*
X133965812Y-94665518D01*
X133929502Y-94545820D01*
X133870537Y-94435506D01*
X133791185Y-94338815D01*
X133767449Y-94319336D01*
X134015263Y-94270043D01*
X134255634Y-94170478D01*
X134426616Y-94056231D01*
X135293374Y-94056231D01*
X135375727Y-94309289D01*
X135646418Y-94439086D01*
X135937230Y-94513580D01*
X136236988Y-94529908D01*
X136534171Y-94487443D01*
X136817359Y-94387816D01*
X136964273Y-94309289D01*
X137046626Y-94056231D01*
X136170000Y-93179605D01*
X135293374Y-94056231D01*
X134426616Y-94056231D01*
X134471961Y-94025933D01*
X134655933Y-93841961D01*
X134783863Y-93650500D01*
X134860711Y-93794273D01*
X135113769Y-93876626D01*
X135990395Y-93000000D01*
X135976253Y-92985858D01*
X136155858Y-92806253D01*
X136170000Y-92820395D01*
X136184143Y-92806253D01*
X136363748Y-92985858D01*
G37*
X136363748Y-92985858D02*
X136349605Y-93000000D01*
X137226231Y-93876626D01*
X137479289Y-93794273D01*
X137551533Y-93643609D01*
X137684067Y-93841961D01*
X137868039Y-94025933D01*
X138084366Y-94170478D01*
X138150001Y-94197665D01*
X137952000Y-94194928D01*
X137827518Y-94207188D01*
X137707820Y-94243498D01*
X137597506Y-94302463D01*
X137500815Y-94381815D01*
X137421463Y-94478506D01*
X137362498Y-94588820D01*
X137326188Y-94708518D01*
X137313928Y-94833000D01*
X137317000Y-95055250D01*
X137475750Y-95214000D01*
X138333000Y-95214000D01*
X138333000Y-95194000D01*
X138587000Y-95194000D01*
X138587000Y-95214000D01*
X139444250Y-95214000D01*
X139603000Y-95055250D01*
X139606072Y-94833000D01*
X139593812Y-94708518D01*
X139557502Y-94588820D01*
X139498537Y-94478506D01*
X139419185Y-94381815D01*
X139322494Y-94302463D01*
X139212180Y-94243498D01*
X139181683Y-94234247D01*
X139335634Y-94170478D01*
X139551961Y-94025933D01*
X139735933Y-93841961D01*
X139880478Y-93625634D01*
X139980000Y-93385367D01*
X140079522Y-93625634D01*
X140224067Y-93841961D01*
X140408039Y-94025933D01*
X140624366Y-94170478D01*
X140864737Y-94270043D01*
X140918672Y-94280771D01*
X140720755Y-94320139D01*
X140421748Y-94443992D01*
X140152648Y-94623798D01*
X139923798Y-94852648D01*
X139743992Y-95121748D01*
X139620139Y-95420755D01*
X139583119Y-95606869D01*
X139444250Y-95468000D01*
X138587000Y-95468000D01*
X138587000Y-95488000D01*
X138333000Y-95488000D01*
X138333000Y-95468000D01*
X137475750Y-95468000D01*
X137317000Y-95626750D01*
X137313928Y-95849000D01*
X137326188Y-95973482D01*
X137362498Y-96093180D01*
X137421463Y-96203494D01*
X137500815Y-96300185D01*
X137589582Y-96373034D01*
X137557424Y-96433200D01*
X137221800Y-96433200D01*
X137221800Y-95790000D01*
X137217375Y-95744866D01*
X137213266Y-95699720D01*
X137212789Y-95698099D01*
X137212624Y-95696418D01*
X137199519Y-95653012D01*
X137186717Y-95609515D01*
X137185935Y-95608018D01*
X137185446Y-95606400D01*
X137164164Y-95566375D01*
X137143153Y-95526184D01*
X137142093Y-95524866D01*
X137141301Y-95523376D01*
X137112669Y-95488270D01*
X137084233Y-95452902D01*
X137082938Y-95451816D01*
X137081871Y-95450507D01*
X137046969Y-95421633D01*
X137012201Y-95392460D01*
X137010718Y-95391645D01*
X137009419Y-95390570D01*
X136969523Y-95368998D01*
X136929801Y-95347161D01*
X136928194Y-95346651D01*
X136926705Y-95345846D01*
X136883404Y-95332442D01*
X136840172Y-95318728D01*
X136838488Y-95318539D01*
X136836879Y-95318041D01*
X136791861Y-95313309D01*
X136746727Y-95308247D01*
X136743481Y-95308224D01*
X136743364Y-95308212D01*
X136743247Y-95308223D01*
X136740000Y-95308200D01*
X134440000Y-95308200D01*
X134399040Y-95312216D01*
X134357981Y-95315232D01*
X134352287Y-95316801D01*
X134346418Y-95317376D01*
X134307035Y-95329266D01*
X134267327Y-95340205D01*
X134261064Y-95342660D01*
X133961668Y-95462418D01*
X133816250Y-95317000D01*
X132817000Y-95317000D01*
X132817000Y-95337000D01*
X132563000Y-95337000D01*
X132563000Y-95317000D01*
X132543000Y-95317000D01*
X132543000Y-95063000D01*
X132563000Y-95063000D01*
X132563000Y-94313750D01*
X132404250Y-94155000D01*
X132040000Y-94151928D01*
X131915518Y-94164188D01*
X131795820Y-94200498D01*
X131685506Y-94259463D01*
X131588815Y-94338815D01*
X131509463Y-94435506D01*
X131450498Y-94545820D01*
X131414188Y-94665518D01*
X131406226Y-94746358D01*
X130980667Y-94320800D01*
X131220087Y-94320800D01*
X131475263Y-94270043D01*
X131715634Y-94170478D01*
X131931961Y-94025933D01*
X132115933Y-93841961D01*
X132260478Y-93625634D01*
X132360000Y-93385367D01*
X132459522Y-93625634D01*
X132604067Y-93841961D01*
X132788039Y-94025933D01*
X132981134Y-94154955D01*
X132975750Y-94155000D01*
X132817000Y-94313750D01*
X132817000Y-95063000D01*
X133816250Y-95063000D01*
X133975000Y-94904250D01*
X133978072Y-94790000D01*
X133965812Y-94665518D01*
X133929502Y-94545820D01*
X133870537Y-94435506D01*
X133791185Y-94338815D01*
X133767449Y-94319336D01*
X134015263Y-94270043D01*
X134255634Y-94170478D01*
X134426616Y-94056231D01*
X135293374Y-94056231D01*
X135375727Y-94309289D01*
X135646418Y-94439086D01*
X135937230Y-94513580D01*
X136236988Y-94529908D01*
X136534171Y-94487443D01*
X136817359Y-94387816D01*
X136964273Y-94309289D01*
X137046626Y-94056231D01*
X136170000Y-93179605D01*
X135293374Y-94056231D01*
X134426616Y-94056231D01*
X134471961Y-94025933D01*
X134655933Y-93841961D01*
X134783863Y-93650500D01*
X134860711Y-93794273D01*
X135113769Y-93876626D01*
X135990395Y-93000000D01*
X135976253Y-92985858D01*
X136155858Y-92806253D01*
X136170000Y-92820395D01*
X136184143Y-92806253D01*
X136363748Y-92985858D01*
M02*
