G04 #@! TF.GenerationSoftware,KiCad,Pcbnew,5.1.5-52549c5~84~ubuntu19.10.1*
G04 #@! TF.CreationDate,2020-03-27T11:31:54+02:00*
G04 #@! TF.ProjectId,ESP-PROG_Rev.C,4553502d-5052-44f4-975f-5265762e432e,rev?*
G04 #@! TF.SameCoordinates,Original*
G04 #@! TF.FileFunction,Copper,L2,Bot*
G04 #@! TF.FilePolarity,Positive*
%FSLAX46Y46*%
G04 Gerber Fmt 4.6, Leading zero omitted, Abs format (unit mm)*
G04 Created by KiCad (PCBNEW 5.1.5-52549c5~84~ubuntu19.10.1) date 2020-03-27 11:31:54*
%MOMM*%
%LPD*%
G04 APERTURE LIST*
%ADD10C,1.778000*%
%ADD11R,1.778000X1.778000*%
%ADD12O,1.800000X1.200000*%
%ADD13O,1.500000X1.000000*%
%ADD14C,0.800000*%
%ADD15C,0.900000*%
%ADD16C,0.203200*%
%ADD17C,0.508000*%
%ADD18C,0.381000*%
%ADD19C,0.254000*%
G04 APERTURE END LIST*
D10*
X128550000Y-93000000D03*
X131090000Y-93000000D03*
X133630000Y-93000000D03*
D11*
X143790000Y-93000000D03*
D10*
X141250000Y-93000000D03*
X138710000Y-93000000D03*
X136170000Y-93000000D03*
D12*
X117250000Y-96400000D03*
X120720000Y-96400000D03*
X120720000Y-103600000D03*
X117250000Y-103600000D03*
D13*
X143400000Y-103125000D03*
X143400000Y-101875000D03*
X143400000Y-100625000D03*
X143400000Y-99375000D03*
X143400000Y-98125000D03*
X143400000Y-96875000D03*
D14*
X135750000Y-102850000D03*
D15*
X126500000Y-99200000D03*
X123300000Y-98600000D03*
X142300000Y-104000000D03*
X123300000Y-101300000D03*
X128900000Y-100800000D03*
X130580000Y-100910000D03*
D14*
X134660000Y-100580000D03*
D15*
X130750000Y-103600000D03*
D14*
X139450000Y-104700000D03*
X136450000Y-100050000D03*
D15*
X128600000Y-98800000D03*
X126700000Y-104700000D03*
X124700000Y-98000000D03*
X134600000Y-99045200D03*
X139754800Y-101500000D03*
X125400000Y-102300000D03*
X125500000Y-101100000D03*
X139700000Y-97500000D03*
D16*
X136450000Y-100050000D02*
X135884315Y-100050000D01*
X135884315Y-100050000D02*
X135644315Y-99810000D01*
X133080000Y-98800000D02*
X134090000Y-99810000D01*
X128600000Y-98800000D02*
X133080000Y-98800000D01*
X135644315Y-99810000D02*
X134090000Y-99810000D01*
D17*
X134950801Y-94320801D02*
X138020801Y-94320801D01*
X138020801Y-94320801D02*
X140700000Y-97000000D01*
X140700000Y-97000000D02*
X140700000Y-98300000D01*
X133630000Y-93000000D02*
X134950801Y-94320801D01*
X140700000Y-98300000D02*
X140081801Y-98918199D01*
X141675000Y-101875000D02*
X143400000Y-101875000D01*
X140081801Y-98918199D02*
X140081801Y-100281801D01*
X140081801Y-100281801D02*
X141675000Y-101875000D01*
X140081801Y-98918199D02*
X135363397Y-98918199D01*
X135363397Y-98918199D02*
X135236396Y-99045200D01*
X135236396Y-99045200D02*
X134600000Y-99045200D01*
D18*
X135236396Y-99045200D02*
X135299897Y-98981699D01*
X135299897Y-98981699D02*
X138781699Y-98981699D01*
D19*
X126700000Y-104700000D02*
X124645199Y-102645199D01*
X124645199Y-98054801D02*
X124700000Y-98000000D01*
X124645199Y-102645199D02*
X124645199Y-98054801D01*
D18*
X142269000Y-99375000D02*
X141700000Y-98806000D01*
X143400000Y-99375000D02*
X142269000Y-99375000D01*
X141700000Y-98806000D02*
X141700000Y-96000000D01*
X141700000Y-96000000D02*
X141710000Y-96000000D01*
X141710000Y-96000000D02*
X138710000Y-93000000D01*
X145200000Y-91969058D02*
X145200000Y-97200000D01*
X144830942Y-91600000D02*
X145200000Y-91969058D01*
X141600000Y-91600000D02*
X144830942Y-91600000D01*
X141250000Y-93000000D02*
X141250000Y-91950000D01*
X141250000Y-91950000D02*
X141600000Y-91600000D01*
X145200000Y-97200000D02*
X144275000Y-98125000D01*
X144275000Y-98125000D02*
X143400000Y-98125000D01*
D19*
X139554800Y-101700000D02*
X126000000Y-101700000D01*
X139754800Y-101500000D02*
X139554800Y-101700000D01*
X126000000Y-101700000D02*
X125400000Y-102300000D01*
X135900000Y-97500000D02*
X139700000Y-97500000D01*
X135354745Y-96954745D02*
X135900000Y-97500000D01*
X126528149Y-96954745D02*
X135354745Y-96954745D01*
X125500000Y-101100000D02*
X125500000Y-97982894D01*
X125500000Y-97982894D02*
X126528149Y-96954745D01*
G36*
X145191200Y-104941200D02*
G01*
X127551098Y-104941200D01*
X127581800Y-104786850D01*
X127581800Y-104613150D01*
X127547913Y-104442788D01*
X127481441Y-104282311D01*
X127384939Y-104137885D01*
X127262115Y-104015061D01*
X127117689Y-103918559D01*
X126957212Y-103852087D01*
X126786850Y-103818200D01*
X126613150Y-103818200D01*
X126609240Y-103818978D01*
X125850068Y-103059806D01*
X125962115Y-102984939D01*
X126084939Y-102862115D01*
X126181441Y-102717689D01*
X126247913Y-102557212D01*
X126281800Y-102386850D01*
X126281800Y-102258800D01*
X139303226Y-102258800D01*
X139337111Y-102281441D01*
X139497588Y-102347913D01*
X139667950Y-102381800D01*
X139841650Y-102381800D01*
X140012012Y-102347913D01*
X140172489Y-102281441D01*
X140316915Y-102184939D01*
X140439739Y-102062115D01*
X140536241Y-101917689D01*
X140598212Y-101768079D01*
X141166242Y-102336109D01*
X141187720Y-102362280D01*
X141292147Y-102447981D01*
X141411286Y-102511662D01*
X141540560Y-102550877D01*
X141641311Y-102560800D01*
X141641314Y-102560800D01*
X141675000Y-102564118D01*
X141708686Y-102560800D01*
X142407610Y-102560800D01*
X142371488Y-102604815D01*
X142284964Y-102766690D01*
X142231683Y-102942335D01*
X142213692Y-103125000D01*
X142231683Y-103307665D01*
X142284964Y-103483310D01*
X142371488Y-103645185D01*
X142487930Y-103787070D01*
X142629815Y-103903512D01*
X142791690Y-103990036D01*
X142967335Y-104043317D01*
X143104230Y-104056800D01*
X143695770Y-104056800D01*
X143832665Y-104043317D01*
X144008310Y-103990036D01*
X144170185Y-103903512D01*
X144312070Y-103787070D01*
X144428512Y-103645185D01*
X144515036Y-103483310D01*
X144568317Y-103307665D01*
X144586308Y-103125000D01*
X144568317Y-102942335D01*
X144515036Y-102766690D01*
X144428512Y-102604815D01*
X144342493Y-102500000D01*
X144428512Y-102395185D01*
X144515036Y-102233310D01*
X144568317Y-102057665D01*
X144586308Y-101875000D01*
X144568317Y-101692335D01*
X144515036Y-101516690D01*
X144467054Y-101426923D01*
X144501483Y-101395675D01*
X144635473Y-101214751D01*
X144731592Y-101011163D01*
X144744119Y-100926874D01*
X144617954Y-100752000D01*
X143527000Y-100752000D01*
X143527000Y-100772000D01*
X143273000Y-100772000D01*
X143273000Y-100752000D01*
X142182046Y-100752000D01*
X142055881Y-100926874D01*
X142068408Y-101011163D01*
X142152464Y-101189200D01*
X141959067Y-101189200D01*
X140767601Y-99997734D01*
X140767601Y-99202266D01*
X141082685Y-98887183D01*
X141086704Y-98927991D01*
X141122288Y-99045295D01*
X141128438Y-99056800D01*
X141180073Y-99153404D01*
X141184377Y-99158648D01*
X141257838Y-99248162D01*
X141281593Y-99267657D01*
X141807347Y-99793412D01*
X141826838Y-99817162D01*
X141860624Y-99844889D01*
X141921595Y-99894927D01*
X141981600Y-99927000D01*
X142029704Y-99952712D01*
X142147008Y-99988296D01*
X142195745Y-99993096D01*
X142164527Y-100035249D01*
X142068408Y-100238837D01*
X142055881Y-100323126D01*
X142182046Y-100498000D01*
X143273000Y-100498000D01*
X143273000Y-100478000D01*
X143527000Y-100478000D01*
X143527000Y-100498000D01*
X144617954Y-100498000D01*
X144744119Y-100323126D01*
X144731592Y-100238837D01*
X144635473Y-100035249D01*
X144501483Y-99854325D01*
X144467054Y-99823077D01*
X144515036Y-99733310D01*
X144568317Y-99557665D01*
X144586308Y-99375000D01*
X144568317Y-99192335D01*
X144515036Y-99016690D01*
X144428512Y-98854815D01*
X144342493Y-98750000D01*
X144348150Y-98743106D01*
X144396992Y-98738296D01*
X144514296Y-98702712D01*
X144622404Y-98644927D01*
X144717162Y-98567162D01*
X144736657Y-98543407D01*
X145191201Y-98088864D01*
X145191200Y-104941200D01*
G37*
X145191200Y-104941200D02*
X127551098Y-104941200D01*
X127581800Y-104786850D01*
X127581800Y-104613150D01*
X127547913Y-104442788D01*
X127481441Y-104282311D01*
X127384939Y-104137885D01*
X127262115Y-104015061D01*
X127117689Y-103918559D01*
X126957212Y-103852087D01*
X126786850Y-103818200D01*
X126613150Y-103818200D01*
X126609240Y-103818978D01*
X125850068Y-103059806D01*
X125962115Y-102984939D01*
X126084939Y-102862115D01*
X126181441Y-102717689D01*
X126247913Y-102557212D01*
X126281800Y-102386850D01*
X126281800Y-102258800D01*
X139303226Y-102258800D01*
X139337111Y-102281441D01*
X139497588Y-102347913D01*
X139667950Y-102381800D01*
X139841650Y-102381800D01*
X140012012Y-102347913D01*
X140172489Y-102281441D01*
X140316915Y-102184939D01*
X140439739Y-102062115D01*
X140536241Y-101917689D01*
X140598212Y-101768079D01*
X141166242Y-102336109D01*
X141187720Y-102362280D01*
X141292147Y-102447981D01*
X141411286Y-102511662D01*
X141540560Y-102550877D01*
X141641311Y-102560800D01*
X141641314Y-102560800D01*
X141675000Y-102564118D01*
X141708686Y-102560800D01*
X142407610Y-102560800D01*
X142371488Y-102604815D01*
X142284964Y-102766690D01*
X142231683Y-102942335D01*
X142213692Y-103125000D01*
X142231683Y-103307665D01*
X142284964Y-103483310D01*
X142371488Y-103645185D01*
X142487930Y-103787070D01*
X142629815Y-103903512D01*
X142791690Y-103990036D01*
X142967335Y-104043317D01*
X143104230Y-104056800D01*
X143695770Y-104056800D01*
X143832665Y-104043317D01*
X144008310Y-103990036D01*
X144170185Y-103903512D01*
X144312070Y-103787070D01*
X144428512Y-103645185D01*
X144515036Y-103483310D01*
X144568317Y-103307665D01*
X144586308Y-103125000D01*
X144568317Y-102942335D01*
X144515036Y-102766690D01*
X144428512Y-102604815D01*
X144342493Y-102500000D01*
X144428512Y-102395185D01*
X144515036Y-102233310D01*
X144568317Y-102057665D01*
X144586308Y-101875000D01*
X144568317Y-101692335D01*
X144515036Y-101516690D01*
X144467054Y-101426923D01*
X144501483Y-101395675D01*
X144635473Y-101214751D01*
X144731592Y-101011163D01*
X144744119Y-100926874D01*
X144617954Y-100752000D01*
X143527000Y-100752000D01*
X143527000Y-100772000D01*
X143273000Y-100772000D01*
X143273000Y-100752000D01*
X142182046Y-100752000D01*
X142055881Y-100926874D01*
X142068408Y-101011163D01*
X142152464Y-101189200D01*
X141959067Y-101189200D01*
X140767601Y-99997734D01*
X140767601Y-99202266D01*
X141082685Y-98887183D01*
X141086704Y-98927991D01*
X141122288Y-99045295D01*
X141128438Y-99056800D01*
X141180073Y-99153404D01*
X141184377Y-99158648D01*
X141257838Y-99248162D01*
X141281593Y-99267657D01*
X141807347Y-99793412D01*
X141826838Y-99817162D01*
X141860624Y-99844889D01*
X141921595Y-99894927D01*
X141981600Y-99927000D01*
X142029704Y-99952712D01*
X142147008Y-99988296D01*
X142195745Y-99993096D01*
X142164527Y-100035249D01*
X142068408Y-100238837D01*
X142055881Y-100323126D01*
X142182046Y-100498000D01*
X143273000Y-100498000D01*
X143273000Y-100478000D01*
X143527000Y-100478000D01*
X143527000Y-100498000D01*
X144617954Y-100498000D01*
X144744119Y-100323126D01*
X144731592Y-100238837D01*
X144635473Y-100035249D01*
X144501483Y-99854325D01*
X144467054Y-99823077D01*
X144515036Y-99733310D01*
X144568317Y-99557665D01*
X144586308Y-99375000D01*
X144568317Y-99192335D01*
X144515036Y-99016690D01*
X144428512Y-98854815D01*
X144342493Y-98750000D01*
X144348150Y-98743106D01*
X144396992Y-98738296D01*
X144514296Y-98702712D01*
X144622404Y-98644927D01*
X144717162Y-98567162D01*
X144736657Y-98543407D01*
X145191201Y-98088864D01*
X145191200Y-104941200D01*
G36*
X135522641Y-91612184D02*
G01*
X135375727Y-91690711D01*
X135293374Y-91943769D01*
X136170000Y-92820395D01*
X137046626Y-91943769D01*
X136964273Y-91690711D01*
X136693582Y-91560914D01*
X136685329Y-91558800D01*
X140766016Y-91558800D01*
X140730073Y-91602596D01*
X140672289Y-91710704D01*
X140637953Y-91823894D01*
X140624366Y-91829522D01*
X140408039Y-91974067D01*
X140224067Y-92158039D01*
X140079522Y-92374366D01*
X139980000Y-92614633D01*
X139880478Y-92374366D01*
X139735933Y-92158039D01*
X139551961Y-91974067D01*
X139335634Y-91829522D01*
X139095263Y-91729957D01*
X138840087Y-91679200D01*
X138579913Y-91679200D01*
X138324737Y-91729957D01*
X138084366Y-91829522D01*
X137868039Y-91974067D01*
X137684067Y-92158039D01*
X137556137Y-92349500D01*
X137479289Y-92205727D01*
X137226231Y-92123374D01*
X136349605Y-93000000D01*
X136363748Y-93014143D01*
X136184143Y-93193748D01*
X136170000Y-93179605D01*
X136155858Y-93193748D01*
X135976253Y-93014143D01*
X135990395Y-93000000D01*
X135113769Y-92123374D01*
X134860711Y-92205727D01*
X134788467Y-92356391D01*
X134655933Y-92158039D01*
X134471961Y-91974067D01*
X134255634Y-91829522D01*
X134015263Y-91729957D01*
X133760087Y-91679200D01*
X133499913Y-91679200D01*
X133244737Y-91729957D01*
X133004366Y-91829522D01*
X132788039Y-91974067D01*
X132604067Y-92158039D01*
X132459522Y-92374366D01*
X132360000Y-92614633D01*
X132260478Y-92374366D01*
X132115933Y-92158039D01*
X131931961Y-91974067D01*
X131715634Y-91829522D01*
X131475263Y-91729957D01*
X131220087Y-91679200D01*
X130959913Y-91679200D01*
X130704737Y-91729957D01*
X130464366Y-91829522D01*
X130248039Y-91974067D01*
X130064067Y-92158039D01*
X129919522Y-92374366D01*
X129820000Y-92614633D01*
X129720478Y-92374366D01*
X129575933Y-92158039D01*
X129391961Y-91974067D01*
X129175634Y-91829522D01*
X128935263Y-91729957D01*
X128680087Y-91679200D01*
X128419913Y-91679200D01*
X128164737Y-91729957D01*
X127924366Y-91829522D01*
X127708039Y-91974067D01*
X127524067Y-92158039D01*
X127379522Y-92374366D01*
X127279957Y-92614737D01*
X127229200Y-92869913D01*
X127229200Y-93130087D01*
X127279957Y-93385263D01*
X127379522Y-93625634D01*
X127524067Y-93841961D01*
X127708039Y-94025933D01*
X127924366Y-94170478D01*
X128164737Y-94270043D01*
X128419913Y-94320800D01*
X128680087Y-94320800D01*
X128935263Y-94270043D01*
X129175634Y-94170478D01*
X129391961Y-94025933D01*
X129575933Y-93841961D01*
X129720478Y-93625634D01*
X129820000Y-93385367D01*
X129919522Y-93625634D01*
X130064067Y-93841961D01*
X130248039Y-94025933D01*
X130464366Y-94170478D01*
X130704737Y-94270043D01*
X130959913Y-94320800D01*
X131220087Y-94320800D01*
X131475263Y-94270043D01*
X131715634Y-94170478D01*
X131931961Y-94025933D01*
X132115933Y-93841961D01*
X132260478Y-93625634D01*
X132360000Y-93385367D01*
X132459522Y-93625634D01*
X132604067Y-93841961D01*
X132788039Y-94025933D01*
X133004366Y-94170478D01*
X133244737Y-94270043D01*
X133499913Y-94320800D01*
X133760087Y-94320800D01*
X133944293Y-94284160D01*
X134442043Y-94781910D01*
X134463521Y-94808081D01*
X134567948Y-94893782D01*
X134687087Y-94957463D01*
X134816361Y-94996678D01*
X134917112Y-95006601D01*
X134917115Y-95006601D01*
X134950801Y-95009919D01*
X134984487Y-95006601D01*
X137736734Y-95006601D01*
X139399960Y-96669827D01*
X139282311Y-96718559D01*
X139137885Y-96815061D01*
X139015061Y-96937885D01*
X139012846Y-96941200D01*
X136131463Y-96941200D01*
X135769288Y-96579025D01*
X135751788Y-96557702D01*
X135666699Y-96487872D01*
X135569623Y-96435984D01*
X135464289Y-96404031D01*
X135382189Y-96395945D01*
X135382187Y-96395945D01*
X135354745Y-96393242D01*
X135327303Y-96395945D01*
X126555590Y-96395945D01*
X126528148Y-96393242D01*
X126500706Y-96395945D01*
X126500705Y-96395945D01*
X126418605Y-96404031D01*
X126313271Y-96435984D01*
X126216195Y-96487872D01*
X126131106Y-96557702D01*
X126113606Y-96579026D01*
X125319843Y-97372789D01*
X125262115Y-97315061D01*
X125117689Y-97218559D01*
X124957212Y-97152087D01*
X124786850Y-97118200D01*
X124613150Y-97118200D01*
X124442788Y-97152087D01*
X124282311Y-97218559D01*
X124137885Y-97315061D01*
X124015061Y-97437885D01*
X123918559Y-97582311D01*
X123852087Y-97742788D01*
X123818200Y-97913150D01*
X123818200Y-98086850D01*
X123852087Y-98257212D01*
X123918559Y-98417689D01*
X124015061Y-98562115D01*
X124086400Y-98633454D01*
X124086399Y-102617757D01*
X124083696Y-102645199D01*
X124086399Y-102672641D01*
X124086399Y-102672642D01*
X124094485Y-102754742D01*
X124126438Y-102860076D01*
X124178326Y-102957153D01*
X124248156Y-103042242D01*
X124269480Y-103059742D01*
X125818978Y-104609240D01*
X125818200Y-104613150D01*
X125818200Y-104786850D01*
X125848902Y-104941200D01*
X114558800Y-104941200D01*
X114558800Y-104845357D01*
X115207542Y-104520986D01*
X115214878Y-104518761D01*
X115256679Y-104496418D01*
X115274449Y-104487533D01*
X115280906Y-104483468D01*
X115311954Y-104466873D01*
X115327377Y-104454215D01*
X115344265Y-104443585D01*
X115369825Y-104419380D01*
X115397043Y-104397043D01*
X115409705Y-104381614D01*
X115424189Y-104367898D01*
X115444535Y-104339173D01*
X115466873Y-104311954D01*
X115476279Y-104294356D01*
X115487812Y-104278074D01*
X115502167Y-104245923D01*
X115518761Y-104214878D01*
X115524552Y-104195789D01*
X115532689Y-104177564D01*
X115540495Y-104143231D01*
X115550714Y-104109544D01*
X115552670Y-104089681D01*
X115557093Y-104070229D01*
X115558051Y-104035046D01*
X115558800Y-104027444D01*
X115558800Y-104007558D01*
X115560090Y-103960196D01*
X115558800Y-103952641D01*
X115558800Y-103917609D01*
X115756538Y-103917609D01*
X115760409Y-103955282D01*
X115852579Y-104180533D01*
X115986922Y-104383474D01*
X116158275Y-104556307D01*
X116360054Y-104692390D01*
X116584504Y-104786493D01*
X116823000Y-104835000D01*
X117123000Y-104835000D01*
X117123000Y-103727000D01*
X117377000Y-103727000D01*
X117377000Y-104835000D01*
X117677000Y-104835000D01*
X117915496Y-104786493D01*
X118139946Y-104692390D01*
X118341725Y-104556307D01*
X118513078Y-104383474D01*
X118647421Y-104180533D01*
X118739591Y-103955282D01*
X118743462Y-103917609D01*
X119226538Y-103917609D01*
X119230409Y-103955282D01*
X119322579Y-104180533D01*
X119456922Y-104383474D01*
X119628275Y-104556307D01*
X119830054Y-104692390D01*
X120054504Y-104786493D01*
X120293000Y-104835000D01*
X120593000Y-104835000D01*
X120593000Y-103727000D01*
X120847000Y-103727000D01*
X120847000Y-104835000D01*
X121147000Y-104835000D01*
X121385496Y-104786493D01*
X121609946Y-104692390D01*
X121811725Y-104556307D01*
X121983078Y-104383474D01*
X122117421Y-104180533D01*
X122209591Y-103955282D01*
X122213462Y-103917609D01*
X122088731Y-103727000D01*
X120847000Y-103727000D01*
X120593000Y-103727000D01*
X119351269Y-103727000D01*
X119226538Y-103917609D01*
X118743462Y-103917609D01*
X118618731Y-103727000D01*
X117377000Y-103727000D01*
X117123000Y-103727000D01*
X115881269Y-103727000D01*
X115756538Y-103917609D01*
X115558800Y-103917609D01*
X115558800Y-103282391D01*
X115756538Y-103282391D01*
X115881269Y-103473000D01*
X117123000Y-103473000D01*
X117123000Y-102365000D01*
X117377000Y-102365000D01*
X117377000Y-103473000D01*
X118618731Y-103473000D01*
X118743462Y-103282391D01*
X118739591Y-103244718D01*
X118647421Y-103019467D01*
X118513078Y-102816526D01*
X118341725Y-102643693D01*
X118139946Y-102507610D01*
X117915496Y-102413507D01*
X117677000Y-102365000D01*
X117377000Y-102365000D01*
X117123000Y-102365000D01*
X116823000Y-102365000D01*
X116584504Y-102413507D01*
X116360054Y-102507610D01*
X116158275Y-102643693D01*
X115986922Y-102816526D01*
X115852579Y-103019467D01*
X115760409Y-103244718D01*
X115756538Y-103282391D01*
X115558800Y-103282391D01*
X115558800Y-101927924D01*
X118668200Y-101927924D01*
X118668200Y-102072076D01*
X118696323Y-102213458D01*
X118751487Y-102346637D01*
X118831574Y-102466495D01*
X118933505Y-102568426D01*
X119053363Y-102648513D01*
X119186542Y-102703677D01*
X119327924Y-102731800D01*
X119472076Y-102731800D01*
X119557835Y-102714741D01*
X119456922Y-102816526D01*
X119322579Y-103019467D01*
X119230409Y-103244718D01*
X119226538Y-103282391D01*
X119351269Y-103473000D01*
X120593000Y-103473000D01*
X120593000Y-102365000D01*
X120847000Y-102365000D01*
X120847000Y-103473000D01*
X122088731Y-103473000D01*
X122213462Y-103282391D01*
X122209591Y-103244718D01*
X122117421Y-103019467D01*
X121983078Y-102816526D01*
X121811725Y-102643693D01*
X121609946Y-102507610D01*
X121385496Y-102413507D01*
X121147000Y-102365000D01*
X120847000Y-102365000D01*
X120593000Y-102365000D01*
X120293000Y-102365000D01*
X120054504Y-102413507D01*
X119984112Y-102443020D01*
X120048513Y-102346637D01*
X120103677Y-102213458D01*
X120131800Y-102072076D01*
X120131800Y-101927924D01*
X120103677Y-101786542D01*
X120048513Y-101653363D01*
X119968426Y-101533505D01*
X119866495Y-101431574D01*
X119746637Y-101351487D01*
X119613458Y-101296323D01*
X119472076Y-101268200D01*
X119327924Y-101268200D01*
X119186542Y-101296323D01*
X119053363Y-101351487D01*
X118933505Y-101431574D01*
X118831574Y-101533505D01*
X118751487Y-101653363D01*
X118696323Y-101786542D01*
X118668200Y-101927924D01*
X115558800Y-101927924D01*
X115558800Y-97927924D01*
X118668200Y-97927924D01*
X118668200Y-98072076D01*
X118696323Y-98213458D01*
X118751487Y-98346637D01*
X118831574Y-98466495D01*
X118933505Y-98568426D01*
X119053363Y-98648513D01*
X119186542Y-98703677D01*
X119327924Y-98731800D01*
X119472076Y-98731800D01*
X119613458Y-98703677D01*
X119746637Y-98648513D01*
X119866495Y-98568426D01*
X119968426Y-98466495D01*
X120048513Y-98346637D01*
X120103677Y-98213458D01*
X120131800Y-98072076D01*
X120131800Y-97927924D01*
X120103677Y-97786542D01*
X120048513Y-97653363D01*
X119984112Y-97556980D01*
X120054504Y-97586493D01*
X120293000Y-97635000D01*
X120593000Y-97635000D01*
X120593000Y-96527000D01*
X120847000Y-96527000D01*
X120847000Y-97635000D01*
X121147000Y-97635000D01*
X121385496Y-97586493D01*
X121609946Y-97492390D01*
X121811725Y-97356307D01*
X121983078Y-97183474D01*
X122117421Y-96980533D01*
X122209591Y-96755282D01*
X122213462Y-96717609D01*
X122088731Y-96527000D01*
X120847000Y-96527000D01*
X120593000Y-96527000D01*
X119351269Y-96527000D01*
X119226538Y-96717609D01*
X119230409Y-96755282D01*
X119322579Y-96980533D01*
X119456922Y-97183474D01*
X119557835Y-97285259D01*
X119472076Y-97268200D01*
X119327924Y-97268200D01*
X119186542Y-97296323D01*
X119053363Y-97351487D01*
X118933505Y-97431574D01*
X118831574Y-97533505D01*
X118751487Y-97653363D01*
X118696323Y-97786542D01*
X118668200Y-97927924D01*
X115558800Y-97927924D01*
X115558800Y-96717609D01*
X115756538Y-96717609D01*
X115760409Y-96755282D01*
X115852579Y-96980533D01*
X115986922Y-97183474D01*
X116158275Y-97356307D01*
X116360054Y-97492390D01*
X116584504Y-97586493D01*
X116823000Y-97635000D01*
X117123000Y-97635000D01*
X117123000Y-96527000D01*
X117377000Y-96527000D01*
X117377000Y-97635000D01*
X117677000Y-97635000D01*
X117915496Y-97586493D01*
X118139946Y-97492390D01*
X118341725Y-97356307D01*
X118513078Y-97183474D01*
X118647421Y-96980533D01*
X118739591Y-96755282D01*
X118743462Y-96717609D01*
X118618731Y-96527000D01*
X117377000Y-96527000D01*
X117123000Y-96527000D01*
X115881269Y-96527000D01*
X115756538Y-96717609D01*
X115558800Y-96717609D01*
X115558800Y-96082391D01*
X115756538Y-96082391D01*
X115881269Y-96273000D01*
X117123000Y-96273000D01*
X117123000Y-95165000D01*
X117377000Y-95165000D01*
X117377000Y-96273000D01*
X118618731Y-96273000D01*
X118743462Y-96082391D01*
X119226538Y-96082391D01*
X119351269Y-96273000D01*
X120593000Y-96273000D01*
X120593000Y-95165000D01*
X120847000Y-95165000D01*
X120847000Y-96273000D01*
X122088731Y-96273000D01*
X122213462Y-96082391D01*
X122209591Y-96044718D01*
X122117421Y-95819467D01*
X121983078Y-95616526D01*
X121811725Y-95443693D01*
X121609946Y-95307610D01*
X121385496Y-95213507D01*
X121147000Y-95165000D01*
X120847000Y-95165000D01*
X120593000Y-95165000D01*
X120293000Y-95165000D01*
X120054504Y-95213507D01*
X119830054Y-95307610D01*
X119628275Y-95443693D01*
X119456922Y-95616526D01*
X119322579Y-95819467D01*
X119230409Y-96044718D01*
X119226538Y-96082391D01*
X118743462Y-96082391D01*
X118739591Y-96044718D01*
X118647421Y-95819467D01*
X118513078Y-95616526D01*
X118341725Y-95443693D01*
X118139946Y-95307610D01*
X117915496Y-95213507D01*
X117677000Y-95165000D01*
X117377000Y-95165000D01*
X117123000Y-95165000D01*
X116823000Y-95165000D01*
X116584504Y-95213507D01*
X116360054Y-95307610D01*
X116158275Y-95443693D01*
X115986922Y-95616526D01*
X115852579Y-95819467D01*
X115760409Y-96044718D01*
X115756538Y-96082391D01*
X115558800Y-96082391D01*
X115558800Y-96047359D01*
X115560090Y-96039804D01*
X115558800Y-95992442D01*
X115558800Y-95972556D01*
X115558051Y-95964954D01*
X115557093Y-95929771D01*
X115552670Y-95910319D01*
X115550714Y-95890456D01*
X115540495Y-95856769D01*
X115532689Y-95822436D01*
X115524552Y-95804211D01*
X115518761Y-95785122D01*
X115502167Y-95754077D01*
X115487812Y-95721926D01*
X115476279Y-95705644D01*
X115466873Y-95688046D01*
X115444535Y-95660827D01*
X115424189Y-95632102D01*
X115409705Y-95618386D01*
X115397043Y-95602957D01*
X115369825Y-95580620D01*
X115344265Y-95556415D01*
X115327377Y-95545785D01*
X115311954Y-95533127D01*
X115280908Y-95516533D01*
X115274449Y-95512467D01*
X115256670Y-95503578D01*
X115214877Y-95481239D01*
X115207544Y-95479015D01*
X114558800Y-95154643D01*
X114558800Y-91558800D01*
X135674384Y-91558800D01*
X135522641Y-91612184D01*
G37*
X135522641Y-91612184D02*
X135375727Y-91690711D01*
X135293374Y-91943769D01*
X136170000Y-92820395D01*
X137046626Y-91943769D01*
X136964273Y-91690711D01*
X136693582Y-91560914D01*
X136685329Y-91558800D01*
X140766016Y-91558800D01*
X140730073Y-91602596D01*
X140672289Y-91710704D01*
X140637953Y-91823894D01*
X140624366Y-91829522D01*
X140408039Y-91974067D01*
X140224067Y-92158039D01*
X140079522Y-92374366D01*
X139980000Y-92614633D01*
X139880478Y-92374366D01*
X139735933Y-92158039D01*
X139551961Y-91974067D01*
X139335634Y-91829522D01*
X139095263Y-91729957D01*
X138840087Y-91679200D01*
X138579913Y-91679200D01*
X138324737Y-91729957D01*
X138084366Y-91829522D01*
X137868039Y-91974067D01*
X137684067Y-92158039D01*
X137556137Y-92349500D01*
X137479289Y-92205727D01*
X137226231Y-92123374D01*
X136349605Y-93000000D01*
X136363748Y-93014143D01*
X136184143Y-93193748D01*
X136170000Y-93179605D01*
X136155858Y-93193748D01*
X135976253Y-93014143D01*
X135990395Y-93000000D01*
X135113769Y-92123374D01*
X134860711Y-92205727D01*
X134788467Y-92356391D01*
X134655933Y-92158039D01*
X134471961Y-91974067D01*
X134255634Y-91829522D01*
X134015263Y-91729957D01*
X133760087Y-91679200D01*
X133499913Y-91679200D01*
X133244737Y-91729957D01*
X133004366Y-91829522D01*
X132788039Y-91974067D01*
X132604067Y-92158039D01*
X132459522Y-92374366D01*
X132360000Y-92614633D01*
X132260478Y-92374366D01*
X132115933Y-92158039D01*
X131931961Y-91974067D01*
X131715634Y-91829522D01*
X131475263Y-91729957D01*
X131220087Y-91679200D01*
X130959913Y-91679200D01*
X130704737Y-91729957D01*
X130464366Y-91829522D01*
X130248039Y-91974067D01*
X130064067Y-92158039D01*
X129919522Y-92374366D01*
X129820000Y-92614633D01*
X129720478Y-92374366D01*
X129575933Y-92158039D01*
X129391961Y-91974067D01*
X129175634Y-91829522D01*
X128935263Y-91729957D01*
X128680087Y-91679200D01*
X128419913Y-91679200D01*
X128164737Y-91729957D01*
X127924366Y-91829522D01*
X127708039Y-91974067D01*
X127524067Y-92158039D01*
X127379522Y-92374366D01*
X127279957Y-92614737D01*
X127229200Y-92869913D01*
X127229200Y-93130087D01*
X127279957Y-93385263D01*
X127379522Y-93625634D01*
X127524067Y-93841961D01*
X127708039Y-94025933D01*
X127924366Y-94170478D01*
X128164737Y-94270043D01*
X128419913Y-94320800D01*
X128680087Y-94320800D01*
X128935263Y-94270043D01*
X129175634Y-94170478D01*
X129391961Y-94025933D01*
X129575933Y-93841961D01*
X129720478Y-93625634D01*
X129820000Y-93385367D01*
X129919522Y-93625634D01*
X130064067Y-93841961D01*
X130248039Y-94025933D01*
X130464366Y-94170478D01*
X130704737Y-94270043D01*
X130959913Y-94320800D01*
X131220087Y-94320800D01*
X131475263Y-94270043D01*
X131715634Y-94170478D01*
X131931961Y-94025933D01*
X132115933Y-93841961D01*
X132260478Y-93625634D01*
X132360000Y-93385367D01*
X132459522Y-93625634D01*
X132604067Y-93841961D01*
X132788039Y-94025933D01*
X133004366Y-94170478D01*
X133244737Y-94270043D01*
X133499913Y-94320800D01*
X133760087Y-94320800D01*
X133944293Y-94284160D01*
X134442043Y-94781910D01*
X134463521Y-94808081D01*
X134567948Y-94893782D01*
X134687087Y-94957463D01*
X134816361Y-94996678D01*
X134917112Y-95006601D01*
X134917115Y-95006601D01*
X134950801Y-95009919D01*
X134984487Y-95006601D01*
X137736734Y-95006601D01*
X139399960Y-96669827D01*
X139282311Y-96718559D01*
X139137885Y-96815061D01*
X139015061Y-96937885D01*
X139012846Y-96941200D01*
X136131463Y-96941200D01*
X135769288Y-96579025D01*
X135751788Y-96557702D01*
X135666699Y-96487872D01*
X135569623Y-96435984D01*
X135464289Y-96404031D01*
X135382189Y-96395945D01*
X135382187Y-96395945D01*
X135354745Y-96393242D01*
X135327303Y-96395945D01*
X126555590Y-96395945D01*
X126528148Y-96393242D01*
X126500706Y-96395945D01*
X126500705Y-96395945D01*
X126418605Y-96404031D01*
X126313271Y-96435984D01*
X126216195Y-96487872D01*
X126131106Y-96557702D01*
X126113606Y-96579026D01*
X125319843Y-97372789D01*
X125262115Y-97315061D01*
X125117689Y-97218559D01*
X124957212Y-97152087D01*
X124786850Y-97118200D01*
X124613150Y-97118200D01*
X124442788Y-97152087D01*
X124282311Y-97218559D01*
X124137885Y-97315061D01*
X124015061Y-97437885D01*
X123918559Y-97582311D01*
X123852087Y-97742788D01*
X123818200Y-97913150D01*
X123818200Y-98086850D01*
X123852087Y-98257212D01*
X123918559Y-98417689D01*
X124015061Y-98562115D01*
X124086400Y-98633454D01*
X124086399Y-102617757D01*
X124083696Y-102645199D01*
X124086399Y-102672641D01*
X124086399Y-102672642D01*
X124094485Y-102754742D01*
X124126438Y-102860076D01*
X124178326Y-102957153D01*
X124248156Y-103042242D01*
X124269480Y-103059742D01*
X125818978Y-104609240D01*
X125818200Y-104613150D01*
X125818200Y-104786850D01*
X125848902Y-104941200D01*
X114558800Y-104941200D01*
X114558800Y-104845357D01*
X115207542Y-104520986D01*
X115214878Y-104518761D01*
X115256679Y-104496418D01*
X115274449Y-104487533D01*
X115280906Y-104483468D01*
X115311954Y-104466873D01*
X115327377Y-104454215D01*
X115344265Y-104443585D01*
X115369825Y-104419380D01*
X115397043Y-104397043D01*
X115409705Y-104381614D01*
X115424189Y-104367898D01*
X115444535Y-104339173D01*
X115466873Y-104311954D01*
X115476279Y-104294356D01*
X115487812Y-104278074D01*
X115502167Y-104245923D01*
X115518761Y-104214878D01*
X115524552Y-104195789D01*
X115532689Y-104177564D01*
X115540495Y-104143231D01*
X115550714Y-104109544D01*
X115552670Y-104089681D01*
X115557093Y-104070229D01*
X115558051Y-104035046D01*
X115558800Y-104027444D01*
X115558800Y-104007558D01*
X115560090Y-103960196D01*
X115558800Y-103952641D01*
X115558800Y-103917609D01*
X115756538Y-103917609D01*
X115760409Y-103955282D01*
X115852579Y-104180533D01*
X115986922Y-104383474D01*
X116158275Y-104556307D01*
X116360054Y-104692390D01*
X116584504Y-104786493D01*
X116823000Y-104835000D01*
X117123000Y-104835000D01*
X117123000Y-103727000D01*
X117377000Y-103727000D01*
X117377000Y-104835000D01*
X117677000Y-104835000D01*
X117915496Y-104786493D01*
X118139946Y-104692390D01*
X118341725Y-104556307D01*
X118513078Y-104383474D01*
X118647421Y-104180533D01*
X118739591Y-103955282D01*
X118743462Y-103917609D01*
X119226538Y-103917609D01*
X119230409Y-103955282D01*
X119322579Y-104180533D01*
X119456922Y-104383474D01*
X119628275Y-104556307D01*
X119830054Y-104692390D01*
X120054504Y-104786493D01*
X120293000Y-104835000D01*
X120593000Y-104835000D01*
X120593000Y-103727000D01*
X120847000Y-103727000D01*
X120847000Y-104835000D01*
X121147000Y-104835000D01*
X121385496Y-104786493D01*
X121609946Y-104692390D01*
X121811725Y-104556307D01*
X121983078Y-104383474D01*
X122117421Y-104180533D01*
X122209591Y-103955282D01*
X122213462Y-103917609D01*
X122088731Y-103727000D01*
X120847000Y-103727000D01*
X120593000Y-103727000D01*
X119351269Y-103727000D01*
X119226538Y-103917609D01*
X118743462Y-103917609D01*
X118618731Y-103727000D01*
X117377000Y-103727000D01*
X117123000Y-103727000D01*
X115881269Y-103727000D01*
X115756538Y-103917609D01*
X115558800Y-103917609D01*
X115558800Y-103282391D01*
X115756538Y-103282391D01*
X115881269Y-103473000D01*
X117123000Y-103473000D01*
X117123000Y-102365000D01*
X117377000Y-102365000D01*
X117377000Y-103473000D01*
X118618731Y-103473000D01*
X118743462Y-103282391D01*
X118739591Y-103244718D01*
X118647421Y-103019467D01*
X118513078Y-102816526D01*
X118341725Y-102643693D01*
X118139946Y-102507610D01*
X117915496Y-102413507D01*
X117677000Y-102365000D01*
X117377000Y-102365000D01*
X117123000Y-102365000D01*
X116823000Y-102365000D01*
X116584504Y-102413507D01*
X116360054Y-102507610D01*
X116158275Y-102643693D01*
X115986922Y-102816526D01*
X115852579Y-103019467D01*
X115760409Y-103244718D01*
X115756538Y-103282391D01*
X115558800Y-103282391D01*
X115558800Y-101927924D01*
X118668200Y-101927924D01*
X118668200Y-102072076D01*
X118696323Y-102213458D01*
X118751487Y-102346637D01*
X118831574Y-102466495D01*
X118933505Y-102568426D01*
X119053363Y-102648513D01*
X119186542Y-102703677D01*
X119327924Y-102731800D01*
X119472076Y-102731800D01*
X119557835Y-102714741D01*
X119456922Y-102816526D01*
X119322579Y-103019467D01*
X119230409Y-103244718D01*
X119226538Y-103282391D01*
X119351269Y-103473000D01*
X120593000Y-103473000D01*
X120593000Y-102365000D01*
X120847000Y-102365000D01*
X120847000Y-103473000D01*
X122088731Y-103473000D01*
X122213462Y-103282391D01*
X122209591Y-103244718D01*
X122117421Y-103019467D01*
X121983078Y-102816526D01*
X121811725Y-102643693D01*
X121609946Y-102507610D01*
X121385496Y-102413507D01*
X121147000Y-102365000D01*
X120847000Y-102365000D01*
X120593000Y-102365000D01*
X120293000Y-102365000D01*
X120054504Y-102413507D01*
X119984112Y-102443020D01*
X120048513Y-102346637D01*
X120103677Y-102213458D01*
X120131800Y-102072076D01*
X120131800Y-101927924D01*
X120103677Y-101786542D01*
X120048513Y-101653363D01*
X119968426Y-101533505D01*
X119866495Y-101431574D01*
X119746637Y-101351487D01*
X119613458Y-101296323D01*
X119472076Y-101268200D01*
X119327924Y-101268200D01*
X119186542Y-101296323D01*
X119053363Y-101351487D01*
X118933505Y-101431574D01*
X118831574Y-101533505D01*
X118751487Y-101653363D01*
X118696323Y-101786542D01*
X118668200Y-101927924D01*
X115558800Y-101927924D01*
X115558800Y-97927924D01*
X118668200Y-97927924D01*
X118668200Y-98072076D01*
X118696323Y-98213458D01*
X118751487Y-98346637D01*
X118831574Y-98466495D01*
X118933505Y-98568426D01*
X119053363Y-98648513D01*
X119186542Y-98703677D01*
X119327924Y-98731800D01*
X119472076Y-98731800D01*
X119613458Y-98703677D01*
X119746637Y-98648513D01*
X119866495Y-98568426D01*
X119968426Y-98466495D01*
X120048513Y-98346637D01*
X120103677Y-98213458D01*
X120131800Y-98072076D01*
X120131800Y-97927924D01*
X120103677Y-97786542D01*
X120048513Y-97653363D01*
X119984112Y-97556980D01*
X120054504Y-97586493D01*
X120293000Y-97635000D01*
X120593000Y-97635000D01*
X120593000Y-96527000D01*
X120847000Y-96527000D01*
X120847000Y-97635000D01*
X121147000Y-97635000D01*
X121385496Y-97586493D01*
X121609946Y-97492390D01*
X121811725Y-97356307D01*
X121983078Y-97183474D01*
X122117421Y-96980533D01*
X122209591Y-96755282D01*
X122213462Y-96717609D01*
X122088731Y-96527000D01*
X120847000Y-96527000D01*
X120593000Y-96527000D01*
X119351269Y-96527000D01*
X119226538Y-96717609D01*
X119230409Y-96755282D01*
X119322579Y-96980533D01*
X119456922Y-97183474D01*
X119557835Y-97285259D01*
X119472076Y-97268200D01*
X119327924Y-97268200D01*
X119186542Y-97296323D01*
X119053363Y-97351487D01*
X118933505Y-97431574D01*
X118831574Y-97533505D01*
X118751487Y-97653363D01*
X118696323Y-97786542D01*
X118668200Y-97927924D01*
X115558800Y-97927924D01*
X115558800Y-96717609D01*
X115756538Y-96717609D01*
X115760409Y-96755282D01*
X115852579Y-96980533D01*
X115986922Y-97183474D01*
X116158275Y-97356307D01*
X116360054Y-97492390D01*
X116584504Y-97586493D01*
X116823000Y-97635000D01*
X117123000Y-97635000D01*
X117123000Y-96527000D01*
X117377000Y-96527000D01*
X117377000Y-97635000D01*
X117677000Y-97635000D01*
X117915496Y-97586493D01*
X118139946Y-97492390D01*
X118341725Y-97356307D01*
X118513078Y-97183474D01*
X118647421Y-96980533D01*
X118739591Y-96755282D01*
X118743462Y-96717609D01*
X118618731Y-96527000D01*
X117377000Y-96527000D01*
X117123000Y-96527000D01*
X115881269Y-96527000D01*
X115756538Y-96717609D01*
X115558800Y-96717609D01*
X115558800Y-96082391D01*
X115756538Y-96082391D01*
X115881269Y-96273000D01*
X117123000Y-96273000D01*
X117123000Y-95165000D01*
X117377000Y-95165000D01*
X117377000Y-96273000D01*
X118618731Y-96273000D01*
X118743462Y-96082391D01*
X119226538Y-96082391D01*
X119351269Y-96273000D01*
X120593000Y-96273000D01*
X120593000Y-95165000D01*
X120847000Y-95165000D01*
X120847000Y-96273000D01*
X122088731Y-96273000D01*
X122213462Y-96082391D01*
X122209591Y-96044718D01*
X122117421Y-95819467D01*
X121983078Y-95616526D01*
X121811725Y-95443693D01*
X121609946Y-95307610D01*
X121385496Y-95213507D01*
X121147000Y-95165000D01*
X120847000Y-95165000D01*
X120593000Y-95165000D01*
X120293000Y-95165000D01*
X120054504Y-95213507D01*
X119830054Y-95307610D01*
X119628275Y-95443693D01*
X119456922Y-95616526D01*
X119322579Y-95819467D01*
X119230409Y-96044718D01*
X119226538Y-96082391D01*
X118743462Y-96082391D01*
X118739591Y-96044718D01*
X118647421Y-95819467D01*
X118513078Y-95616526D01*
X118341725Y-95443693D01*
X118139946Y-95307610D01*
X117915496Y-95213507D01*
X117677000Y-95165000D01*
X117377000Y-95165000D01*
X117123000Y-95165000D01*
X116823000Y-95165000D01*
X116584504Y-95213507D01*
X116360054Y-95307610D01*
X116158275Y-95443693D01*
X115986922Y-95616526D01*
X115852579Y-95819467D01*
X115760409Y-96044718D01*
X115756538Y-96082391D01*
X115558800Y-96082391D01*
X115558800Y-96047359D01*
X115560090Y-96039804D01*
X115558800Y-95992442D01*
X115558800Y-95972556D01*
X115558051Y-95964954D01*
X115557093Y-95929771D01*
X115552670Y-95910319D01*
X115550714Y-95890456D01*
X115540495Y-95856769D01*
X115532689Y-95822436D01*
X115524552Y-95804211D01*
X115518761Y-95785122D01*
X115502167Y-95754077D01*
X115487812Y-95721926D01*
X115476279Y-95705644D01*
X115466873Y-95688046D01*
X115444535Y-95660827D01*
X115424189Y-95632102D01*
X115409705Y-95618386D01*
X115397043Y-95602957D01*
X115369825Y-95580620D01*
X115344265Y-95556415D01*
X115327377Y-95545785D01*
X115311954Y-95533127D01*
X115280908Y-95516533D01*
X115274449Y-95512467D01*
X115256670Y-95503578D01*
X115214877Y-95481239D01*
X115207544Y-95479015D01*
X114558800Y-95154643D01*
X114558800Y-91558800D01*
X135674384Y-91558800D01*
X135522641Y-91612184D01*
G36*
X135485461Y-97875724D02*
G01*
X135502957Y-97897043D01*
X135588046Y-97966873D01*
X135685122Y-98018761D01*
X135790456Y-98050714D01*
X135872556Y-98058800D01*
X135872557Y-98058800D01*
X135899999Y-98061503D01*
X135927441Y-98058800D01*
X139012846Y-98058800D01*
X139015061Y-98062115D01*
X139137885Y-98184939D01*
X139208914Y-98232399D01*
X135397086Y-98232399D01*
X135363397Y-98229081D01*
X135329708Y-98232399D01*
X135228957Y-98242322D01*
X135099683Y-98281537D01*
X135068912Y-98297985D01*
X135017689Y-98263759D01*
X134857212Y-98197287D01*
X134686850Y-98163400D01*
X134513150Y-98163400D01*
X134342788Y-98197287D01*
X134182311Y-98263759D01*
X134037885Y-98360261D01*
X133915061Y-98483085D01*
X133818559Y-98627511D01*
X133772660Y-98738319D01*
X133475696Y-98441355D01*
X133458995Y-98421005D01*
X133377775Y-98354349D01*
X133285111Y-98304819D01*
X133184565Y-98274319D01*
X133106195Y-98266600D01*
X133106187Y-98266600D01*
X133080000Y-98264021D01*
X133053813Y-98266600D01*
X129304126Y-98266600D01*
X129284939Y-98237885D01*
X129162115Y-98115061D01*
X129017689Y-98018559D01*
X128857212Y-97952087D01*
X128686850Y-97918200D01*
X128513150Y-97918200D01*
X128342788Y-97952087D01*
X128182311Y-98018559D01*
X128037885Y-98115061D01*
X127915061Y-98237885D01*
X127818559Y-98382311D01*
X127752087Y-98542788D01*
X127718200Y-98713150D01*
X127718200Y-98886850D01*
X127752087Y-99057212D01*
X127818559Y-99217689D01*
X127915061Y-99362115D01*
X128037885Y-99484939D01*
X128182311Y-99581441D01*
X128342788Y-99647913D01*
X128513150Y-99681800D01*
X128686850Y-99681800D01*
X128857212Y-99647913D01*
X129017689Y-99581441D01*
X129162115Y-99484939D01*
X129284939Y-99362115D01*
X129304126Y-99333400D01*
X132859059Y-99333400D01*
X133694304Y-100168645D01*
X133711005Y-100188995D01*
X133792225Y-100255651D01*
X133884889Y-100305181D01*
X133985435Y-100335681D01*
X134063805Y-100343400D01*
X134063806Y-100343400D01*
X134090000Y-100345980D01*
X134116194Y-100343400D01*
X135423374Y-100343400D01*
X135488619Y-100408645D01*
X135505320Y-100428995D01*
X135586540Y-100495651D01*
X135679204Y-100545181D01*
X135779750Y-100575681D01*
X135802338Y-100577906D01*
X135803899Y-100580242D01*
X135919758Y-100696101D01*
X136055995Y-100787132D01*
X136207373Y-100849835D01*
X136368075Y-100881800D01*
X136531925Y-100881800D01*
X136692627Y-100849835D01*
X136844005Y-100787132D01*
X136980242Y-100696101D01*
X137096101Y-100580242D01*
X137187132Y-100444005D01*
X137249835Y-100292627D01*
X137281800Y-100131925D01*
X137281800Y-99968075D01*
X137249835Y-99807373D01*
X137187132Y-99655995D01*
X137152389Y-99603999D01*
X139396002Y-99603999D01*
X139396002Y-100248113D01*
X139392684Y-100281801D01*
X139405925Y-100416241D01*
X139445140Y-100545515D01*
X139501670Y-100651275D01*
X139497588Y-100652087D01*
X139337111Y-100718559D01*
X139192685Y-100815061D01*
X139069861Y-100937885D01*
X138973359Y-101082311D01*
X138948966Y-101141200D01*
X126381800Y-101141200D01*
X126381800Y-101013150D01*
X126347913Y-100842788D01*
X126281441Y-100682311D01*
X126184939Y-100537885D01*
X126062115Y-100415061D01*
X126058800Y-100412846D01*
X126058800Y-98214356D01*
X126759611Y-97513545D01*
X135123283Y-97513545D01*
X135485461Y-97875724D01*
G37*
X135485461Y-97875724D02*
X135502957Y-97897043D01*
X135588046Y-97966873D01*
X135685122Y-98018761D01*
X135790456Y-98050714D01*
X135872556Y-98058800D01*
X135872557Y-98058800D01*
X135899999Y-98061503D01*
X135927441Y-98058800D01*
X139012846Y-98058800D01*
X139015061Y-98062115D01*
X139137885Y-98184939D01*
X139208914Y-98232399D01*
X135397086Y-98232399D01*
X135363397Y-98229081D01*
X135329708Y-98232399D01*
X135228957Y-98242322D01*
X135099683Y-98281537D01*
X135068912Y-98297985D01*
X135017689Y-98263759D01*
X134857212Y-98197287D01*
X134686850Y-98163400D01*
X134513150Y-98163400D01*
X134342788Y-98197287D01*
X134182311Y-98263759D01*
X134037885Y-98360261D01*
X133915061Y-98483085D01*
X133818559Y-98627511D01*
X133772660Y-98738319D01*
X133475696Y-98441355D01*
X133458995Y-98421005D01*
X133377775Y-98354349D01*
X133285111Y-98304819D01*
X133184565Y-98274319D01*
X133106195Y-98266600D01*
X133106187Y-98266600D01*
X133080000Y-98264021D01*
X133053813Y-98266600D01*
X129304126Y-98266600D01*
X129284939Y-98237885D01*
X129162115Y-98115061D01*
X129017689Y-98018559D01*
X128857212Y-97952087D01*
X128686850Y-97918200D01*
X128513150Y-97918200D01*
X128342788Y-97952087D01*
X128182311Y-98018559D01*
X128037885Y-98115061D01*
X127915061Y-98237885D01*
X127818559Y-98382311D01*
X127752087Y-98542788D01*
X127718200Y-98713150D01*
X127718200Y-98886850D01*
X127752087Y-99057212D01*
X127818559Y-99217689D01*
X127915061Y-99362115D01*
X128037885Y-99484939D01*
X128182311Y-99581441D01*
X128342788Y-99647913D01*
X128513150Y-99681800D01*
X128686850Y-99681800D01*
X128857212Y-99647913D01*
X129017689Y-99581441D01*
X129162115Y-99484939D01*
X129284939Y-99362115D01*
X129304126Y-99333400D01*
X132859059Y-99333400D01*
X133694304Y-100168645D01*
X133711005Y-100188995D01*
X133792225Y-100255651D01*
X133884889Y-100305181D01*
X133985435Y-100335681D01*
X134063805Y-100343400D01*
X134063806Y-100343400D01*
X134090000Y-100345980D01*
X134116194Y-100343400D01*
X135423374Y-100343400D01*
X135488619Y-100408645D01*
X135505320Y-100428995D01*
X135586540Y-100495651D01*
X135679204Y-100545181D01*
X135779750Y-100575681D01*
X135802338Y-100577906D01*
X135803899Y-100580242D01*
X135919758Y-100696101D01*
X136055995Y-100787132D01*
X136207373Y-100849835D01*
X136368075Y-100881800D01*
X136531925Y-100881800D01*
X136692627Y-100849835D01*
X136844005Y-100787132D01*
X136980242Y-100696101D01*
X137096101Y-100580242D01*
X137187132Y-100444005D01*
X137249835Y-100292627D01*
X137281800Y-100131925D01*
X137281800Y-99968075D01*
X137249835Y-99807373D01*
X137187132Y-99655995D01*
X137152389Y-99603999D01*
X139396002Y-99603999D01*
X139396002Y-100248113D01*
X139392684Y-100281801D01*
X139405925Y-100416241D01*
X139445140Y-100545515D01*
X139501670Y-100651275D01*
X139497588Y-100652087D01*
X139337111Y-100718559D01*
X139192685Y-100815061D01*
X139069861Y-100937885D01*
X138973359Y-101082311D01*
X138948966Y-101141200D01*
X126381800Y-101141200D01*
X126381800Y-101013150D01*
X126347913Y-100842788D01*
X126281441Y-100682311D01*
X126184939Y-100537885D01*
X126062115Y-100415061D01*
X126058800Y-100412846D01*
X126058800Y-98214356D01*
X126759611Y-97513545D01*
X135123283Y-97513545D01*
X135485461Y-97875724D01*
M02*
